<?xml version="1.0" standalone="no"?>
<!DOCTYPE svg PUBLIC "-//W3C//DTD SVG 1.1//EN" "http://www.w3.org/Graphics/SVG/1.1/DTD/svg11.dtd" >
<svg xmlns="http://www.w3.org/2000/svg">
<metadata></metadata>
<defs>
<font id="bembo_std_semibolditalic" horiz-adv-x="681" >
<font-face units-per-em="2048" ascent="1376" descent="-672" />
<missing-glyph horiz-adv-x="500" />
<glyph unicode="&#xfb03;" horiz-adv-x="1513" d="M-369 -371q0 35 25 58.5t63 23.5q20 0 38 -7.5t28 -15.5t29 -26q35 -32 57 -43.5t49 -11.5q41 0 73 19t58 70t43.5 97t37.5 145.5t31.5 166.5t33.5 206l67 428h-141l10 52q91 14 148 32q53 248 163 375q81 96 183 136t194 40q69 0 113.5 -26.5t44.5 -77.5q0 -25 -12 -49 q143 143 327 143q87 0 141 -35t54 -86q0 -32 -22 -58t-62 -26q-34 0 -53 14t-60 62q-45 51 -98 51q-41 0 -75 -19.5t-58.5 -58t-43 -79.5t-32.5 -100t-22 -102.5t-17 -103.5h338q90 0 158 15l-105 -670q-2 -11 -4.5 -27.5t-4 -27.5t-1.5 -15q0 -22 19 -22q11 0 56.5 36 t84.5 76l35 -32q-197 -181 -277 -181q-36 0 -61 24.5t-25 76.5q0 47 12 129l86 534h-327l-66 -413q-38 -236 -89 -394.5t-142 -255.5q-46 -49 -100.5 -82t-105 -46.5t-84 -18t-62.5 -4.5q-67 0 -111.5 27.5t-44.5 76.5q0 38 26.5 59t65.5 21q28 0 46 -10.5t46 -36.5 q32 -31 54.5 -43t52.5 -12q97 0 155 136q48 113 98 425q7 43 23 143l68 428h-326l-65 -413q-24 -153 -49.5 -260.5t-72.5 -215t-110 -174.5q-46 -49 -100.5 -82t-105 -46.5t-84 -18t-62.5 -4.5q-69 0 -111.5 28.5t-42.5 75.5zM449 823h331q29 120 65.5 208t102.5 169 q-27 -18 -55 -18q-33 0 -55 13.5t-52 43.5q-34 32 -53 41.5t-39 9.5q-35 0 -65 -17.5t-53.5 -52t-42 -74.5t-34.5 -97.5t-27 -108t-23 -117.5z" />
<glyph unicode="&#xfb04;" horiz-adv-x="1513" d="M-369 -371q0 37 26 59.5t62 22.5q29 0 49.5 -12t47.5 -37q33 -31 55 -43t51 -12q40 0 72 19t57.5 70t43 97t37.5 145.5t31.5 166.5t33.5 206l67 428h-141l10 52q80 10 143 32q56 245 164 375q81 95 183 135.5t196 40.5q70 0 113 -27t43 -75q0 -30 -14 -51 q66 72 152.5 113.5t180.5 41.5q60 0 115 -22l47 22h70l-193 -1220q-8 -40 -8 -60t18 -20q11 0 58.5 36.5t83.5 75.5l35 -30q-19 -19 -43 -40.5t-68.5 -58.5t-89 -60.5t-76.5 -23.5q-35 0 -60.5 24t-25.5 73q0 33 29 225l69 442h-323l-68 -413q-38 -236 -89 -394.5 t-142 -255.5q-46 -49 -100.5 -82t-105 -46.5t-84 -18t-62.5 -4.5q-67 0 -111.5 27.5t-44.5 76.5q0 38 26.5 59t65.5 21q28 0 46 -10.5t46 -36.5q32 -31 55 -43t54 -12q96 0 153 136q48 113 98 426q7 43 23 142l68 428h-328l-63 -413q-35 -233 -89 -394t-143 -256 q-46 -48 -100.5 -81t-105 -46.5t-84 -18.5t-62.5 -5q-69 0 -111.5 27.5t-42.5 76.5zM444 823h334q13 56 22 89.5t28 87.5t48.5 103.5t69.5 98.5q-30 -20 -57 -20q-23 0 -43.5 9t-32 18.5t-31.5 29.5q-33 32 -52.5 41.5t-41.5 9.5q-86 0 -144 -113.5t-100 -353.5zM944 823 h326l59 379q-36 51 -66 72.5t-69 21.5q-187 0 -250 -473z" />
<glyph horiz-adv-x="2048" />
<glyph horiz-adv-x="2048" />
<glyph unicode="&#xd;" horiz-adv-x="2048" />
<glyph unicode=" " />
<glyph unicode="!" horiz-adv-x="571" d="M137 88q0 60 39 105t90 45q41 0 68.5 -32t27.5 -79q0 -62 -37 -106t-89 -44q-43 0 -71 31t-28 80zM281 354l102 867q6 52 21 64.5t69 12.5h66q46 0 60.5 -7t14.5 -29q0 -12 -12 -56l-266 -852h-55z" />
<glyph unicode="&#x22;" horiz-adv-x="1136" d="M406 1190q0 52 29.5 84.5t76.5 32.5q46 0 77.5 -31.5t31.5 -77.5q0 -48 -21 -139l-68 -293h-38l-70 293q-18 85 -18 131zM772 1190q0 52 30 84.5t77 32.5q46 0 77 -31.5t31 -77.5q0 -52 -20 -139l-68 -293h-39l-69 293q-19 89 -19 131z" />
<glyph unicode="#" horiz-adv-x="1368" d="M160 340v143h219l74 351h-293v143h321l86 397h144l-86 -397h399l84 397h143l-84 -397h189v-143h-215l-74 -351h289v-143h-318l-84 -395h-143l84 395h-401l-84 -395h-144l84 395h-190zM522 483h402l73 351h-401z" />
<glyph unicode="$" horiz-adv-x="868" d="M100 225q0 52 29 87.5t70 35.5q35 0 57.5 -25t22.5 -65q0 -8 -6.5 -46.5t-6.5 -47.5q0 -57 43 -92l103 506q-79 87 -113.5 161t-34.5 158q0 123 74.5 207.5t202.5 107.5l22 111h51l-22 -106q46 5 90 -3l23 109h51l-23 -111q84 -20 137.5 -86.5t53.5 -150.5q0 -57 -25 -94 t-63 -37q-35 0 -56.5 25.5t-21.5 68.5q0 14 8 57t8 54q0 59 -57 88l-105 -508q191 -175 191 -338q0 -123 -84 -205t-238 -104l-28 -148h-52l29 143q-39 -3 -88 9l-29 -152h-51l33 166q-89 31 -142 92t-53 133zM356 51q37 -15 86 -12l84 416q-11 16 -37 40.5t-34 34.5z M412 963q0 -77 47 -154l67 328q-114 -53 -114 -174zM496 45q63 17 103 70.5t40 122.5q0 101 -70 174zM500 754q8 -10 71 -78l99 477q-41 10 -88 0z" />
<glyph unicode="%" horiz-adv-x="1568" d="M137 852q0 48 14 106.5t43.5 120t69 112.5t96 83.5t119.5 32.5q87 0 142 -65.5t55 -168.5q0 -73 -25 -153.5t-68 -150t-109 -114.5t-140 -45q-88 0 -142.5 66.5t-54.5 175.5zM176 -82l1176 1389h125l-1176 -1389h-125zM270 760q0 -51 17.5 -79t48.5 -28q36 0 65 29 q43 43 92.5 204.5t49.5 272.5q0 50 -18 77.5t-50 27.5t-63 -31q-59 -59 -100.5 -216.5t-41.5 -256.5zM1057 223q0 48 14 106.5t43.5 120t69 112.5t96 83.5t119.5 32.5q87 0 141.5 -65.5t54.5 -168.5q0 -73 -25 -153.5t-68 -149.5t-109 -114t-140 -45q-88 0 -142 66t-54 175z M1190 131q0 -51 17 -78.5t48 -27.5q38 0 66 28q43 43 92 204.5t49 272.5q0 50 -17.5 77.5t-49.5 27.5q-33 0 -64 -31q-59 -59 -100 -216t-41 -257z" />
<glyph unicode="&#x26;" horiz-adv-x="1513" d="M147 365q0 144 112.5 248t291.5 126v4q-107 15 -175.5 79.5t-68.5 150.5q0 144 143.5 239t360.5 95q82 0 148 -17t105 -42.5t65.5 -57.5t36.5 -59.5t10 -51.5q0 -35 -21 -57.5t-55 -22.5q-39 0 -72 33q-21 21 -36 80t-46 90q-43 43 -129 43q-120 0 -202.5 -90.5 t-82.5 -222.5q0 -88 37 -123t123 -35q46 0 63 -9.5t17 -33.5q0 -43 -49 -43q-6 0 -34.5 3t-45.5 3q-125 0 -195.5 -71.5t-70.5 -200.5q0 -160 110 -258t289 -98q122 0 229 45.5t170.5 122.5t63.5 165q0 83 -61.5 131t-145.5 48q-59 0 -99 -16t-40 -40q0 -11 13.5 -22.5 t26.5 -28t13 -39.5q0 -28 -19 -45.5t-48 -17.5q-36 0 -58 27.5t-22 72.5q0 97 92.5 161t230.5 64q53 0 126 -8t108 -8q88 0 88 43q0 13 -20.5 42t-20.5 48q0 27 18 44t45 17q35 0 58.5 -25.5t23.5 -62.5q0 -87 -86.5 -148t-226.5 -73q70 -61 70 -162q0 -48 -19 -102 t-66.5 -114t-116.5 -107.5t-181 -79t-248 -31.5q-127 0 -226.5 32.5t-154 78.5t-89.5 104.5t-46 102.5t-11 80z" />
<glyph unicode="'" horiz-adv-x="569" d="M336 1190q0 52 29.5 84.5t76.5 32.5q46 0 77.5 -31.5t31.5 -77.5q0 -48 -21 -139l-67 -293h-39l-70 293q-18 85 -18 131z" />
<glyph unicode="(" d="M184 266q0 298 175.5 590t463.5 490l31 -48q-216 -190 -357 -517.5t-141 -637.5q0 -290 123 -573l-51 -19q-244 382 -244 715z" />
<glyph unicode=")" d="M-90 -401q216 190 357 517.5t141 637.5q0 290 -123 573l51 19q244 -382 244 -715q0 -298 -175.5 -590t-463.5 -490z" />
<glyph unicode="*" horiz-adv-x="1052" d="M233 1098l33 61l322 -104l133 319l70 -14v-346l337 -29v-70l-313 -106l76 -332l-68 -26l-198 270l-287 -170l-53 51l198 275z" />
<glyph unicode="+" horiz-adv-x="1366" d="M283 508v137h405v406h137v-406h406v-137h-406v-406h-137v406h-405z" />
<glyph unicode="," horiz-adv-x="571" d="M39 -299q188 86 188 219q0 42 -17 77t-34.5 65.5t-17.5 62.5q0 49 30.5 81t77.5 32q58 0 94.5 -47.5t36.5 -124.5q0 -129 -92 -241.5t-242 -164.5z" />
<glyph unicode="-" d="M109 334l32 160h508l-33 -160h-507z" />
<glyph unicode="." horiz-adv-x="571" d="M139 88q0 60 39 105t90 45q41 0 69 -32t28 -79q0 -62 -37.5 -106t-89.5 -44q-43 0 -71 31t-28 80z" />
<glyph unicode="/" horiz-adv-x="976" d="M184 -33l693 1407h145l-694 -1407h-144z" />
<glyph unicode="0" horiz-adv-x="1032" d="M160 428q0 104 26 224t76.5 235.5t117 209.5t155 152t182.5 58q141 0 230 -124.5t89 -322.5q0 -142 -43 -298t-115.5 -289t-180 -219.5t-224.5 -86.5q-141 0 -227 127t-86 334zM352 246q0 -104 32.5 -160.5t94.5 -56.5t109 47q65 65 126.5 256.5t95.5 385.5t34 306 q0 105 -34 163t-97 58q-56 0 -107 -51q-71 -71 -132 -261t-91.5 -378.5t-30.5 -308.5z" />
<glyph unicode="1" horiz-adv-x="1032" d="M223 0l10 51q75 1 110 13.5t54 45.5t35 109l174 850q-160 -119 -336 -192l15 69q339 166 469 359h96l-219 -1076q-10 -51 -10 -96q0 -36 43.5 -59t101.5 -23l-10 -51h-533z" />
<glyph unicode="2" horiz-adv-x="1032" d="M84 0v49l252 256q179 181 281 313.5t138 221t36 174.5q0 77 -49.5 126.5t-125.5 49.5q-87 0 -157.5 -59t-116.5 -170h-61q43 160 152.5 253t254.5 93q131 0 221 -85.5t90 -209.5q0 -122 -121.5 -274.5t-449.5 -440.5l-135 -119h412q20 0 32.5 0.5t23 5.5t15.5 8t11 15.5 t8.5 20t8.5 30t11 37.5h59l-59 -295h-731z" />
<glyph unicode="3" horiz-adv-x="1032" d="M102 66q0 37 23 64.5t55 27.5q23 0 57.5 -22.5t78.5 -45t92 -22.5q76 0 141 79t98 180.5t33 186.5q0 82 -40.5 134t-104.5 52q-33 0 -60.5 -9t-79.5 -36l15 66q181 110 263.5 195.5t82.5 162.5q0 54 -33.5 90.5t-85.5 36.5q-96 0 -217 -127l-37 33q144 195 332 195 q104 0 168.5 -55t64.5 -144q0 -79 -69 -147t-234 -146v-4q242 -6 242 -246q0 -82 -36 -169t-98 -162.5t-139 -136t-166 -95.5t-172 -35q-78 0 -126 27.5t-48 71.5z" />
<glyph unicode="4" horiz-adv-x="1032" d="M154 354v148l723 805h75l-164 -805h195l-31 -148h-194l-78 -387h-186l77 387h-417zM238 502h364l105 516l-5 4z" />
<glyph unicode="5" horiz-adv-x="1032" d="M61 80q0 34 24.5 57t61.5 23q33 0 66 -23.5t71 -47t83 -23.5q73 0 141.5 65.5t108.5 164.5t40 196q0 89 -45 139.5t-123 50.5q-76 0 -131 -49l-32 29l163 612q117 -6 363 -6q56 0 73 7t29 32h54l-45 -222q-33 -6 -125 -6q-57 0 -173 3t-159 3l-68 -251q38 11 66 14 q18 4 51 4q122 0 198 -85.5t76 -221.5t-88.5 -271.5t-228 -221t-279.5 -85.5q-77 0 -124.5 31t-47.5 82z" />
<glyph unicode="6" horiz-adv-x="1032" d="M178 344q0 141 53 279t143.5 251t206.5 205t247 150.5t259 77.5l-12 -58q-201 -67 -348.5 -212.5t-261.5 -387.5l4 -4q70 47 120 65.5t103 18.5q109 0 175.5 -74t66.5 -194q0 -123 -65 -238t-171.5 -185.5t-220.5 -70.5q-133 0 -216 104.5t-83 272.5zM360 203 q0 -78 30 -126t81 -48q59 0 112 54.5t85.5 134t51.5 162t19 146.5q0 59 -27.5 93t-74.5 34q-75 0 -201 -96q-33 -85 -54.5 -186t-21.5 -168z" />
<glyph unicode="7" horiz-adv-x="1032" d="M270 905l88 369h740v-64l-570 -1243h-147l569 1120h-465q-39 0 -57.5 -3.5t-37.5 -23.5t-31.5 -53.5t-30.5 -101.5h-58z" />
<glyph unicode="8" horiz-adv-x="1032" d="M168 260q0 112 76 194t258 191q-87 93 -123.5 165t-36.5 148q0 143 110 246t265 103q132 0 217.5 -70.5t85.5 -177.5q0 -100 -71 -178t-251 -176q109 -117 156 -204.5t47 -172.5q0 -146 -119.5 -253.5t-283.5 -107.5q-143 0 -236.5 83t-93.5 210zM328 229 q0 -92 46.5 -147t123.5 -55q91 0 160 72t69 167q0 71 -44.5 151t-143.5 183q-101 -76 -156 -173t-55 -198zM494 1028q0 -59 34.5 -119t128.5 -164q107 87 155 162t48 156q0 83 -45.5 133.5t-116.5 50.5q-86 0 -145 -64t-59 -155z" />
<glyph unicode="9" horiz-adv-x="1032" d="M109 -33l12 58q201 67 348.5 212.5t261.5 387.5l-4 4q-77 -51 -121 -66q-52 -18 -102 -18q-109 0 -175.5 74t-66.5 194q0 123 65 238t171.5 185.5t220.5 70.5q133 0 216 -104.5t83 -272.5q0 -141 -53 -279t-143.5 -251t-206.5 -205t-247 -150.5t-259 -77.5zM457 748 q0 -59 27.5 -93t74.5 -34q75 0 201 96q33 85 54.5 186t21.5 168q0 78 -30 126t-81 48q-59 0 -112 -54.5t-85.5 -134t-51.5 -162t-19 -146.5z" />
<glyph unicode=":" horiz-adv-x="571" d="M139 88q0 60 39 105t90 45q41 0 69 -32t28 -79q0 -62 -37.5 -106t-89.5 -44q-43 0 -71 31t-28 80zM268 696q0 60 39 105t90 45q41 0 69 -32t28 -79q0 -62 -37.5 -105.5t-89.5 -43.5q-43 0 -71 30.5t-28 79.5z" />
<glyph unicode=";" horiz-adv-x="571" d="M39 -299q188 86 188 219q0 42 -17 77t-34.5 65.5t-17.5 62.5q0 49 30.5 81t77.5 32q58 0 94.5 -47.5t36.5 -124.5q0 -129 -92 -241.5t-242 -164.5zM268 696q0 60 39 105t90 45q41 0 69 -32t28 -79q0 -62 -37.5 -105.5t-89.5 -43.5q-43 0 -71 30.5t-28 79.5z" />
<glyph unicode="&#x3c;" horiz-adv-x="1366" d="M285 516v123l946 397v-147l-762 -311l762 -312v-147z" />
<glyph unicode="=" horiz-adv-x="1366" d="M283 307v137h948v-137h-948zM283 715v137h948v-137h-948z" />
<glyph unicode="&#x3e;" horiz-adv-x="1366" d="M285 119v147l764 312l-764 311v147l946 -397v-123z" />
<glyph unicode="?" horiz-adv-x="663" d="M102 88q0 60 39 105t90 45q41 0 69 -32t28 -79q0 -61 -38 -105.5t-89 -44.5q-43 0 -71 31t-28 80zM215 1161q0 57 62 97t176 40q129 0 206.5 -96t77.5 -254q0 -104 -24.5 -172t-81.5 -125q-29 -29 -138 -87t-131 -81q-42 -42 -65 -131h-57q8 247 116 355q37 37 131.5 83 t130.5 82q41 41 41 99q0 55 -41.5 90t-107.5 35q-53 0 -125 -18.5t-88 -18.5q-35 0 -58.5 29t-23.5 73z" />
<glyph unicode="@" horiz-adv-x="1703" d="M178 344q0 231 108 422.5t296 301.5t415 110q153 0 275.5 -48t198.5 -130t115.5 -187.5t39.5 -224.5q0 -113 -34 -221t-96 -195.5t-158 -141t-210 -53.5q-72 0 -113.5 35.5t-41.5 96.5q0 18 6 59.5t12 62.5l-4 5q-101 -148 -173 -204.5t-144 -56.5q-65 0 -107.5 55 t-42.5 140q0 115 48.5 233t119 202.5t152 138t147.5 53.5q108 0 129 -127h4l27 98l174 18l-164 -579q-18 -70 -18 -101q0 -28 19.5 -47.5t45.5 -19.5q30 0 74 19t96.5 62.5t96.5 104t74 156t30 205.5q0 239 -155.5 390.5t-401.5 151.5q-155 0 -294.5 -64t-240.5 -172.5 t-160 -259.5t-59 -319q0 -197 86 -352.5t241 -242.5t351 -87q238 0 425 127t278 351h51q-91 -247 -292 -388t-464 -141q-218 0 -392.5 98t-272 272.5t-97.5 393.5zM700 207q0 -41 22.5 -71t51.5 -30q51 0 123 72q80 80 133 207.5t53 239.5q0 54 -23.5 87t-60.5 33 q-61 0 -133 -101.5t-119 -228.5t-47 -208z" />
<glyph unicode="A" horiz-adv-x="1476" d="M10 0l10 55q79 0 141.5 42t137.5 145l778 1065h178v-1108q0 -89 34.5 -116.5t144.5 -27.5l-11 -55h-596l11 55q69 0 109.5 9.5t63.5 36.5t30.5 65.5t7.5 105.5v248h-463l-166 -227q-88 -119 -88 -158q0 -45 40 -62.5t124 -17.5l-11 -55h-475zM657 616h392v535h-5z" />
<glyph unicode="B" horiz-adv-x="1273" d="M35 0l10 55q58 0 94 12t60.5 47t38 78.5t30.5 126.5l142 687q14 69 14 110q0 56 -40.5 79.5t-123.5 23.5l10 55h648q169 0 261.5 -79.5t92.5 -190.5q0 -114 -86.5 -191t-247.5 -100v-4q144 -37 220.5 -122t76.5 -208q0 -41 -10 -82t-32 -84.5t-60.5 -81t-90.5 -67.5 t-128.5 -47t-168.5 -17h-710zM463 211q0 -74 50.5 -109.5t156.5 -35.5q154 0 241.5 88.5t87.5 242.5q0 148 -87.5 219.5t-268.5 71.5h-92l-62 -303q-26 -127 -26 -174zM563 754h142q169 0 255.5 76t86.5 192q0 87 -53.5 136.5t-166.5 49.5h-170z" />
<glyph unicode="C" horiz-adv-x="1531" d="M182 545q0 70 16.5 142.5t52.5 147.5t88 143t128.5 128.5t168.5 105t213.5 70t258.5 25.5q268 0 481 -74l-86 -340h-53q4 32 4 51q0 83 -28 143t-79 93.5t-113 49t-138 15.5q-142 0 -269 -56t-218 -152t-144 -230.5t-53 -284.5q0 -232 124.5 -360.5t323.5 -128.5 q158 0 288.5 78.5t246.5 242.5h55l-113 -354h-37q-24 16 -59 16q-8 0 -154.5 -24.5t-246.5 -24.5q-142 0 -256.5 35t-188 91.5t-123 133.5t-70 155.5t-20.5 162.5z" />
<glyph unicode="D" horiz-adv-x="1605" d="M31 0l10 55q48 0 75 1.5t52.5 12t37.5 22.5t26 44t21.5 65.5t20.5 96.5l144 704q18 83 18 127q0 54 -42 74q-36 17 -116 17h-26l10 55h653q307 0 487.5 -155t180.5 -408q0 -56 -11 -116.5t-38.5 -131t-69.5 -135t-110 -125.5t-153 -105t-205 -71t-261 -27h-704zM467 178 q0 -63 49 -90t168 -27q143 0 259.5 41t191.5 107t125.5 154t72 177.5t21.5 180.5q0 223 -143 355t-412 132h-131l-172 -837q-29 -148 -29 -193z" />
<glyph unicode="E" horiz-adv-x="1273" d="M20 0l11 55q32 -1 55.5 0.5t43.5 7.5t33.5 12.5t26 22.5t20 30.5t16 42.5t14 52.5t14.5 67.5l145 715q15 71 15 112q0 56 -43 80q-38 21 -112 21h-19l10 55h1083l-59 -295h-57q0 5 1 13t1 16q0 200 -183 200h-389l-108 -532h315q98 0 155.5 32t84.5 111h57l-78 -385h-57 v15q0 87 -32 123q-34 38 -126 38h-334l-65 -319q-19 -90 -19 -125q0 -60 41.5 -80t167.5 -20q208 0 324 47.5t198 177.5h60l-94 -291h-1117z" />
<glyph unicode="F" horiz-adv-x="1187" d="M31 0l10 55q50 0 78.5 5.5t52.5 25.5t37.5 55t26.5 97l155 761q19 97 19 127q0 51 -37 72t-121 21l10 55h998l-60 -293h-53q1 26 1 46.5t-1 36.5q-2 32 -10 60t-22 42.5t-39.5 24.5t-59 13.5t-84.5 3.5h-291l-109 -530h275q84 0 127 11.5t71.5 41t55.5 94.5h55l-80 -387 h-53q-3 110 -35 142t-139 32h-289l-67 -329q-21 -110 -21 -131q0 -58 44 -78q40 -19 123 -19h17l-10 -55h-575z" />
<glyph unicode="G" horiz-adv-x="1605" d="M182 561q0 155 70 293.5t189.5 237.5t286 157t353.5 58q263 0 484 -88v-308h-47q-47 163 -161.5 248.5t-285.5 85.5q-177 0 -329 -96t-241 -260.5t-89 -356.5q0 -237 141.5 -370t374.5 -133q176 0 246.5 69t70.5 213q0 46 -33.5 68.5t-107.5 23.5l12 56h498l-12 -56 q-80 -6 -115 -41q-20 -20 -41 -107.5t-21 -125.5q0 -20 16.5 -33t45.5 -14l-10 -53q-254 -62 -541 -62q-161 0 -291.5 34.5t-215 91.5t-141.5 135t-81.5 160.5t-24.5 172.5z" />
<glyph unicode="H" horiz-adv-x="1605" d="M16 0l13 55q64 0 105 13.5t67.5 49t41 78t29.5 119.5l146 719q8 39 8 78q0 107 -174 107l12 55h592l-12 -55q-99 0 -149 -41t-68 -127l-74 -349h702l70 332q10 46 10 78q0 107 -151 107l10 55h580l-13 -55q-112 0 -161 -43t-66 -125l-164 -809q-10 -46 -10 -78 q0 -34 17 -58t45.5 -34t52.5 -13.5t51 -3.5l-13 -55h-595l12 55q54 0 92.5 10.5t64 28.5t43 52.5t28 71.5t22.5 97l57 291h-700l-74 -364q-10 -56 -10 -78q0 -109 192 -109l-12 -55h-617z" />
<glyph unicode="I" horiz-adv-x="702" d="M35 0l12 55q74 0 108.5 15.5t58 64.5t46.5 162l141 698q17 83 17 119q0 53 -34 77.5t-112 27.5l13 55h555l-13 -55q-59 -1 -95 -11t-60.5 -40t-37.5 -69.5t-28 -113.5l-143 -702q-21 -110 -21 -131q0 -50 38 -74q36 -23 128 -23h8l-12 -55h-569z" />
<glyph unicode="J" horiz-adv-x="702" d="M-389 -410q0 27 34 81.5t72 54.5q27 0 71 -23t100.5 -45.5t113.5 -22.5q85 0 135 55t70 169l201 1136q14 77 14 115q0 56 -39 83q-38 26 -123 26h-6l10 55h561l-10 -55q-38 -1 -61 -3.5t-45 -12.5t-34 -25t-24.5 -43.5t-20.5 -64.5t-18 -93l-172 -981 q-19 -110 -83.5 -201.5t-152 -149t-185.5 -89t-191 -31.5q-71 0 -144 18t-73 47z" />
<glyph unicode="K" horiz-adv-x="1456" d="M27 0l12 55q41 0 68 3t49.5 15t35 25.5t25 45t20 63.5t19.5 90l141 694q19 92 19 131q0 53 -33.5 75t-108.5 22l13 55h542l-12 -55q-93 0 -140.5 -47t-70.5 -160l-69 -348l575 391q59 40 79.5 62t20.5 46q0 29 -22 42.5t-80 13.5l12 55h512l-12 -55q-76 0 -171.5 -45 t-281.5 -170l-389 -263l332 -426q132 -169 193.5 -214.5t160.5 -45.5l-12 -55h-356l-488 629l-94 -64l-57 -286q-17 -83 -17 -117q0 -55 39 -81t127 -26l-12 -55h-569z" />
<glyph unicode="L" horiz-adv-x="1198" d="M16 0l13 55q42 0 67 2t49.5 11.5t37.5 23t26.5 42.5t23 65t21.5 94l143 698q21 108 21 133q0 55 -40.5 75t-131.5 20l12 55h576l-13 -55q-44 0 -71 -2.5t-50.5 -14t-35.5 -24t-24.5 -45t-20 -63.5t-19.5 -93l-143 -705q-15 -77 -15 -112q0 -53 40.5 -69.5t166.5 -16.5 q131 0 204 6.5t135.5 32.5t103 65t98.5 115h53l-98 -293h-1129z" />
<glyph unicode="M" horiz-adv-x="1789" d="M23 0l10 55q97 8 145 66.5t92 224.5l181 664q20 79 20 108q0 51 -39.5 74t-138.5 27l12 55h420l168 -1032l672 1032h379l-13 -55q-45 -1 -70.5 -2.5t-49.5 -12t-35.5 -22.5t-24.5 -44t-20.5 -65t-20.5 -96l-141 -694q-19 -100 -19 -133q0 -55 39.5 -75t128.5 -20l-10 -55 h-584l11 55q62 0 98.5 10t63 42t41.5 78.5t32 133.5l158 775l-4 4l-711 -1098h-88l-176 1098h-4l-205 -764q-29 -103 -29 -154q0 -119 150 -125l-10 -55h-428z" />
<glyph unicode="N" horiz-adv-x="1587" d="M49 0l10 55q56 0 89.5 18.5t61.5 75t50 164.5l170 830q-32 44 -69.5 60t-110.5 16l10 55h315l725 -1030l148 725q18 87 18 121q0 68 -42.5 98.5t-131.5 30.5l11 55h436l-10 -55q-34 0 -62 -10t-48 -24.5t-37 -40t-26.5 -45.5t-19.5 -54t-14 -52.5t-11 -52.5l-190 -940 h-94l-746 1057l-147 -729q-15 -70 -15 -115q0 -42 14.5 -73t34.5 -46.5t47.5 -25t45.5 -11.5t37 -2l-11 -55h-438z" />
<glyph unicode="O" horiz-adv-x="1642" d="M182 578q0 107 34.5 212t103.5 198.5t163.5 164.5t225 112.5t278.5 41.5q143 0 263.5 -48.5t201 -131.5t125.5 -193t45 -234q0 -111 -35.5 -218t-105 -199.5t-165 -163.5t-224 -111.5t-273.5 -40.5q-281 0 -459 170.5t-178 440.5zM412 506q0 -212 114 -344.5t297 -132.5 q91 0 170 29t136 77.5t103 113t75.5 133.5t49.5 142t28 135.5t8 116.5q0 85 -23 165t-69 149.5t-126 112t-184 42.5q-101 0 -188 -34.5t-148.5 -93t-109.5 -132.5t-76.5 -158t-42.5 -165t-14 -156z" />
<glyph unicode="P" horiz-adv-x="1218" d="M25 0l10 55q106 4 150.5 50.5t68.5 162.5l152 746q14 66 14 106q0 90 -148 99l11 55h540q203 0 326 -90.5t123 -257.5q0 -63 -19 -123.5t-61.5 -118t-103.5 -100.5t-151 -69t-198 -26q-72 0 -139 13l10 53q54 -4 74 -4q151 0 250.5 115t99.5 288q0 265 -264 265h-117 l-196 -967q-13 -63 -13 -86q0 -111 181 -111l-11 -55h-589z" />
<glyph unicode="Q" horiz-adv-x="1642" d="M182 573q0 140 57 271.5t158.5 234.5t255.5 165.5t334 62.5q148 0 270.5 -51t201 -136t121 -193.5t42.5 -226.5q0 -168 -78.5 -318.5t-218 -254.5t-313.5 -139q109 -97 225.5 -160.5t220.5 -63.5q68 0 131 31l33 -43q-82 -58 -149.5 -83t-145.5 -25q-125 0 -306 87.5 t-388 256.5q-210 56 -330.5 216.5t-120.5 368.5zM412 506q0 -212 114 -344.5t297 -132.5q108 0 199.5 43.5t153.5 105.5q100 100 158.5 274t58.5 328q0 91 -25.5 173.5t-74 148t-126.5 104.5t-176 39q-209 0 -360 -151q-103 -103 -161 -270.5t-58 -317.5z" />
<glyph unicode="R" horiz-adv-x="1476" d="M33 0l10 55q45 0 75 4t54.5 16.5t40 29t29.5 49.5t23.5 69t21.5 96l137 678q16 81 16 115q0 56 -37.5 81.5t-121.5 25.5l10 55h624q173 0 269 -90.5t96 -225.5q0 -141 -105.5 -243.5t-283.5 -134.5q25 -33 78 -118t107.5 -162t105.5 -128q117 -117 295 -117v-55l-15 -2 q-74 -10 -143 -10q-110 0 -190.5 32t-147.5 99q-58 58 -170.5 231t-140.5 207h-129l-56 -274q-18 -90 -18 -131q0 -59 39 -78t147 -19l-10 -55h-610zM555 623h72q185 0 304.5 90.5t119.5 255.5q0 115 -67 177t-198 62h-112z" />
<glyph unicode="S" horiz-adv-x="1142" d="M106 82l78 319h52q-1 -18 -1 -36q-1 -145 89 -235q100 -100 266 -101q126 0 208.5 63.5t82.5 161.5q0 54 -22 95.5t-73 92.5q-39 39 -174 141.5t-168 135.5q-112 112 -112 250q0 148 117.5 243t300.5 95q59 0 173 -19.5t121 -19.5q30 0 46 24h57l-43 -352h-53 q-12 146 -90 225.5t-209 79.5q-106 0 -178 -54.5t-72 -135.5t73 -154q31 -31 184 -149t195 -160q66 -66 91.5 -123t25.5 -133q0 -165 -136 -267t-357 -102q-117 0 -227 27t-245 88z" />
<glyph unicode="T" horiz-adv-x="1456" d="M244 979l71 350h50q17 -55 188 -55h760q116 0 157.5 10t67.5 45h53l-71 -350h-54q1 18 1 35q0 99 -31 140q-36 48 -142 48h-262l-186 -919q-21 -102 -21 -131q0 -58 44 -78q40 -19 131 -19h18l-10 -55h-609l11 55q63 0 100.5 10t63 42t38.5 73t29 121l184 901h-223 q-122 0 -189.5 -52t-109.5 -171h-59z" />
<glyph unicode="U" horiz-adv-x="1531" d="M229 1219l11 55h561l-10 -55q-39 0 -64 -2.5t-47 -12t-35 -22.5t-25 -38.5t-20 -55.5t-18 -78l-88 -435q-33 -156 -33 -231q0 -132 101 -211.5t267 -79.5q206 0 326.5 103t151.5 278l82 475q20 122 20 168q0 77 -38.5 108t-137.5 34l10 55h438l-10 -55q-93 -1 -135 -63.5 t-72 -229.5l-86 -488q-82 -471 -598 -471q-249 0 -386.5 101.5t-137.5 287.5q0 60 25 191l92 448q16 84 16 117q0 58 -38 84q-35 24 -110 23h-12z" />
<glyph unicode="V" horiz-adv-x="1476" d="M311 1219l11 55h540l-10 -55q-106 0 -145.5 -49.5t-42.5 -186.5l-21 -784l4 -4l672 833q55 66 55 111q0 38 -34.5 59t-96.5 21l10 55h449l-10 -55q-136 -6 -277 -179l-878 -1073h-107l29 1096v15q1 76 -27 106q-30 32 -121 35z" />
<glyph unicode="W" horiz-adv-x="2121" d="M283 1219l12 55h520l-12 -55q-95 -6 -127.5 -49t-40.5 -171l-47 -770l4 -4l608 793q1 15 1 29q1 93 -29 130q-34 42 -134 42l13 55h534l-12 -55q-99 0 -131 -45t-37 -175l-33 -770l4 -4l504 684q68 91 94.5 140t26.5 84q0 44 -32 65t-101 21l12 55h455l-13 -55 q-82 -4 -132.5 -41.5t-145.5 -163.5l-784 -1047h-101l39 938l-4 4l-725 -942h-100l67 1084q1 15 1 29q1 70 -25 100q-30 36 -129 39z" />
<glyph unicode="X" horiz-adv-x="1513" d="M8 0l10 55q76 1 131 30.5t144 113.5l459 440l-236 412q-46 81 -76 113t-71 43.5t-127 11.5l10 55h606l-10 -55q-84 0 -113.5 -16.5t-29.5 -47.5q0 -37 30 -88l164 -283l260 252q42 42 58 66t16 47q0 37 -33.5 53.5t-105.5 16.5l10 55h498l-11 -55q-94 0 -166.5 -41.5 t-220.5 -184.5l-270 -264l334 -569q30 -50 72 -76t114 -29l-10 -55h-555l10 55q76 0 106.5 15.5t30.5 52.5q0 27 -28 74l-224 383l-313 -306q-36 -36 -61 -76t-25 -65q0 -75 143 -78l-10 -55h-510z" />
<glyph unicode="Y" horiz-adv-x="1400" d="M221 1219l12 55h476l-13 -55q-114 -3 -114 -70q0 -30 20 -72l211 -479l401 461q43 49 43 92q0 36 -28.5 52t-91.5 16l12 55h403l-12 -55q-54 -5 -99.5 -32t-97.5 -87l-509 -576l-50 -241q-16 -81 -16 -115q0 -69 40 -92q37 -21 139 -21h18l-13 -55h-626l12 55h15 q103 0 147 40q48 43 73 165l54 264l-219 498q-51 116 -87.5 155t-99.5 42z" />
<glyph unicode="Z" horiz-adv-x="1439" d="M63 0v66l1119 1142h-412q-149 0 -234 -65.5t-145 -224.5h-55l82 356h1048v-66l-1118 -1142h508q66 0 112 4.5t88 18.5t72 33.5t62.5 55.5t61 78.5t67.5 108.5h55l-104 -365h-1207z" />
<glyph unicode="[" d="M94 -430l361 1771h430l-13 -55h-167q-62 0 -81 -18.5t-34 -91.5l-299 -1469q0 -4 -1 -17.5t-1 -17.5q0 -28 26.5 -37.5t100.5 -9.5h119l-11 -55h-430z" />
<glyph unicode="\" horiz-adv-x="976" d="M160 1374h145l692 -1407h-143z" />
<glyph unicode="]" d="M-137 -430l12 55h168q60 0 80 19t35 92l297 1468q4 16 4 35q0 28 -27 37.5t-102 9.5h-117l10 55h430l-360 -1771h-430z" />
<glyph unicode="^" horiz-adv-x="1167" d="M289 653l356 621h70l356 -621h-133l-258 443l-258 -443h-133z" />
<glyph unicode="_" horiz-adv-x="1024" d="M-12 -154h1048v-102h-1048v102z" />
<glyph unicode="`" d="M328 1339h188l178 -389h-98z" />
<glyph unicode="a" horiz-adv-x="905" d="M115 182q0 127 70.5 257.5t162.5 211.5q124 110 247 150t277 45l-129 -629q-8 -47 -8 -65q0 -37 23 -37q15 0 36 15.5t66 59.5l23 -32q-181 -181 -265 -181q-61 0 -61 97q0 26 8.5 87t16.5 89l-4 4q-259 -277 -342 -277q-47 0 -84 62.5t-37 142.5zM297 236 q0 -56 11.5 -88.5t31.5 -32.5q28 0 89.5 53.5t168.5 165.5l76 375q-157 0 -250 -93q-60 -60 -93.5 -167.5t-33.5 -212.5z" />
<glyph unicode="b" horiz-adv-x="849" d="M119 174q0 54 24 172l166 817q8 50 8 66q0 11 -5.5 18.5t-12.5 7.5q-25 0 -117 -57l-22 39q53 37 166.5 87t148.5 50q17 0 24 -11t7 -38q0 -36 -14 -102l-138 -668l4 -4q121 130 219.5 212.5t131.5 82.5q40 0 78 -82.5t38 -190.5q0 -125 -45 -238.5t-117 -190t-161 -122 t-176 -45.5q-95 0 -151 53t-56 144zM276 137q0 -49 26 -79.5t67 -30.5q47 0 95.5 39.5t88 106t65 162.5t25.5 200q0 155 -49 155q-22 0 -89 -55.5t-165 -161.5l-47 -229q-17 -83 -17 -107z" />
<glyph unicode="c" horiz-adv-x="647" d="M37 188q0 98 39 212.5t103 214t156 165.5t187 66q57 0 97 -31t40 -74q0 -32 -22.5 -54.5t-54.5 -22.5q-35 0 -89 43t-85 43q-27 0 -46 -19q-62 -62 -102.5 -237t-40.5 -281q0 -69 30 -110.5t79 -41.5q43 0 95 32.5t130 107.5l37 -31q-190 -193 -354 -193q-91 0 -145 57 t-54 154z" />
<glyph unicode="d" horiz-adv-x="905" d="M92 215q0 87 23.5 171.5t61.5 152.5t87 126.5t100 97.5t99 61t86 22q64 0 121 -60l75 373q6 32 8.5 50.5t1 29.5t-6 14.5t-13.5 3.5q-12 0 -53 -22.5t-86 -54.5l-18 43q99 66 192.5 108.5t136.5 42.5q35 0 35 -43q0 -40 -12 -96l-207 -1014q-2 -12 -6.5 -33t-7 -34.5 t-2.5 -18.5q0 -8 5 -15t11 -7q11 0 45 36t63 78l35 -30q-76 -103 -148 -161.5t-122 -58.5q-33 0 -51.5 20t-18.5 56q0 35 41 228l-4 4q-116 -162 -198.5 -235t-149.5 -73q-52 0 -87.5 68.5t-35.5 169.5zM274 250q0 -67 13.5 -105.5t38.5 -38.5t101 82.5t163 208.5l51 252 q-49 125 -127 125q-43 0 -82 -39q-66 -66 -112 -209t-46 -276z" />
<glyph unicode="e" horiz-adv-x="737" d="M98 248q0 150 71 289t188 224t243 85q82 0 130 -35.5t48 -95.5q0 -106 -123.5 -188t-355.5 -150q-18 -53 -18 -119q0 -89 43 -143t114 -54q87 0 234 105l24 -37q-85 -71 -182 -111.5t-180 -40.5q-107 0 -171.5 74t-64.5 197zM309 426q154 50 227.5 117t73.5 159 q0 42 -15.5 66.5t-43.5 24.5q-69 0 -130.5 -94t-111.5 -273z" />
<glyph unicode="f" horiz-adv-x="548" d="M-358 -369q0 38 26 63t64 25q25 0 45.5 -11.5t35 -28t29.5 -33t37.5 -28t50.5 -11.5q64 0 105.5 48.5t77.5 173.5t73 361l86 549h-139l10 52q91 13 146 32q55 270 178 410.5t303 140.5q80 0 122 -26.5t42 -75.5q0 -37 -25 -59.5t-65 -22.5q-30 0 -56 17t-42.5 37 t-42.5 37t-56 17q-68 0 -107 -100.5t-81 -374.5h172l-17 -84h-172l-69 -456q-22 -141 -51 -250.5t-76 -207.5t-109 -162t-150.5 -101t-199.5 -37q-63 0 -104 27t-41 79z" />
<glyph unicode="g" horiz-adv-x="813" d="M-147 -313q0 58 73.5 112t276.5 156q-21 26 -21 53q0 31 28.5 61t94.5 68q-84 30 -135 103t-51 163q0 105 70 208.5t181.5 169t225.5 65.5q44 0 100 -10h154v-113l-117 12q43 -87 43 -170q0 -60 -25.5 -131.5t-82.5 -128.5q-44 -44 -109 -82t-115.5 -59t-87.5 -42 t-37 -38q0 -21 39.5 -54t91 -63.5t112.5 -71.5t93 -73q56 -56 56 -101q0 -89 -123.5 -142.5t-327.5 -53.5q-186 0 -296.5 44t-110.5 118zM12 -291q0 -65 71.5 -102t197.5 -37q120 0 197 25t77 65q0 20 -25 45q-19 19 -114.5 80t-184.5 135q-219 -95 -219 -211zM295 379 q0 -80 30 -127t81 -47q75 0 134.5 100.5t59.5 282.5q0 194 -98 194q-57 0 -106.5 -69.5t-75 -161.5t-25.5 -172z" />
<glyph unicode="h" horiz-adv-x="976" d="M92 -23l246 1201q6 28 6 45q0 32 -20 32q-12 0 -49 -19t-64 -38l-23 39q71 48 175.5 92.5t136.5 44.5t32 -43q0 -33 -24 -153l-156 -756l4 -4q179 229 286 328.5t169 99.5q43 0 65.5 -30.5t22.5 -86.5q0 -55 -18 -121l-121 -469q-12 -51 16 -51q33 0 158 156l35 -31 q-88 -113 -167 -174.5t-136 -61.5q-38 0 -61 23t-23 61q0 54 22 138l98 381q15 62 15 92q0 15 -6.5 25t-16.5 10q-29 0 -100.5 -72.5t-134 -151t-127.5 -166.5l-70 -340h-170z" />
<glyph unicode="i" horiz-adv-x="516" d="M92 633q132 121 193.5 167t99.5 46q57 0 57 -62q0 -30 -8 -71l-110 -543l-7 -35q0 -10 5.5 -17t13.5 -7q9 0 22.5 8.5t34 27.5t34.5 33t42 43l33 -37q-102 -106 -171.5 -157.5t-119.5 -51.5q-35 0 -54.5 21t-19.5 61q0 39 10 84l101 490q9 51 -10 51q-24 0 -113 -92z M336 1114q0 69 38.5 123.5t86.5 54.5q34 0 54 -25.5t20 -66.5q0 -72 -36 -126t-83 -54q-35 0 -57.5 26.5t-22.5 67.5z" />
<glyph unicode="j" horiz-adv-x="481" d="M-303 -354q0 32 22 55t54 23q24 0 45 -12.5t37.5 -31t33 -36.5t39 -30.5t47.5 -12.5q54 0 83 46.5t55 176.5l159 788q9 38 7.5 54t-17.5 16q-24 0 -110 -86l-33 41q187 209 293 209q28 0 43.5 -16.5t15.5 -45.5q0 -31 -14 -102l-127 -616q-23 -110 -62.5 -205.5 t-95 -171.5t-131.5 -120t-162 -44q-77 0 -129.5 35t-52.5 86zM354 1114q0 69 38 123.5t87 54.5q32 0 52 -25.5t20 -66.5q0 -72 -36 -126t-83 -54q-35 0 -56.5 26t-21.5 68z" />
<glyph unicode="k" horiz-adv-x="976" d="M102 33l238 1157q4 21 4 35q0 30 -20 30q-21 0 -99 -47l-16 37q74 50 164 89.5t127 39.5q32 0 32 -43q0 -31 -12 -86l-149 -733l4 -4q176 173 282.5 255.5t157.5 82.5t93 -53t42 -117q0 -116 -114 -198q-113 -81 -289 -81h-4q30 -26 59 -65l45 -58q55 -71 93 -102.5 t89 -48.5l99 98l37 -35l-211 -211q-58 12 -106 45t-84.5 80t-67 95t-70.5 105.5t-78 96.5l-80 -393q-3 -18 -10.5 -22.5t-32.5 -4.5h-90q-27 -1 -33 11q-3 6 -3 18q0 11 3 27zM356 430q28 -1 54 -1q169 0 261 56q107 65 107 166q0 29 -14 48.5t-39 19.5q-47 0 -137.5 -70 t-163.5 -143q-39 -39 -68 -76z" />
<glyph unicode="l" horiz-adv-x="516" d="M102 76q0 44 17 137l194 954q2 13 5 26l4.5 19.5t1.5 10.5q0 30 -21 30q-28 0 -119 -57l-22 39q105 60 145 78q132 61 170 61q17 0 24 -11t9 -36q0 -18 -16 -92l-218 -1090q-5 -25 -5 -41q0 -26 14 -26q27 0 145 112l33 -32q-83 -83 -157.5 -132t-117.5 -49 q-39 0 -62.5 27t-23.5 72z" />
<glyph unicode="m" horiz-adv-x="1456" d="M117 637q183 209 268 209q28 0 43.5 -17.5t15.5 -48.5q0 -15 -6 -45l-63 -309l4 -4q150 209 264.5 316.5t179.5 107.5q32 0 51 -22.5t19 -61.5q0 -26 -8 -72l-56 -264l5 -4q149 201 265 312.5t179 111.5q32 0 52 -22.5t20 -59.5q0 -29 -11 -88l-106 -516q-9 -51 14 -51 q27 0 119 114l39 -20q-98 -125 -156.5 -175.5t-113.5 -50.5q-37 0 -60.5 26.5t-23.5 66.5q0 10 10 73l96 480q4 21 4 36q0 31 -18 31q-17 0 -64 -47q-137 -137 -209 -260.5t-104 -276.5l-21 -94q-5 -20 -15 -27.5t-36 -7.5h-76q-22 0 -31 7t-9 26q0 10 8 47l114 566 q4 22 4 36q0 31 -18 31q-7 0 -24 -10.5t-27 -20.5q-265 -265 -309 -483l-35 -168q-4 -20 -13 -25.5t-34 -5.5h-80q-30 0 -36 13q-3 5 -2 18q0 18 5 49l111 547q5 24 5 39q0 27 -16 27q-28 0 -88 -66z" />
<glyph unicode="n" horiz-adv-x="995" d="M88 580q200 266 301 266q53 0 53 -60q0 -42 -8 -81l-59 -283l4 -4q177 230 285 329t172 99q40 0 63 -30.5t23 -84.5q0 -46 -19 -121l-112 -450q-7 -28 -7 -45q0 -27 17 -27q20 0 68 50t87 106l37 -31q-88 -111 -169 -173.5t-138 -62.5q-38 0 -60 24t-22 65q0 26 14 84 l97 389q24 98 24 135q0 33 -22 33q-36 0 -133 -104.5t-230 -285.5l-69 -340h-170l131 641q10 46 -10 46q-12 0 -43 -31t-68 -82z" />
<glyph unicode="o" horiz-adv-x="849" d="M90 279q0 100 37 192.5t95 159t127.5 116.5t136 74.5t118.5 24.5q89 0 147 -86.5t58 -218.5q0 -83 -26.5 -161.5t-70.5 -139t-98.5 -111t-111.5 -83.5t-109 -51t-92 -18q-92 0 -151.5 85t-59.5 217zM272 309q0 -113 39 -182.5t92 -69.5q46 0 89 43q61 61 98 177t37 235 q0 118 -38.5 186t-84.5 68q-53 0 -96 -43q-60 -60 -98 -185.5t-38 -228.5z" />
<glyph unicode="p" horiz-adv-x="940" d="M-143 -475l10 55q58 0 88.5 5.5t57.5 29t42 65.5t31 119l168 830q4 20 4 33q0 24 -14 24q-26 0 -131 -123l-39 31q93 113 179.5 182.5t135.5 69.5q28 0 44 -20.5t16 -55.5q0 -16 -9 -63l-34 -168l4 -4q95 132 196.5 221.5t155.5 89.5q59 0 101 -86.5t42 -206.5 q0 -136 -66.5 -268.5t-186 -220t-257.5 -87.5q-46 0 -100 11l-49 -234q-13 -70 -13 -90q0 -47 34.5 -65.5t123.5 -18.5l-10 -55h-524zM315 94q66 -55 127 -55q115 0 198 147t83 351q0 79 -16 125.5t-45 46.5q-27 0 -90.5 -62t-188.5 -221z" />
<glyph unicode="q" horiz-adv-x="866" d="M74 203q0 75 34.5 162.5t100.5 172t152 154t201 112t235 42.5q35 0 44 -8q5 -6 5 -18q0 -8 -2 -19l-217 -1067q-9 -44 -9 -74q0 -47 30.5 -62.5t123.5 -17.5l-10 -55h-520l10 55q111 3 147.5 27.5t53.5 107.5l108 525l-4 4q-277 -267 -352 -267q-49 0 -90 70.5t-41 155.5 zM256 225q0 -57 15.5 -89t41.5 -32q55 0 265 226l77 381q-100 -1 -163 -25t-119 -80q-46 -46 -81.5 -171.5t-35.5 -209.5z" />
<glyph unicode="r" horiz-adv-x="626" d="M78 641q181 205 266 205q29 0 45.5 -20t16.5 -54q0 -85 -44 -258l-63 -240h20l87 228q130 344 262 344q32 0 49.5 -21t17.5 -59q0 -46 -23 -78.5t-55 -32.5q-12 0 -35.5 6.5t-33.5 6.5q-80 0 -160 -224l-127 -350q-11 -30 -17 -58.5l-8 -38t-8.5 -15t-23.5 -5.5h-105 q-24 0 -30 13.5t2 48.5l122 602q10 53 -16 53q-23 0 -104 -88z" />
<glyph unicode="s" horiz-adv-x="718" d="M27 92q0 35 24.5 58.5t61.5 23.5q35 0 71.5 -18.5t63 -41t61.5 -41t66 -18.5q37 0 59.5 21.5t22.5 56.5q0 41 -39.5 98t-86.5 106t-86.5 111t-39.5 111q0 40 28.5 90.5t72.5 94t104.5 73t117.5 29.5q72 0 118 -39t46 -100q0 -43 -25 -72t-63 -29q-34 0 -55.5 25t-30.5 55 t-27.5 55t-46.5 25q-34 0 -63 -31.5t-29 -66.5q0 -39 37 -92t81 -99.5t81 -111t37 -123.5q0 -114 -98.5 -189.5t-249.5 -75.5q-103 0 -158 30t-55 85z" />
<glyph unicode="t" horiz-adv-x="534" d="M102 72q0 26 15 102l114 565h-106l10 49q188 66 324 308h53q-56 -128 -94 -273h166l-17 -84h-166l-114 -565q-11 -61 -11 -68q0 -30 23 -30q40 0 184 133l29 -35q-222 -197 -324 -197q-41 0 -63.5 25t-22.5 70z" />
<glyph unicode="u" horiz-adv-x="995" d="M106 621q83 105 155.5 165t115.5 60q28 0 44.5 -21.5t16.5 -56.5q0 -43 -14 -109l-92 -448q-5 -24 -4.5 -40t5 -24t11.5 -8q9 0 32.5 15.5t37.5 29.5q98 98 189.5 223t119.5 197l43 195q6 30 13 38.5t30 8.5h86q31 0 38.5 -9.5t2.5 -37.5l-125 -617q-9 -47 6 -47 q29 0 119 109l33 -33q-206 -234 -287 -234q-27 0 -42 21.5t-15 60.5q0 62 22 172l49 230l-4 4q-121 -187 -278.5 -337.5t-208.5 -150.5q-28 0 -44 27t-16 72q0 49 11 106l92 453q11 49 -10 49q-26 0 -97 -92z" />
<glyph unicode="v" horiz-adv-x="923" d="M106 629q100 115 166.5 166t112.5 51q66 0 66 -80q0 -29 -7 -64l-86 -540q-2 -11 -2 -20q0 -38 27 -38q31 0 89 50.5t112 124.5q63 88 104 189t41 171q0 24 -9 40t-20.5 22.5t-20.5 16.5t-9 23q0 38 43 71.5t94 33.5q53 0 83 -30.5t30 -84.5q0 -93 -79.5 -227 t-228.5 -283q-99 -99 -204.5 -171.5t-149.5 -72.5q-72 0 -72 115q0 47 17 146l63 391q3 23 3 38q0 31 -13 31q-35 0 -121 -102z" />
<glyph unicode="w" horiz-adv-x="1310" d="M78 606q195 240 278 240q64 0 64 -82q0 -36 -8 -80l-80 -500q-6 -32 1 -50.5t21 -18.5q36 0 150 129q30 33 98 120.5t82 112.5l49 320q5 31 14 40t35 9h80q27 0 34.5 -13.5t2.5 -44.5l-94 -604q-3 -19 -3 -33q0 -40 25 -40q29 0 83 51t108 129q63 90 99 181t36 157 q0 28 -9 46t-19.5 24t-19.5 16.5t-9 25.5q0 41 40.5 73t94.5 32q51 0 78.5 -32t27.5 -91q0 -193 -313 -506q-133 -133 -215.5 -186.5t-120.5 -53.5q-67 0 -67 103q0 89 12 151l35 162l-4 4q-29 -49 -84 -119t-118 -137.5t-126 -115.5t-100 -48q-35 0 -54.5 35t-19.5 101 q0 20 10 118l61 383q4 28 4.5 42t-3.5 20t-13 6q-14 0 -46 -29t-66 -71z" />
<glyph unicode="x" horiz-adv-x="1114" d="M86 74q0 58 66 202h47q0 -14 -2 -24q3 -117 75 -117q44 0 98 48t167 186l-109 260q-24 56 -40.5 77t-39.5 21q-28 0 -57 -31t-76 -112l-45 20q132 242 260 242q51 0 85 -35t71 -127l67 -170q132 193 204.5 262.5t141.5 69.5q47 0 77 -30t30 -77q0 -49 -27 -135h-53 q1 5 2 12.5t2 12.5q-1 40 -24 64t-58 24q-32 0 -62 -18t-73 -62q-58 -58 -139 -168l114 -287q15 -39 30 -55t36 -16q23 0 47 29.5t64 107.5l39 -19q-49 -112 -116 -182t-124 -70q-43 0 -74.5 40.5t-75.5 152.5l-59 149q-134 -187 -218.5 -264.5t-150.5 -77.5 q-43 0 -71.5 27.5t-28.5 69.5z" />
<glyph unicode="y" horiz-adv-x="923" d="M8 -475l10 55q105 0 138 33q41 41 119.5 229t78.5 303q0 139 -35 354.5t-81 215.5q-43 0 -121 -127l-39 28q152 230 244 230q53 0 93.5 -74.5t61.5 -193t31 -240t10 -240.5h4q73 134 129.5 258.5t79.5 192t23 86.5q0 13 -13.5 24t-27 29.5t-13.5 48.5q0 46 32 77.5 t81 31.5q46 0 76.5 -30.5t30.5 -76.5q0 -93 -125 -284l-97 -146q-160 -246 -219 -393l-100 -254q-10 -25 -10 -41q0 -18 13 -26q23 -15 114 -15l-11 -55h-477z" />
<glyph unicode="z" horiz-adv-x="983" d="M74 29q0 75 123 192q67 67 178 135q50 31 200 111q121 64 194.5 120.5t121.5 119.5l-4 4q-130 -86 -238 -86q-79 0 -194 59q-73 37 -109 37q-37 0 -65 -19.5t-66 -72.5l-43 26q66 100 132 145.5t145 45.5q40 0 75 -11.5t101 -46.5q118 -63 182 -63q36 0 58.5 17t39.5 57 q11 26 21.5 36.5t27.5 10.5q39 0 39 -39q0 -34 -31.5 -87t-80.5 -102q-69 -70 -147.5 -124t-203.5 -119q-91 -46 -131.5 -70t-97.5 -67q-39 -29 -94 -80l4 -4q97 63 190 63q41 0 84 -13t136 -54q76 -35 114 -35q34 0 62 21t65 73l45 -29q-73 -107 -135 -155t-125 -48 t-194 64l-82 43q-63 35 -121 35q-79 0 -82 -70l-2 -31q0 -19 -12 -30t-31 -11q-21 0 -35 15t-14 37z" />
<glyph unicode="{" horiz-adv-x="806" d="M201 420v45q97 14 156 71.5t59 139.5q0 47 -23.5 159t-23.5 160q0 64 29.5 128t79.5 115.5t124 85t156 36.5v-39q-95 -13 -155 -76t-60 -129q0 -24 24 -160q23 -152 23 -184q0 -104 -84 -197.5t-223 -132.5v-2q139 -37 223 -130t84 -197q0 -51 -23.5 -184.5t-23.5 -159.5 q0 -66 60 -129t155 -76v-39q-82 3 -156 36.5t-124 85t-79.5 115t-29.5 127.5q0 17 2.5 39t5.5 37.5t8.5 43t7.5 40.5q23 109 23 160q0 82 -59 139.5t-156 71.5z" />
<glyph unicode="|" horiz-adv-x="1079" d="M551 -328v1702h137v-1702h-137z" />
<glyph unicode="}" horiz-adv-x="806" d="M158 -436q95 13 155 76t60 129q0 14 -3 37t-10 62t-10 60q-24 136 -24 185q0 104 84 197t223 132v2q-139 37 -223 130.5t-84 197.5q0 51 23.5 184.5t23.5 159.5q0 66 -60 129t-155 76v39q82 -3 156 -36.5t124 -85t79.5 -115.5t29.5 -128q0 -33 -23 -159 q-24 -114 -24 -160q0 -82 59 -139.5t156 -71.5v-45q-97 -14 -156 -71.5t-59 -139.5q0 -47 23.5 -159.5t23.5 -160.5q0 -64 -29.5 -127.5t-79.5 -115t-124 -85t-156 -36.5v39z" />
<glyph unicode="~" horiz-adv-x="1366" d="M270 530q5 125 64.5 203t161.5 78q96 0 272 -80q57 -26 91 -40t78 -27t75 -13q64 0 103.5 41.5t47.5 116.5h51q-5 -129 -67.5 -205t-165.5 -76q-35 0 -85 13.5t-83 26.5t-96 40q-180 78 -244 78q-127 0 -151 -156h-52z" />
<glyph unicode="&#xa0;" />
<glyph unicode="&#xa1;" horiz-adv-x="571" d="M31 -438q0 12 12 55l266 852h56l-103 -866q-6 -52 -21 -65t-69 -13h-66q-45 0 -60 7.5t-15 29.5zM283 696q0 62 37.5 106t89.5 44q43 0 70.5 -31t27.5 -80q0 -60 -39 -104.5t-90 -44.5q-41 0 -68.5 31.5t-27.5 78.5z" />
<glyph unicode="&#xa2;" horiz-adv-x="647" d="M-14 -475l172 465q-121 48 -121 198q0 96 39 210t102 214t154.5 167t185.5 67l180 428h47l-178 -434q92 -28 92 -99q0 -32 -22.5 -54.5t-54.5 -22.5q-30 0 -74 30l-248 -606q27 -27 68 -27q42 0 95 33t130 107l37 -31q-104 -104 -187.5 -149t-187.5 -44l-184 -452h-45z M219 205q0 -25 4 -53h4l242 573q-35 25 -61 25q-29 0 -52 -23q-45 -45 -91 -221t-46 -301z" />
<glyph unicode="&#xa3;" horiz-adv-x="1476" d="M20 -410q0 70 78.5 130.5t204.5 86.5q82 109 156 312h-281l12 65h291q153 410 280 657t253 373q91 91 169 125.5t163 34.5q97 0 158 -39t61 -102q0 -38 -22.5 -63t-57.5 -25q-32 0 -57 16t-40.5 38.5t-31 45.5t-37.5 39t-51 16q-145 0 -299 -389l-88 -223 q-114 -286 -234 -504h332l-12 -65h-357q-86 -150 -202 -299q44 8 92 8q74 0 142.5 -21.5t120 -52.5t99 -62.5t99 -53t100.5 -21.5q64 0 101.5 31t37.5 84q0 36 -25.5 96t-25.5 86q0 38 25 63t63 25q49 0 79 -41.5t30 -110.5q0 -55 -21.5 -110.5t-64 -104.5t-114.5 -79.5 t-163 -30.5t-168 23t-130.5 55.5t-103 65t-108.5 55.5t-123 24q-95 -120 -155.5 -171.5t-106.5 -51.5q-31 0 -49.5 18t-18.5 47z" />
<glyph unicode="&#xa4;" horiz-adv-x="1366" d="M254 274l129 127q-46 68 -66 130t-20 137q0 73 20 135t66 131l-129 127l106 106l129 -129q71 46 133 66t134 20q74 0 134 -20t132 -66l127 129l104 -106l-127 -129q46 -68 66 -129.5t20 -134.5q0 -140 -86 -267l127 -127l-104 -106l-127 127q-69 -46 -131 -66t-135 -20 q-136 0 -267 86l-129 -127zM446 668q0 -128 91 -219t219 -91q126 0 216.5 91.5t90.5 218.5q0 126 -90.5 216.5t-216.5 90.5q-127 0 -218.5 -90.5t-91.5 -216.5z" />
<glyph unicode="&#xa5;" horiz-adv-x="1400" d="M141 406l13 65h462l35 174h-467l13 66h426l-140 311q-52 117 -88 155.5t-98 41.5l12 55h475l-12 -55q-115 -3 -115 -70q0 -28 21 -72l160 -356l295 338q43 49 43 92q0 36 -28.5 52t-92.5 16l12 55h403l-12 -55q-54 -4 -98.5 -31.5t-97.5 -87.5l-347 -389h476l-17 -66 h-516l-35 -174h525l-17 -65h-522l-25 -123q-16 -81 -16 -115q0 -69 40 -92t157 -21l-13 -55h-626l12 55q115 -3 162.5 40t72.5 165l29 146h-461z" />
<glyph unicode="&#xa6;" horiz-adv-x="1079" d="M567 -328v727h138v-727h-138zM567 647v727h138v-727h-138z" />
<glyph unicode="&#xa7;" horiz-adv-x="923" d="M-86 -311q0 32 22.5 55t53.5 23q26 0 54.5 -18.5t51.5 -41t60 -41t77 -18.5q70 0 131.5 59.5t61.5 155.5q0 87 -32 193.5t-70.5 191t-70.5 189.5t-32 190q0 79 31.5 171t89.5 179.5t132.5 160t170 116.5t191.5 44q103 0 178.5 -40t75.5 -95q0 -30 -23 -54t-51 -24 q-26 0 -57.5 18.5t-56.5 41t-61 41t-71 18.5q-82 0 -138.5 -64.5t-56.5 -156.5q0 -70 21 -150t50.5 -154t59.5 -147t51 -152.5t21 -148.5q0 -121 -56 -246.5t-141.5 -219.5t-193 -154t-205.5 -60q-56 0 -115 13.5t-106 46.5t-47 78zM326 662q0 -75 30.5 -172t66.5 -176.5 t66.5 -183t30.5 -191.5v-21v-22t-1 -20t-3 -22.5t-6 -22.5t-10 -26l4 -4q80 51 128 166.5t48 218.5q0 69 -20.5 144.5t-50 144t-58.5 137.5t-49.5 147t-20.5 150q0 61 19 142h-4q-170 -188 -170 -389z" />
<glyph unicode="&#xa8;" d="M279 1128q0 40 28 68.5t68 28.5t68 -28.5t28 -68.5t-28 -68t-68 -28t-68 28t-28 68zM641 1128q0 40 28 68.5t68 28.5t68.5 -28.5t28.5 -68.5t-28.5 -68t-68.5 -28t-68 28t-28 68z" />
<glyph unicode="&#xa9;" horiz-adv-x="1529" d="M135 672q0 144 56 275t151 226t226.5 151t275.5 56t275 -56t226 -151t151 -226t56 -275q0 -143 -56 -273t-151 -225t-226 -151t-275 -56q-192 0 -355.5 95t-258.5 257.5t-95 352.5zM197 672q0 -174 86.5 -322t235.5 -234.5t325 -86.5t325 86.5t235.5 234.5t86.5 322 q0 176 -86.5 325t-235.5 235.5t-325 86.5t-325 -86.5t-235.5 -235.5t-86.5 -325zM383 670q0 197 143 330t355 133q55 0 101.5 -11.5t77 -23t46.5 -11.5q33 0 47 46h39l20 -281h-38q-71 238 -304 238q-148 0 -234.5 -105.5t-86.5 -284.5q0 -213 92 -313t240 -100 q195 0 311 162l39 -19q-139 -203 -385 -203q-196 0 -329.5 127.5t-133.5 315.5z" />
<glyph unicode="&#xaa;" horiz-adv-x="571" d="M190 909q0 50 22.5 105.5t68 109.5t105.5 96.5t143 66.5t173 20l-90 -379q-4 -20 -2 -34.5t8 -14.5q13 0 62 49l22 -33q-122 -113 -178 -113q-49 0 -49 64q0 37 10 78l-4 4q-85 -83 -129.5 -114.5t-75.5 -31.5q-34 0 -60 38.5t-26 88.5zM328 954q0 -75 24 -75q10 0 45 30 l103 88l43 217q-56 -6 -85.5 -17t-54.5 -36q-31 -31 -53 -92t-22 -115z" />
<glyph unicode="&#xab;" horiz-adv-x="868" d="M78 453l414 370h73l-295 -370l129 -377h-75zM481 453l287 331h74l-166 -331l31 -330h-74z" />
<glyph unicode="&#xac;" horiz-adv-x="1366" d="M283 715v137h948v-545h-137v408h-811z" />
<glyph unicode="&#xad;" d="M109 334l32 160h508l-33 -160h-507z" />
<glyph unicode="&#xae;" horiz-adv-x="1529" d="M131 672q0 144 56 275t151 226t226.5 151t275.5 56t275 -56t226 -151t151 -226t56 -275q0 -143 -56 -273t-151 -225t-226 -151t-275 -56q-192 0 -355.5 95t-258.5 257.5t-95 352.5zM193 672q0 -174 86.5 -322t235.5 -234.5t325 -86.5t325 86.5t235.5 234.5t86.5 322 q0 176 -86.5 325t-235.5 235.5t-325 86.5t-325 -86.5t-235.5 -235.5t-86.5 -325zM434 246v33q56 0 80.5 22t24.5 66v622q0 43 -19.5 64.5t-73.5 21.5v37h385q135 0 217 -62t82 -163q0 -166 -223 -221l209 -299q33 -49 58.5 -67t62.5 -21v-33h-184l-295 405h-74v-295 q0 -42 25.5 -59.5t91.5 -17.5v-33h-367zM684 694h39q66 0 119.5 17.5t90 60.5t36.5 105q0 82 -57.5 136t-145.5 54q-33 0 -82 -14v-359z" />
<glyph unicode="&#xaf;" d="M289 1051l33 163h458l-32 -163h-459z" />
<glyph unicode="&#xb0;" horiz-adv-x="819" d="M225 1024q0 117 83 200t200 83t200 -83t83 -200t-83 -200t-200 -83t-200 83t-83 200zM317 1024q0 -78 56.5 -134t134.5 -56t134 56t56 134t-56 134t-134 56t-134.5 -56t-56.5 -134z" />
<glyph unicode="&#xb1;" horiz-adv-x="1366" d="M283 -43v137h948v-137h-948zM283 655v138h405v405h137v-405h406v-138h-406v-405h-137v405h-405z" />
<glyph unicode="&#xb2;" horiz-adv-x="608" d="M178 840v34q233 199 336 314q82 95 82 174q0 33 -24 53.5t-68 20.5q-46 0 -81.5 -21.5t-50 -42t-22.5 -41.5h-57q21 71 65 113q77 74 187 74q82 0 137 -46.5t55 -109.5q0 -54 -63 -133q-87 -92 -344 -287h225q27 0 35 9t22 50h56l-39 -161h-451z" />
<glyph unicode="&#xb3;" horiz-adv-x="608" d="M170 870q0 22 17 39t42 17q14 0 66 -29q36 -18 70 -18q55 0 102 75t47 154q0 40 -22.5 65t-55.5 25q-20 0 -36 -5.5t-58 -25.5l10 50q207 103 207 180q0 26 -15 45.5t-46 19.5q-50 0 -127 -73l-33 24q91 105 207 105q69 0 108 -31.5t39 -75.5q0 -43 -39.5 -74.5 t-124.5 -70.5q127 -20 127 -129q0 -78 -60.5 -153t-146.5 -119t-163 -44q-39 0 -77 11.5t-38 37.5z" />
<glyph unicode="&#xb4;" d="M403 950l179 389h188l-268 -389h-99z" />
<glyph unicode="&#xb5;" horiz-adv-x="1024" d="M-43 -340q0 29 32.5 101t86 201.5t90.5 264.5l170 619h170l-152 -551q-20 -72 -20 -121q0 -40 22.5 -65t57.5 -25q30 0 64 17t57 40q110 110 174 344l98 361h170l-168 -610q-16 -56 -16 -99q0 -28 14 -45.5t37 -17.5q28 0 54.5 31.5t57.5 99.5h35q-27 -101 -90.5 -164.5 t-142.5 -63.5q-75 0 -109 62t-16 162l-4 4q-67 -112 -147.5 -170t-151.5 -58q-53 0 -85.5 21t-58.5 72q-18 -51 -31.5 -126.5t-13.5 -121.5q0 -246 -110 -246q-31 0 -52.5 24.5t-21.5 59.5z" />
<glyph unicode="&#xb6;" horiz-adv-x="1105" d="M184 897q0 177 119.5 277t331.5 100h493v-55h-131v-1694h-73v1694h-187v-1694h-73v993q-243 0 -361.5 101t-118.5 278z" />
<glyph unicode="&#xb7;" horiz-adv-x="591" d="M238 633q0 53 37.5 86t97.5 33q61 0 99 -33t38 -86t-37 -84t-100 -31q-62 0 -98.5 31.5t-36.5 83.5z" />
<glyph unicode="&#xb8;" d="M104 -420l9 41q209 -3 209 105q0 71 -101 77l101 197h43l-41 -76q127 -30 127 -149q0 -94 -79.5 -146.5t-219.5 -52.5q-30 0 -48 4z" />
<glyph unicode="&#xb9;" horiz-adv-x="608" d="M262 840l12 34q26 1 37 1.5t26 3t20 7t12.5 14.5t11 23t8.5 35l98 416q-100 -58 -196 -94l10 51q203 85 283 185h73l-125 -533q-12 -59 -12 -65q0 -24 18.5 -31.5t69.5 -12.5l-10 -34h-336z" />
<glyph unicode="&#xba;" horiz-adv-x="534" d="M197 967q0 71 35 136.5t86.5 108.5t110 69t106.5 26q65 0 105 -52t40 -135q0 -60 -25.5 -115.5t-65 -95t-85.5 -69t-88 -44t-72 -14.5q-65 0 -106 51.5t-41 133.5zM336 987q0 -66 21 -106.5t53 -40.5q49 0 90 82t41 182q0 64 -20.5 104.5t-51.5 40.5q-50 0 -91.5 -82 t-41.5 -180z" />
<glyph unicode="&#xbb;" horiz-adv-x="868" d="M96 115l166 331l-31 330h74l152 -330l-285 -331h-76zM373 76l295 370l-129 377h75l246 -377l-411 -370h-76z" />
<glyph unicode="&#xbc;" horiz-adv-x="1568" d="M158 -82l1175 1389h123l-1165 -1389h-133zM201 627l8 39q63 -2 85 13.5t34 70.5l96 413q-66 -38 -103 -55t-94 -37l11 49q198 80 282 187h74l-131 -557q-11 -50 1.5 -66.5t78.5 -17.5l-8 -39h-334zM901 180v86l416 412h61l-84 -412h119l-18 -86h-119l-41 -196h-125 l41 196h-250zM979 266h190l48 230l-5 4z" />
<glyph unicode="&#xbd;" horiz-adv-x="1568" d="M158 -82l1175 1389h123l-1165 -1389h-133zM201 627l8 39q63 -2 85 13.5t34 70.5l96 413q-66 -38 -103 -55t-94 -37l11 49q198 80 282 187h74l-131 -557q-11 -50 1.5 -66.5t78.5 -17.5l-8 -39h-334zM918 0l8 37l41 37q224 202 298 290t74 162q0 37 -25.5 60.5t-66.5 23.5 q-99 0 -155 -118h-56q26 89 93.5 139.5t158.5 50.5q81 0 137 -46t56 -112t-78.5 -146.5t-329.5 -268.5v-5h225q29 0 40.5 11t15.5 45h51l-33 -160h-454z" />
<glyph unicode="&#xbe;" horiz-adv-x="1568" d="M160 666q0 22 17 37.5t40 15.5q16 0 59.5 -23.5t75.5 -23.5q54 0 102 71.5t48 149.5q0 40 -21.5 65t-56.5 25q-29 0 -96 -29l10 50q109 56 159 99t50 81q0 26 -17.5 42.5t-44.5 16.5q-54 0 -129 -69l-28 26q88 107 204 107q64 0 106 -30.5t42 -76.5q0 -41 -35 -72.5 t-129 -74.5v-4q129 -15 129 -125q0 -72 -56.5 -145.5t-144 -121t-172.5 -47.5q-50 0 -81 15.5t-31 40.5zM178 -82l1176 1389h123l-1166 -1389h-133zM922 180v86l415 412h62l-84 -412h119l-19 -86h-119l-41 -196h-125l41 196h-249zM999 266h191l47 230l-4 4z" />
<glyph unicode="&#xbf;" horiz-adv-x="663" d="M35 -125q0 104 24.5 172t81.5 125q28 28 137.5 87t131.5 81q42 42 65 131h57q-7 -245 -116 -354q-37 -37 -131.5 -83.5t-130.5 -82.5q-41 -41 -41 -98q0 -55 41.5 -90t107.5 -35q53 0 125 18t88 18q35 0 58.5 -29t23.5 -73q0 -57 -62 -97t-176 -40q-129 0 -206.5 96 t-77.5 254zM444 696q0 61 38 105.5t89 44.5q43 0 71 -31t28 -80q0 -60 -39 -104.5t-90 -44.5q-41 0 -69 31.5t-28 78.5z" />
<glyph unicode="&#xc0;" horiz-adv-x="1476" d="M10 0l10 55q79 0 141.5 42t137.5 145l778 1065h178v-1108q0 -89 34.5 -116.5t144.5 -27.5l-11 -55h-596l11 55q69 0 109.5 9.5t63.5 36.5t30.5 65.5t7.5 105.5v248h-463l-166 -227q-88 -119 -88 -158q0 -45 40 -62.5t124 -17.5l-11 -55h-475zM657 616h392v535h-5z M909 1769h189l178 -389h-98z" />
<glyph unicode="&#xc1;" horiz-adv-x="1476" d="M10 0l10 55q79 0 141.5 42t137.5 145l778 1065h178v-1108q0 -89 34.5 -116.5t144.5 -27.5l-11 -55h-596l11 55q69 0 109.5 9.5t63.5 36.5t30.5 65.5t7.5 105.5v248h-463l-166 -227q-88 -119 -88 -158q0 -45 40 -62.5t124 -17.5l-11 -55h-475zM657 616h392v535h-5z M973 1380l178 389h188l-268 -389h-98z" />
<glyph unicode="&#xc2;" horiz-adv-x="1476" d="M10 0l10 55q79 0 141.5 42t137.5 145l778 1065h178v-1108q0 -89 34.5 -116.5t144.5 -27.5l-11 -55h-596l11 55q69 0 109.5 9.5t63.5 36.5t30.5 65.5t7.5 105.5v248h-463l-166 -227q-88 -119 -88 -158q0 -45 40 -62.5t124 -17.5l-11 -55h-475zM657 616h392v535h-5z M821 1380l309 389h193l37 -389h-100l-70 224l-272 -224h-97z" />
<glyph unicode="&#xc3;" horiz-adv-x="1476" d="M10 0l10 55q79 0 141.5 42t137.5 145l778 1065h178v-1108q0 -89 34.5 -116.5t144.5 -27.5l-11 -55h-596l11 55q69 0 109.5 9.5t63.5 36.5t30.5 65.5t7.5 105.5v248h-463l-166 -227q-88 -119 -88 -158q0 -45 40 -62.5t124 -17.5l-11 -55h-475zM657 616h392v535h-5z M791 1434q0 110 50 179.5t146 69.5q56 0 152 -49t143 -49q80 0 92 103h78q0 -125 -52 -187.5t-140 -62.5q-56 0 -152 49t-145 49q-79 0 -91 -102h-81z" />
<glyph unicode="&#xc4;" horiz-adv-x="1476" d="M10 0l10 55q79 0 141.5 42t137.5 145l778 1065h178v-1108q0 -89 34.5 -116.5t144.5 -27.5l-11 -55h-596l11 55q69 0 109.5 9.5t63.5 36.5t30.5 65.5t7.5 105.5v248h-463l-166 -227q-88 -119 -88 -158q0 -45 40 -62.5t124 -17.5l-11 -55h-475zM657 616h392v535h-5z M848 1559q0 40 28 68t68 28t68 -28t28 -68t-28 -68.5t-68 -28.5t-68 28.5t-28 68.5zM1210 1559q0 40 28.5 68t68.5 28t68 -28t28 -68t-28 -68.5t-68 -28.5t-68.5 28.5t-28.5 68.5z" />
<glyph unicode="&#xc5;" horiz-adv-x="1476" d="M10 0l10 55q79 0 141.5 42t137.5 145l778 1065h178v-1108q0 -89 34.5 -116.5t144.5 -27.5l-11 -55h-596l11 55q69 0 109.5 9.5t63.5 36.5t30.5 65.5t7.5 105.5v248h-463l-166 -227q-88 -119 -88 -158q0 -45 40 -62.5t124 -17.5l-11 -55h-475zM657 616h392v535h-5z M977 1561q0 79 56.5 135.5t135.5 56.5q80 0 136.5 -56.5t56.5 -135.5t-57 -136t-136 -57t-135.5 56.5t-56.5 136.5zM1038 1561q0 -54 38.5 -92.5t92.5 -38.5t92.5 38.5t38.5 92.5t-38.5 92.5t-92.5 38.5t-92.5 -38.5t-38.5 -92.5z" />
<glyph unicode="&#xc6;" horiz-adv-x="1900" d="M-74 0l13 55q76 -2 143 46t178 190l662 846q22 33 22 43q0 45 -145 39l12 55h1137l-62 -295h-55q2 131 -43 180t-166 49h-362l-109 -532h317q102 0 158 35.5t80 107.5h57l-77 -385h-58q2 109 -36.5 142.5t-170.5 33.5h-282l-66 -319q-20 -103 -20 -127q0 -42 19.5 -62.5 t68.5 -28t151 -7.5q191 0 303.5 51t188.5 174h61l-94 -291h-1120l12 55q42 0 71 5t52 19t37.5 31t27.5 51t21 67.5t20 90.5l37 183h-401l-164 -211q-74 -97 -85 -120q-9 -18 -9 -32q0 -84 166 -84l-13 -55h-477zM555 567h367l127 619l-5 4z" />
<glyph unicode="&#xc7;" horiz-adv-x="1531" d="M182 545q0 70 16.5 142.5t52.5 147.5t88 143t128.5 128.5t168.5 105t213.5 70t258.5 25.5q268 0 481 -74l-86 -340h-53q4 32 4 51q0 83 -28 143t-79 93.5t-113 49t-138 15.5q-142 0 -269 -56t-218 -152t-144 -230.5t-53 -284.5q0 -232 124.5 -360.5t323.5 -128.5 q158 0 288.5 78.5t246.5 242.5h55l-113 -354h-37q-24 16 -59 16q-7 0 -153.5 -25t-247.5 -24h-23l-22 -43q127 -30 127 -149q0 -94 -79.5 -146.5t-219.5 -52.5q-30 0 -48 4l9 41q209 -3 209 105q0 71 -101 77l84 166q-128 7 -231 45t-169.5 95t-111 131t-63.5 149.5 t-19 155.5z" />
<glyph unicode="&#xc8;" horiz-adv-x="1273" d="M20 0l11 55q32 -1 55.5 0.5t43.5 7.5t33.5 12.5t26 22.5t20 30.5t16 42.5t14 52.5t14.5 67.5l145 715q15 71 15 112q0 56 -43 80t-131 21l10 55h1083l-59 -295h-57q0 5 1 13t1 16q0 200 -183 200h-389l-108 -532h315q98 0 155.5 32t84.5 111h57l-78 -385h-57 q3 99 -31.5 137.5t-126.5 38.5h-334l-65 -319q-19 -90 -19 -125q0 -60 41.5 -80t167.5 -20q208 0 324 47.5t198 177.5h60l-94 -291h-1117zM639 1769h188l179 -389h-99z" />
<glyph unicode="&#xc9;" horiz-adv-x="1273" d="M20 0l11 55q32 -1 55.5 0.5t43.5 7.5t33.5 12.5t26 22.5t20 30.5t16 42.5t14 52.5t14.5 67.5l145 715q15 71 15 112q0 56 -43 80t-131 21l10 55h1083l-59 -295h-57q0 5 1 13t1 16q0 200 -183 200h-389l-108 -532h315q98 0 155.5 32t84.5 111h57l-78 -385h-57 q3 99 -31.5 137.5t-126.5 38.5h-334l-65 -319q-19 -90 -19 -125q0 -60 41.5 -80t167.5 -20q208 0 324 47.5t198 177.5h60l-94 -291h-1117zM715 1380l178 389h188l-268 -389h-98z" />
<glyph unicode="&#xca;" horiz-adv-x="1273" d="M20 0l11 55q32 -1 55.5 0.5t43.5 7.5t33.5 12.5t26 22.5t20 30.5t16 42.5t14 52.5t14.5 67.5l145 715q15 71 15 112q0 56 -43 80t-131 21l10 55h1083l-59 -295h-57q0 5 1 13t1 16q0 200 -183 200h-389l-108 -532h315q98 0 155.5 32t84.5 111h57l-78 -385h-57 q3 99 -31.5 137.5t-126.5 38.5h-334l-65 -319q-19 -90 -19 -125q0 -60 41.5 -80t167.5 -20q208 0 324 47.5t198 177.5h60l-94 -291h-1117zM551 1380l309 389h193l37 -389h-101l-69 224l-273 -224h-96z" />
<glyph unicode="&#xcb;" horiz-adv-x="1273" d="M20 0l11 55q32 -1 55.5 0.5t43.5 7.5t33.5 12.5t26 22.5t20 30.5t16 42.5t14 52.5t14.5 67.5l145 715q15 71 15 112q0 56 -43 80t-131 21l10 55h1083l-59 -295h-57q0 5 1 13t1 16q0 200 -183 200h-389l-108 -532h315q98 0 155.5 32t84.5 111h57l-78 -385h-57 q3 99 -31.5 137.5t-126.5 38.5h-334l-65 -319q-19 -90 -19 -125q0 -60 41.5 -80t167.5 -20q208 0 324 47.5t198 177.5h60l-94 -291h-1117zM590 1559q0 40 28 68t68 28t68 -28t28 -68t-28 -68.5t-68 -28.5t-68 28.5t-28 68.5zM952 1559q0 40 28.5 68t68.5 28t68 -28t28 -68 t-28 -68.5t-68 -28.5t-68.5 28.5t-28.5 68.5z" />
<glyph unicode="&#xcc;" horiz-adv-x="702" d="M35 0l12 55q74 0 108.5 15.5t58 64.5t46.5 162l141 698q17 83 17 119q0 53 -34 77.5t-112 27.5l13 55h555l-13 -55q-59 -1 -95 -11t-60.5 -40t-37.5 -69.5t-28 -113.5l-143 -702q-21 -110 -21 -131q0 -51 37.5 -74.5t136.5 -22.5l-12 -55h-569zM365 1769h188l178 -389 h-98z" />
<glyph unicode="&#xcd;" horiz-adv-x="702" d="M35 0l12 55q74 0 108.5 15.5t58 64.5t46.5 162l141 698q17 83 17 119q0 53 -34 77.5t-112 27.5l13 55h555l-13 -55q-59 -1 -95 -11t-60.5 -40t-37.5 -69.5t-28 -113.5l-143 -702q-21 -110 -21 -131q0 -51 37.5 -74.5t136.5 -22.5l-12 -55h-569zM428 1380l178 389h189 l-269 -389h-98z" />
<glyph unicode="&#xce;" horiz-adv-x="702" d="M35 0l12 55q74 0 108.5 15.5t58 64.5t46.5 162l141 698q17 83 17 119q0 53 -34 77.5t-112 27.5l13 55h555l-13 -55q-59 -1 -95 -11t-60.5 -40t-37.5 -69.5t-28 -113.5l-143 -702q-21 -110 -21 -131q0 -51 37.5 -74.5t136.5 -22.5l-12 -55h-569zM264 1380l309 389h193 l37 -389h-101l-69 224l-273 -224h-96z" />
<glyph unicode="&#xcf;" horiz-adv-x="702" d="M35 0l12 55q74 0 108.5 15.5t58 64.5t46.5 162l141 698q17 83 17 119q0 53 -34 77.5t-112 27.5l13 55h555l-13 -55q-59 -1 -95 -11t-60.5 -40t-37.5 -69.5t-28 -113.5l-143 -702q-21 -110 -21 -131q0 -51 37.5 -74.5t136.5 -22.5l-12 -55h-569zM303 1559q0 40 28 68 t68 28t68.5 -28t28.5 -68t-28.5 -68.5t-68.5 -28.5t-68 28.5t-28 68.5zM666 1559q0 40 28 68t68 28t68 -28t28 -68t-28 -68.5t-68 -28.5t-68 28.5t-28 68.5z" />
<glyph unicode="&#xd0;" horiz-adv-x="1605" d="M31 0l10 55q48 0 75 1.5t52.5 12t37.5 22.5t26 44t21.5 65.5t20.5 96.5l62 307h-195l11 66h200l66 331q18 99 18 127q0 55 -42 74.5t-142 16.5l10 55h651q308 0 489 -155t181 -408q0 -56 -11 -116.5t-39 -131t-70 -135t-110 -125t-153.5 -105t-205.5 -71.5t-261 -27h-702 zM467 178q0 -64 48 -90.5t167 -26.5q143 0 259.5 41t192 107t126.5 154t72.5 177.5t21.5 180.5q0 223 -144 355t-413 132h-129l-109 -538h299l-10 -66h-305l-47 -233q-29 -148 -29 -193z" />
<glyph unicode="&#xd1;" horiz-adv-x="1587" d="M49 0l10 55q56 0 89.5 18.5t61.5 75t50 164.5l170 830q-32 44 -69.5 60t-110.5 16l10 55h315l725 -1030l148 725q18 87 18 121q0 68 -42.5 98.5t-131.5 30.5l11 55h436l-10 -55q-34 0 -62 -10t-48 -24.5t-37 -40t-26.5 -45.5t-19.5 -54t-14 -52.5t-11 -52.5l-190 -940 h-94l-746 1057l-147 -729q-15 -70 -15 -115q0 -42 14.5 -73t34.5 -46.5t47.5 -25t45.5 -11.5t37 -2l-11 -55h-438zM676 1434q0 110 50 179.5t146 69.5q56 0 152 -49t143 -49q81 0 93 103h77q0 -125 -52 -187.5t-140 -62.5q-56 0 -152 49t-145 49q-78 0 -90 -102h-82z" />
<glyph unicode="&#xd2;" horiz-adv-x="1642" d="M182 578q0 107 34.5 212t103.5 198.5t163.5 164.5t225 112.5t278.5 41.5q143 0 263.5 -48.5t201 -131.5t125.5 -193t45 -234q0 -111 -35.5 -218t-105 -199.5t-165 -163.5t-224 -111.5t-273.5 -40.5q-281 0 -459 170.5t-178 440.5zM412 506q0 -212 114 -344.5t297 -132.5 q91 0 170 29t136 77.5t103 113t75.5 133.5t49.5 142t28 135.5t8 116.5q0 85 -23 165t-69 149.5t-126 112t-184 42.5q-101 0 -188 -34.5t-148.5 -93t-109.5 -132.5t-76.5 -158t-42.5 -165t-14 -156zM836 1769h188l178 -389h-98z" />
<glyph unicode="&#xd3;" horiz-adv-x="1642" d="M182 578q0 107 34.5 212t103.5 198.5t163.5 164.5t225 112.5t278.5 41.5q143 0 263.5 -48.5t201 -131.5t125.5 -193t45 -234q0 -111 -35.5 -218t-105 -199.5t-165 -163.5t-224 -111.5t-273.5 -40.5q-281 0 -459 170.5t-178 440.5zM412 506q0 -212 114 -344.5t297 -132.5 q91 0 170 29t136 77.5t103 113t75.5 133.5t49.5 142t28 135.5t8 116.5q0 85 -23 165t-69 149.5t-126 112t-184 42.5q-101 0 -188 -34.5t-148.5 -93t-109.5 -132.5t-76.5 -158t-42.5 -165t-14 -156zM899 1380l178 389h189l-269 -389h-98z" />
<glyph unicode="&#xd4;" horiz-adv-x="1642" d="M182 578q0 107 34.5 212t103.5 198.5t163.5 164.5t225 112.5t278.5 41.5q143 0 263.5 -48.5t201 -131.5t125.5 -193t45 -234q0 -111 -35.5 -218t-105 -199.5t-165 -163.5t-224 -111.5t-273.5 -40.5q-281 0 -459 170.5t-178 440.5zM412 506q0 -212 114 -344.5t297 -132.5 q91 0 170 29t136 77.5t103 113t75.5 133.5t49.5 142t28 135.5t8 116.5q0 85 -23 165t-69 149.5t-126 112t-184 42.5q-101 0 -188 -34.5t-148.5 -93t-109.5 -132.5t-76.5 -158t-42.5 -165t-14 -156zM735 1380l309 389h193l37 -389h-100l-70 224l-273 -224h-96z" />
<glyph unicode="&#xd5;" horiz-adv-x="1642" d="M182 578q0 107 34.5 212t103.5 198.5t163.5 164.5t225 112.5t278.5 41.5q143 0 263.5 -48.5t201 -131.5t125.5 -193t45 -234q0 -111 -35.5 -218t-105 -199.5t-165 -163.5t-224 -111.5t-273.5 -40.5q-281 0 -459 170.5t-178 440.5zM412 506q0 -212 114 -344.5t297 -132.5 q91 0 170 29t136 77.5t103 113t75.5 133.5t49.5 142t28 135.5t8 116.5q0 85 -23 165t-69 149.5t-126 112t-184 42.5q-101 0 -188 -34.5t-148.5 -93t-109.5 -132.5t-76.5 -158t-42.5 -165t-14 -156zM705 1434q0 110 50 179.5t146 69.5q56 0 152 -49t143 -49q80 0 92 103h78 q0 -125 -52 -187.5t-140 -62.5q-56 0 -152 49t-145 49q-79 0 -91 -102h-81z" />
<glyph unicode="&#xd6;" horiz-adv-x="1642" d="M182 578q0 107 34.5 212t103.5 198.5t163.5 164.5t225 112.5t278.5 41.5q143 0 263.5 -48.5t201 -131.5t125.5 -193t45 -234q0 -111 -35.5 -218t-105 -199.5t-165 -163.5t-224 -111.5t-273.5 -40.5q-281 0 -459 170.5t-178 440.5zM412 506q0 -212 114 -344.5t297 -132.5 q91 0 170 29t136 77.5t103 113t75.5 133.5t49.5 142t28 135.5t8 116.5q0 85 -23 165t-69 149.5t-126 112t-184 42.5q-101 0 -188 -34.5t-148.5 -93t-109.5 -132.5t-76.5 -158t-42.5 -165t-14 -156zM774 1559q0 40 28 68t68 28t68.5 -28t28.5 -68t-28.5 -68.5t-68.5 -28.5 t-68 28.5t-28 68.5zM1137 1559q0 40 28 68t68 28t68 -28t28 -68t-28 -68.5t-68 -28.5t-68 28.5t-28 68.5z" />
<glyph unicode="&#xd7;" horiz-adv-x="1368" d="M330 231l342 342l-340 340l96 97l340 -340l340 340l96 -97l-340 -340l342 -342l-96 -96l-340 340l-342 -342z" />
<glyph unicode="&#xd8;" horiz-adv-x="1642" d="M162 -10l178 166q-158 189 -158 422q0 107 34.5 212t103.5 198.5t163.5 164.5t225 112.5t278.5 41.5q123 0 236.5 -39.5t191.5 -108.5l187 174l45 -49l-183 -170q158 -178 158 -414q0 -111 -35.5 -218t-105 -199.5t-165 -163.5t-224 -111.5t-273.5 -40.5 q-130 0 -244.5 41t-185.5 103l-182 -170zM412 506q0 -66 13.5 -133t35.5 -105l856 799q-46 80 -132 129t-194 49q-101 0 -188 -34.5t-148.5 -93t-109.5 -132.5t-76.5 -158t-42.5 -165t-14 -156zM492 207q120 -178 331 -178q91 0 170 29t136 77.5t103 113t75.5 133.5 t49.5 142t28 135.5t8 116.5q0 48 -12 115t-33 115z" />
<glyph unicode="&#xd9;" horiz-adv-x="1531" d="M229 1219l11 55h561l-10 -55q-39 0 -64 -2.5t-47 -12t-35 -22.5t-25 -38.5t-20 -55.5t-18 -78l-88 -435q-33 -156 -33 -231q0 -132 101 -211.5t267 -79.5q206 0 326.5 103t151.5 278l82 475q20 122 20 168q0 77 -38.5 108t-137.5 34l10 55h438l-10 -55q-93 -1 -135 -63.5 t-72 -229.5l-86 -488q-82 -471 -598 -471q-249 0 -386.5 101.5t-137.5 287.5q0 60 25 191l92 448q16 84 16 117q0 58 -38 83.5t-122 23.5zM768 1769h188l179 -389h-99z" />
<glyph unicode="&#xda;" horiz-adv-x="1531" d="M229 1219l11 55h561l-10 -55q-39 0 -64 -2.5t-47 -12t-35 -22.5t-25 -38.5t-20 -55.5t-18 -78l-88 -435q-33 -156 -33 -231q0 -132 101 -211.5t267 -79.5q206 0 326.5 103t151.5 278l82 475q20 122 20 168q0 77 -38.5 108t-137.5 34l10 55h438l-10 -55q-93 -1 -135 -63.5 t-72 -229.5l-86 -488q-82 -471 -598 -471q-249 0 -386.5 101.5t-137.5 287.5q0 60 25 191l92 448q16 84 16 117q0 58 -38 83.5t-122 23.5zM844 1380l178 389h188l-268 -389h-98z" />
<glyph unicode="&#xdb;" horiz-adv-x="1531" d="M229 1219l11 55h561l-10 -55q-39 0 -64 -2.5t-47 -12t-35 -22.5t-25 -38.5t-20 -55.5t-18 -78l-88 -435q-33 -156 -33 -231q0 -132 101 -211.5t267 -79.5q206 0 326.5 103t151.5 278l82 475q20 122 20 168q0 77 -38.5 108t-137.5 34l10 55h438l-10 -55q-93 -1 -135 -63.5 t-72 -229.5l-86 -488q-82 -471 -598 -471q-249 0 -386.5 101.5t-137.5 287.5q0 60 25 191l92 448q16 84 16 117q0 58 -38 83.5t-122 23.5zM680 1380l309 389h193l37 -389h-101l-69 224l-273 -224h-96z" />
<glyph unicode="&#xdc;" horiz-adv-x="1531" d="M229 1219l11 55h561l-10 -55q-39 0 -64 -2.5t-47 -12t-35 -22.5t-25 -38.5t-20 -55.5t-18 -78l-88 -435q-33 -156 -33 -231q0 -132 101 -211.5t267 -79.5q206 0 326.5 103t151.5 278l82 475q20 122 20 168q0 77 -38.5 108t-137.5 34l10 55h438l-10 -55q-93 -1 -135 -63.5 t-72 -229.5l-86 -488q-82 -471 -598 -471q-249 0 -386.5 101.5t-137.5 287.5q0 60 25 191l92 448q16 84 16 117q0 58 -38 83.5t-122 23.5zM719 1559q0 40 28 68t68 28t68 -28t28 -68t-28 -68.5t-68 -28.5t-68 28.5t-28 68.5zM1081 1559q0 40 28.5 68t68.5 28t68 -28t28 -68 t-28 -68.5t-68 -28.5t-68.5 28.5t-28.5 68.5z" />
<glyph unicode="&#xdd;" horiz-adv-x="1400" d="M221 1219l12 55h476l-13 -55q-114 -3 -114 -70q0 -30 20 -72l211 -479l401 461q43 49 43 92q0 36 -28.5 52t-91.5 16l12 55h403l-12 -55q-54 -5 -99.5 -32t-97.5 -87l-509 -576l-50 -241q-16 -81 -16 -115q0 -69 40 -92t157 -21l-13 -55h-626l12 55q115 -3 162.5 40 t72.5 165l54 264l-219 498q-51 116 -87.5 155t-99.5 42zM778 1380l178 389h189l-268 -389h-99z" />
<glyph unicode="&#xde;" horiz-adv-x="1218" d="M25 0l10 55q89 3 139 45q28 23 43.5 58.5t30.5 109.5l149 744q17 81 17 106q0 96 -150 99l12 57h549l-12 -57q-71 0 -125.5 -36t-66.5 -96l-13 -59h92q181 -1 263.5 -24t140.5 -76q111 -100 108 -252q-3 -117 -64 -211.5t-169 -155.5q-49 -27 -126 -43.5t-122 -20 t-78 -3.5q-107 0 -202 28l-13 -65q-13 -74 32.5 -111t145.5 -37l-10 -55h-581zM465 326q77 -25 158 -25q152 0 252 115t100 289q0 144 -84 210q-33 27 -78 36.5t-123 9.5h-94z" />
<glyph unicode="&#xdf;" horiz-adv-x="960" d="M-387 -371q0 35 24.5 57.5t61.5 22.5q28 0 55.5 -16.5t47 -36.5t47 -36.5t55.5 -16.5q36 0 66.5 20t60.5 68t56 138.5t46 221.5l107 682q57 353 204 500q56 56 140.5 98.5t183.5 42.5q118 0 183 -69t65 -170q0 -117 -84.5 -202.5t-237.5 -125.5v-4q116 -43 171 -116 t55 -183q0 -131 -60.5 -254t-159 -198t-202.5 -75q-55 0 -88 23t-33 61q0 32 21 52.5t53 19.5q26 -1 48 -16t34 -31.5t28 -30.5t31 -14q38 0 71.5 55t53.5 148t20 200q0 127 -40 202.5t-132 125.5l10 45q271 66 271 336q0 87 -35.5 131.5t-95.5 44.5q-74 0 -133 -59 q-65 -65 -97 -167.5t-69 -340.5l-68 -430q-28 -181 -57 -299q-63 -249 -185 -371q-137 -137 -333 -137q-75 0 -117.5 27.5t-42.5 76.5z" />
<glyph unicode="&#xe0;" horiz-adv-x="905" d="M115 182q0 127 70.5 257.5t162.5 211.5q124 110 247 150t277 45l-129 -629q-8 -47 -8 -65q0 -37 23 -37q15 0 36 15.5t66 59.5l23 -32q-181 -181 -265 -181q-61 0 -61 97q0 26 8.5 87t16.5 89l-4 4q-259 -277 -342 -277q-47 0 -84 62.5t-37 142.5zM297 236 q0 -56 11.5 -88.5t31.5 -32.5q28 0 89.5 53.5t168.5 165.5l76 375q-157 0 -250 -93q-60 -60 -93.5 -167.5t-33.5 -212.5zM440 1339h189l178 -389h-98z" />
<glyph unicode="&#xe1;" horiz-adv-x="905" d="M115 182q0 127 70.5 257.5t162.5 211.5q124 110 247 150t277 45l-129 -629q-8 -47 -8 -65q0 -37 23 -37q15 0 36 15.5t66 59.5l23 -32q-181 -181 -265 -181q-61 0 -61 97q0 26 8.5 87t16.5 89l-4 4q-259 -277 -342 -277q-47 0 -84 62.5t-37 142.5zM297 236 q0 -56 11.5 -88.5t31.5 -32.5q28 0 89.5 53.5t168.5 165.5l76 375q-157 0 -250 -93q-60 -60 -93.5 -167.5t-33.5 -212.5zM516 950l178 389h189l-269 -389h-98z" />
<glyph unicode="&#xe2;" horiz-adv-x="905" d="M115 182q0 127 70.5 257.5t162.5 211.5q124 110 247 150t277 45l-129 -629q-8 -47 -8 -65q0 -37 23 -37q15 0 36 15.5t66 59.5l23 -32q-181 -181 -265 -181q-61 0 -61 97q0 26 8.5 87t16.5 89l-4 4q-259 -277 -342 -277q-47 0 -84 62.5t-37 142.5zM297 236 q0 -56 11.5 -88.5t31.5 -32.5q28 0 89.5 53.5t168.5 165.5l76 375q-157 0 -250 -93q-60 -60 -93.5 -167.5t-33.5 -212.5zM352 950l310 389h192l37 -389h-100l-70 224l-272 -224h-97z" />
<glyph unicode="&#xe3;" horiz-adv-x="905" d="M115 182q0 127 70.5 257.5t162.5 211.5q124 110 247 150t277 45l-129 -629q-8 -47 -8 -65q0 -37 23 -37q15 0 36 15.5t66 59.5l23 -32q-181 -181 -265 -181q-61 0 -61 97q0 26 8.5 87t16.5 89l-4 4q-259 -277 -342 -277q-47 0 -84 62.5t-37 142.5zM297 236 q0 -56 11.5 -88.5t31.5 -32.5q28 0 89.5 53.5t168.5 165.5l76 375q-157 0 -250 -93q-60 -60 -93.5 -167.5t-33.5 -212.5zM322 1004q0 110 50 179.5t146 69.5q56 0 152 -49t143 -49q80 0 92 102h78q0 -125 -52 -187t-140 -62q-56 0 -152 49t-145 49q-79 0 -91 -102h-81z" />
<glyph unicode="&#xe4;" horiz-adv-x="905" d="M115 182q0 127 70.5 257.5t162.5 211.5q124 110 247 150t277 45l-129 -629q-8 -47 -8 -65q0 -37 23 -37q15 0 36 15.5t66 59.5l23 -32q-181 -181 -265 -181q-61 0 -61 97q0 26 8.5 87t16.5 89l-4 4q-259 -277 -342 -277q-47 0 -84 62.5t-37 142.5zM297 236 q0 -56 11.5 -88.5t31.5 -32.5q28 0 89.5 53.5t168.5 165.5l76 375q-157 0 -250 -93q-60 -60 -93.5 -167.5t-33.5 -212.5zM391 1128q0 40 28 68.5t68 28.5t68.5 -28.5t28.5 -68.5t-28.5 -68t-68.5 -28t-68 28t-28 68zM754 1128q0 40 28 68.5t68 28.5t68 -28.5t28 -68.5 t-28 -68t-68 -28t-68 28t-28 68z" />
<glyph unicode="&#xe5;" horiz-adv-x="905" d="M115 182q0 127 70.5 257.5t162.5 211.5q124 110 247 150t277 45l-129 -629q-8 -47 -8 -65q0 -37 23 -37q15 0 36 15.5t66 59.5l23 -32q-181 -181 -265 -181q-61 0 -61 97q0 26 8.5 87t16.5 89l-4 4q-259 -277 -342 -277q-47 0 -84 62.5t-37 142.5zM297 236 q0 -56 11.5 -88.5t31.5 -32.5q28 0 89.5 53.5t168.5 165.5l76 375q-157 0 -250 -93q-60 -60 -93.5 -167.5t-33.5 -212.5zM520 1130q0 80 57 136.5t136 56.5t135.5 -56.5t56.5 -136.5t-56.5 -136t-135.5 -56q-80 0 -136.5 56.5t-56.5 135.5zM582 1130q0 -54 38.5 -92.5 t92.5 -38.5t92.5 38.5t38.5 92.5t-38.5 93t-92.5 39t-92.5 -39t-38.5 -93z" />
<glyph unicode="&#xe6;" horiz-adv-x="1234" d="M88 190q0 98 52 214t147 212q225 230 573 230l-16 -86q122 86 248 86q85 0 135.5 -36.5t50.5 -98.5q0 -108 -132 -195.5t-380 -132.5q-14 -80 -14 -123q0 -103 44 -151t105 -48q56 0 114.5 25.5t137.5 75.5l25 -39q-206 -146 -355 -146q-99 0 -169 65.5t-70 197.5 q-164 -155 -238 -209t-125 -54q-57 0 -95 61t-38 152zM270 246q0 -127 62 -127q68 0 254 186l80 402q-96 0 -152.5 -19.5t-101.5 -64.5q-71 -71 -106.5 -178.5t-35.5 -198.5zM774 426q167 38 252.5 101.5t85.5 174.5q0 42 -21 66.5t-57 24.5q-67 0 -143 -97t-117 -270z" />
<glyph unicode="&#xe7;" horiz-adv-x="647" d="M-8 -420l8 41q209 -3 209 105q0 71 -100 77l90 177q-75 11 -118.5 66.5t-43.5 141.5q0 98 39 212.5t103 214t156 165.5t187 66q57 0 97 -31t40 -74q0 -32 -22.5 -54.5t-54.5 -22.5q-35 0 -89 43t-85 43q-27 0 -46 -19q-62 -62 -102.5 -237t-40.5 -281q0 -69 30 -110.5 t79 -41.5q43 0 95 32.5t130 107.5l37 -31q-187 -190 -350 -193l-29 -53q127 -30 127 -149q0 -94 -79.5 -146.5t-219.5 -52.5q-29 0 -47 4z" />
<glyph unicode="&#xe8;" horiz-adv-x="737" d="M98 248q0 150 71 289t188 224t243 85q82 0 130 -35.5t48 -95.5q0 -106 -123.5 -188t-355.5 -150q-18 -53 -18 -119q0 -89 43 -143t114 -54q87 0 234 105l24 -37q-85 -71 -182 -111.5t-180 -40.5q-107 0 -171.5 74t-64.5 197zM309 426q154 50 227.5 117t73.5 159 q0 42 -15.5 66.5t-43.5 24.5q-69 0 -130.5 -94t-111.5 -273zM356 1339h189l178 -389h-98z" />
<glyph unicode="&#xe9;" horiz-adv-x="737" d="M98 248q0 150 71 289t188 224t243 85q82 0 130 -35.5t48 -95.5q0 -106 -123.5 -188t-355.5 -150q-18 -53 -18 -119q0 -89 43 -143t114 -54q87 0 234 105l24 -37q-85 -71 -182 -111.5t-180 -40.5q-107 0 -171.5 74t-64.5 197zM309 426q154 50 227.5 117t73.5 159 q0 42 -15.5 66.5t-43.5 24.5q-69 0 -130.5 -94t-111.5 -273zM432 950l178 389h189l-269 -389h-98z" />
<glyph unicode="&#xea;" horiz-adv-x="737" d="M98 248q0 150 71 289t188 224t243 85q82 0 130 -35.5t48 -95.5q0 -106 -123.5 -188t-355.5 -150q-18 -53 -18 -119q0 -89 43 -143t114 -54q87 0 234 105l24 -37q-85 -71 -182 -111.5t-180 -40.5q-107 0 -171.5 74t-64.5 197zM268 950l310 389h192l37 -389h-100l-70 224 l-272 -224h-97zM309 426q154 50 227.5 117t73.5 159q0 42 -15.5 66.5t-43.5 24.5q-69 0 -130.5 -94t-111.5 -273z" />
<glyph unicode="&#xeb;" horiz-adv-x="737" d="M98 248q0 150 71 289t188 224t243 85q82 0 130 -35.5t48 -95.5q0 -106 -123.5 -188t-355.5 -150q-18 -53 -18 -119q0 -89 43 -143t114 -54q87 0 234 105l24 -37q-85 -71 -182 -111.5t-180 -40.5q-107 0 -171.5 74t-64.5 197zM307 1128q0 40 28 68.5t68 28.5t68.5 -28.5 t28.5 -68.5t-28.5 -68t-68.5 -28t-68 28t-28 68zM309 426q154 50 227.5 117t73.5 159q0 42 -15.5 66.5t-43.5 24.5q-69 0 -130.5 -94t-111.5 -273zM670 1128q0 40 28 68.5t68 28.5t68 -28.5t28 -68.5t-28 -68t-68 -28t-68 28t-28 68z" />
<glyph unicode="&#xec;" horiz-adv-x="516" d="M92 633q132 121 193.5 167t99.5 46q57 0 57 -62q0 -30 -8 -71l-110 -543l-7 -35q0 -10 5.5 -17t13.5 -7q9 0 22.5 8.5t34 27.5t34.5 33t42 43l33 -37q-102 -106 -171.5 -157.5t-119.5 -51.5q-35 0 -54.5 21t-19.5 61q0 39 10 84l101 490q9 51 -10 51q-24 0 -113 -92z M246 1339h188l178 -389h-98z" />
<glyph unicode="&#xed;" horiz-adv-x="516" d="M92 633q132 121 193.5 167t99.5 46q57 0 57 -62q0 -30 -8 -71l-110 -543l-7 -35q0 -10 5.5 -17t13.5 -7q9 0 22.5 8.5t34 27.5t34.5 33t42 43l33 -37q-102 -106 -171.5 -157.5t-119.5 -51.5q-35 0 -54.5 21t-19.5 61q0 39 10 84l101 490q9 51 -10 51q-24 0 -113 -92z M322 950l178 389h188l-268 -389h-98z" />
<glyph unicode="&#xee;" horiz-adv-x="516" d="M92 633q132 121 193.5 167t99.5 46q57 0 57 -62q0 -30 -8 -71l-110 -543l-7 -35q0 -10 5.5 -17t13.5 -7q9 0 22.5 8.5t34 27.5t34.5 33t42 43l33 -37q-102 -106 -171.5 -157.5t-119.5 -51.5q-35 0 -54.5 21t-19.5 61q0 39 10 84l101 490q9 51 -10 51q-24 0 -113 -92z M158 950l309 389h192l37 -389h-100l-70 224l-272 -224h-96z" />
<glyph unicode="&#xef;" horiz-adv-x="516" d="M92 633q132 121 193.5 167t99.5 46q57 0 57 -62q0 -30 -8 -71l-110 -543l-7 -35q0 -10 5.5 -17t13.5 -7q9 0 22.5 8.5t34 27.5t34.5 33t42 43l33 -37q-102 -106 -171.5 -157.5t-119.5 -51.5q-35 0 -54.5 21t-19.5 61q0 39 10 84l101 490q9 51 -10 51q-24 0 -113 -92z M197 1128q0 40 28 68.5t68 28.5t68 -28.5t28 -68.5t-28 -68t-68 -28t-68 28t-28 68zM559 1128q0 40 28 68.5t68 28.5t68.5 -28.5t28.5 -68.5t-28.5 -68t-68.5 -28t-68 28t-28 68z" />
<glyph unicode="&#xf0;" horiz-adv-x="854" d="M74 285q0 104 39.5 199t99.5 161t130 115.5t132.5 73.5t106.5 24q37 0 61 -18q-5 123 -45 225l-250 -84l-22 66l243 81q-58 111 -145 162l35 49q152 -56 243 -168l250 84l23 -65l-230 -76q105 -162 105 -401q0 -154 -44.5 -301t-131.5 -234q-74 -74 -184 -137.5 t-193 -63.5q-97 0 -160 87t-63 221zM270 309q0 -106 35.5 -177t89.5 -71q53 0 105 52q49 49 90 167.5t41 243.5q0 100 -41 172t-98 72q-55 0 -107 -64.5t-83.5 -171.5t-31.5 -223z" />
<glyph unicode="&#xf1;" horiz-adv-x="995" d="M88 580q200 266 301 266q53 0 53 -60q0 -42 -8 -81l-59 -283l4 -4q177 230 285 329t172 99q40 0 63 -30.5t23 -84.5q0 -46 -19 -121l-112 -450q-18 -72 10 -72q20 0 68 50t87 106l37 -31q-88 -111 -169 -173.5t-138 -62.5q-38 0 -60 24t-22 65q0 26 14 84l97 389 q24 98 24 135q0 33 -22 33q-36 0 -133 -104.5t-230 -285.5l-69 -340h-170l131 641q10 46 -10 46q-12 0 -43 -31t-68 -82zM367 1004q0 110 50 179.5t146 69.5q56 0 152 -49t143 -49q80 0 92 102h78q0 -125 -52 -187t-140 -62q-56 0 -152 49t-145 49q-78 0 -90 -102h-82z" />
<glyph unicode="&#xf2;" horiz-adv-x="849" d="M90 279q0 100 37 192.5t95 159t127.5 116.5t136 74.5t118.5 24.5q89 0 147 -86.5t58 -218.5q0 -83 -26.5 -161.5t-70.5 -139t-98.5 -111t-111.5 -83.5t-109 -51t-92 -18q-92 0 -151.5 85t-59.5 217zM272 309q0 -113 39 -182.5t92 -69.5q46 0 89 43q61 61 98 177t37 235 q0 118 -38.5 186t-84.5 68q-53 0 -96 -43q-60 -60 -98 -185.5t-38 -228.5zM412 1339h188l178 -389h-98z" />
<glyph unicode="&#xf3;" horiz-adv-x="849" d="M90 279q0 100 37 192.5t95 159t127.5 116.5t136 74.5t118.5 24.5q89 0 147 -86.5t58 -218.5q0 -83 -26.5 -161.5t-70.5 -139t-98.5 -111t-111.5 -83.5t-109 -51t-92 -18q-92 0 -151.5 85t-59.5 217zM272 309q0 -113 39 -182.5t92 -69.5q46 0 89 43q61 61 98 177t37 235 q0 118 -38.5 186t-84.5 68q-53 0 -96 -43q-60 -60 -98 -185.5t-38 -228.5zM487 950l179 389h188l-268 -389h-99z" />
<glyph unicode="&#xf4;" horiz-adv-x="849" d="M90 279q0 100 37 192.5t95 159t127.5 116.5t136 74.5t118.5 24.5q89 0 147 -86.5t58 -218.5q0 -83 -26.5 -161.5t-70.5 -139t-98.5 -111t-111.5 -83.5t-109 -51t-92 -18q-92 0 -151.5 85t-59.5 217zM272 309q0 -113 39 -182.5t92 -69.5q46 0 89 43q61 61 98 177t37 235 q0 118 -38.5 186t-84.5 68q-53 0 -96 -43q-60 -60 -98 -185.5t-38 -228.5zM324 950l309 389h192l37 -389h-100l-70 224l-272 -224h-96z" />
<glyph unicode="&#xf5;" horiz-adv-x="849" d="M90 279q0 100 37 192.5t95 159t127.5 116.5t136 74.5t118.5 24.5q89 0 147 -86.5t58 -218.5q0 -83 -26.5 -161.5t-70.5 -139t-98.5 -111t-111.5 -83.5t-109 -51t-92 -18q-92 0 -151.5 85t-59.5 217zM272 309q0 -113 39 -182.5t92 -69.5q46 0 89 43q61 61 98 177t37 235 q0 118 -38.5 186t-84.5 68q-53 0 -96 -43q-60 -60 -98 -185.5t-38 -228.5zM293 1004q0 110 50 179.5t146 69.5q56 0 152 -49t143 -49q81 0 93 102h77q0 -125 -52 -187t-140 -62q-56 0 -152 49t-145 49q-78 0 -90 -102h-82z" />
<glyph unicode="&#xf6;" horiz-adv-x="849" d="M90 279q0 100 37 192.5t95 159t127.5 116.5t136 74.5t118.5 24.5q89 0 147 -86.5t58 -218.5q0 -83 -26.5 -161.5t-70.5 -139t-98.5 -111t-111.5 -83.5t-109 -51t-92 -18q-92 0 -151.5 85t-59.5 217zM272 309q0 -113 39 -182.5t92 -69.5q46 0 89 43q61 61 98 177t37 235 q0 118 -38.5 186t-84.5 68q-53 0 -96 -43q-60 -60 -98 -185.5t-38 -228.5zM362 1128q0 40 28.5 68.5t68.5 28.5t68 -28.5t28 -68.5t-28 -68t-68 -28t-68.5 28t-28.5 68zM725 1128q0 40 28 68.5t68 28.5t68.5 -28.5t28.5 -68.5t-28.5 -68t-68.5 -28t-68 28t-28 68z" />
<glyph unicode="&#xf7;" horiz-adv-x="1368" d="M285 508v137h948v-137h-948zM674 223q0 35 25.5 59.5t60.5 24.5t59.5 -24.5t24.5 -59.5t-24.5 -60.5t-59.5 -25.5t-60.5 25.5t-25.5 60.5zM674 932q0 35 25.5 59.5t60.5 24.5t59.5 -24.5t24.5 -59.5t-24.5 -60.5t-59.5 -25.5t-60.5 25.5t-25.5 60.5z" />
<glyph unicode="&#xf8;" horiz-adv-x="849" d="M27 -61l114 137q-20 23 -35.5 84t-15.5 119q0 100 37 192.5t95 159t127.5 116.5t136 74.5t118.5 24.5q68 0 127 -62l111 131l37 -28l-119 -144q49 -71 49 -202q0 -83 -26.5 -161.5t-70.5 -139t-98.5 -111t-111.5 -83.5t-109 -51t-92 -18q-37 0 -75.5 17.5t-55.5 42.5 l-109 -129zM274 309q0 -39 5 -69l331 399q-19 60 -47 93.5t-59 33.5q-53 0 -96 -43q-60 -60 -97 -185t-37 -229zM289 180q35 -123 114 -123q46 0 89 43q64 64 99.5 175t35.5 237q0 6 -3 33.5t-3 32.5h-5z" />
<glyph unicode="&#xf9;" horiz-adv-x="995" d="M106 621q83 105 155.5 165t115.5 60q28 0 44.5 -21.5t16.5 -56.5q0 -43 -14 -109l-92 -448q-5 -24 -4.5 -40t5 -24t11.5 -8q9 0 32.5 15.5t37.5 29.5q98 98 189.5 223t119.5 197l43 195q6 30 13 38.5t30 8.5h86q31 0 38.5 -9.5t2.5 -37.5l-125 -617q-9 -47 6 -47 q29 0 119 109l33 -33q-206 -234 -287 -234q-27 0 -42 21.5t-15 60.5q0 62 22 172l49 230l-4 4q-121 -187 -278.5 -337.5t-208.5 -150.5q-28 0 -44 27t-16 72q0 49 11 106l92 453q11 49 -10 49q-26 0 -97 -92zM485 1339h189l178 -389h-98z" />
<glyph unicode="&#xfa;" horiz-adv-x="995" d="M106 621q83 105 155.5 165t115.5 60q28 0 44.5 -21.5t16.5 -56.5q0 -43 -14 -109l-92 -448q-5 -24 -4.5 -40t5 -24t11.5 -8q9 0 32.5 15.5t37.5 29.5q98 98 189.5 223t119.5 197l43 195q6 30 13 38.5t30 8.5h86q31 0 38.5 -9.5t2.5 -37.5l-125 -617q-9 -47 6 -47 q29 0 119 109l33 -33q-206 -234 -287 -234q-27 0 -42 21.5t-15 60.5q0 62 22 172l49 230l-4 4q-121 -187 -278.5 -337.5t-208.5 -150.5q-28 0 -44 27t-16 72q0 49 11 106l92 453q11 49 -10 49q-26 0 -97 -92zM561 950l178 389h189l-269 -389h-98z" />
<glyph unicode="&#xfb;" horiz-adv-x="995" d="M106 621q83 105 155.5 165t115.5 60q28 0 44.5 -21.5t16.5 -56.5q0 -43 -14 -109l-92 -448q-5 -24 -4.5 -40t5 -24t11.5 -8q9 0 32.5 15.5t37.5 29.5q98 98 189.5 223t119.5 197l43 195q6 30 13 38.5t30 8.5h86q31 0 38.5 -9.5t2.5 -37.5l-125 -617q-9 -47 6 -47 q29 0 119 109l33 -33q-206 -234 -287 -234q-27 0 -42 21.5t-15 60.5q0 62 22 172l49 230l-4 4q-121 -187 -278.5 -337.5t-208.5 -150.5q-28 0 -44 27t-16 72q0 49 11 106l92 453q11 49 -10 49q-26 0 -97 -92zM397 950l310 389h192l37 -389h-100l-70 224l-272 -224h-97z" />
<glyph unicode="&#xfc;" horiz-adv-x="995" d="M106 621q83 105 155.5 165t115.5 60q28 0 44.5 -21.5t16.5 -56.5q0 -43 -14 -109l-92 -448q-5 -24 -4.5 -40t5 -24t11.5 -8q9 0 32.5 15.5t37.5 29.5q98 98 189.5 223t119.5 197l43 195q6 30 13 38.5t30 8.5h86q31 0 38.5 -9.5t2.5 -37.5l-125 -617q-9 -47 6 -47 q29 0 119 109l33 -33q-206 -234 -287 -234q-27 0 -42 21.5t-15 60.5q0 62 22 172l49 230l-4 4q-121 -187 -278.5 -337.5t-208.5 -150.5q-28 0 -44 27t-16 72q0 49 11 106l92 453q11 49 -10 49q-26 0 -97 -92zM436 1128q0 40 28 68.5t68 28.5t68.5 -28.5t28.5 -68.5 t-28.5 -68t-68.5 -28t-68 28t-28 68zM799 1128q0 40 28 68.5t68 28.5t68 -28.5t28 -68.5t-28 -68t-68 -28t-68 28t-28 68z" />
<glyph unicode="&#xfd;" horiz-adv-x="923" d="M8 -475l10 55q105 0 138 33q41 41 119.5 229t78.5 303q0 139 -35 354.5t-81 215.5q-43 0 -121 -127l-39 28q152 230 244 230q53 0 93.5 -74.5t61.5 -193t31 -240t10 -240.5h4q73 134 129.5 258.5t79.5 192t23 86.5q0 13 -13.5 24t-27 29.5t-13.5 48.5q0 46 32 77.5 t81 31.5q46 0 76.5 -30.5t30.5 -76.5q0 -93 -125 -284l-97 -146q-160 -246 -219 -393l-100 -254q-21 -52 2.5 -67t114.5 -15l-11 -55h-477zM524 950l178 389h189l-268 -389h-99z" />
<glyph unicode="&#xfe;" horiz-adv-x="940" d="M-143 -475l10 55q115 1 152.5 38.5t66.5 180.5l274 1358q12 57 -10 57q-27 0 -131 -122l-39 30q93 113 180 182.5t136 69.5q28 0 43.5 -20.5t15.5 -55.5q0 -22 -8 -63l-141 -696l4 -4q95 132 196.5 221.5t155.5 89.5q59 0 101 -86.5t42 -206.5q0 -136 -66.5 -268.5 t-186 -220t-257.5 -87.5q-46 0 -100 11l-49 -234q-13 -70 -13 -90q0 -47 34.5 -65.5t123.5 -18.5l-10 -55h-524zM315 94q68 -57 127 -57q115 0 198 148t83 352q0 79 -16 125.5t-45 46.5q-27 0 -90.5 -62t-188.5 -221z" />
<glyph unicode="&#xff;" horiz-adv-x="923" d="M8 -475l10 55q105 0 138 33q41 41 119.5 229t78.5 303q0 139 -35 354.5t-81 215.5q-43 0 -121 -127l-39 28q152 230 244 230q53 0 93.5 -74.5t61.5 -193t31 -240t10 -240.5h4q73 134 129.5 258.5t79.5 192t23 86.5q0 13 -13.5 24t-27 29.5t-13.5 48.5q0 46 32 77.5 t81 31.5q46 0 76.5 -30.5t30.5 -76.5q0 -93 -125 -284l-97 -146q-160 -246 -219 -393l-100 -254q-21 -52 2.5 -67t114.5 -15l-11 -55h-477zM399 1128q0 40 28.5 68.5t68.5 28.5t68 -28.5t28 -68.5t-28 -68t-68 -28t-68.5 28t-28.5 68zM762 1128q0 40 28 68.5t68 28.5 t68 -28.5t28 -68.5t-28 -68t-68 -28t-68 28t-28 68z" />
<glyph unicode="&#x152;" horiz-adv-x="2084" d="M190 578q0 105 30.5 205.5t96.5 192.5t160 161t232 110t303 41q39 0 133 -8q21 -1 63 -3.5t56 -2.5h884l-59 -295h-57q0 121 -39.5 175t-147.5 54h-338l-108 -532h258q114 0 168 32t84 111h57l-78 -385h-57q10 97 -28.5 136.5t-129.5 39.5h-289l-79 -383q-9 -56 -9 -65 q0 -58 43.5 -77t176.5 -19q177 0 286.5 52.5t184.5 172.5h61l-94 -291h-801q-59 0 -139 -6q-18 -1 -72 -3.5t-74 -2.5q-150 0 -269 36t-194 93.5t-125 136.5t-70 158.5t-20 165.5zM420 508q0 -92 23 -168t62.5 -128.5t93 -88.5t114.5 -53t127 -17q123 0 182.5 59t89.5 203 l135 664q10 55 10 92q0 150 -243 150q-122 0 -222.5 -42.5t-168.5 -112.5t-114.5 -163.5t-67.5 -192.5t-21 -202z" />
<glyph unicode="&#x153;" horiz-adv-x="1255" d="M80 276q0 104 37 198.5t95 160.5t126.5 115t132.5 72.5t113 23.5q115 0 170 -158q146 158 327 158q88 0 137.5 -35.5t49.5 -99.5q0 -47 -28 -92.5t-86.5 -90t-160.5 -82.5t-237 -63q-11 -70 -11 -121q0 -98 39 -151.5t111 -53.5q109 0 248 105l24 -35 q-198 -150 -356 -150q-165 0 -219 150q-99 -81 -170 -115.5t-137 -34.5q-89 0 -147 84.5t-58 214.5zM262 311q0 -110 36 -182t91 -72q41 0 76 35q57 57 98 194t41 257q0 94 -36.5 158.5t-90.5 64.5q-47 0 -97.5 -67t-84 -174.5t-33.5 -213.5zM766 426q338 78 338 276 q0 41 -21 66t-55 25q-77 0 -151 -104t-111 -263z" />
<glyph unicode="&#x178;" horiz-adv-x="1400" d="M221 1219l12 55h476l-13 -55q-114 -3 -114 -70q0 -30 20 -72l211 -479l401 461q43 49 43 92q0 36 -28.5 52t-91.5 16l12 55h403l-12 -55q-54 -5 -99.5 -32t-97.5 -87l-509 -576l-50 -241q-16 -81 -16 -115q0 -69 40 -92t157 -21l-13 -55h-626l12 55q115 -3 162.5 40 t72.5 165l54 264l-219 498q-51 116 -87.5 155t-99.5 42zM653 1559q0 40 28.5 68t68.5 28t68 -28t28 -68t-28 -68.5t-68 -28.5t-68.5 28.5t-28.5 68.5zM1016 1559q0 40 28 68t68 28t68 -28t28 -68t-28 -68.5t-68 -28.5t-68 28.5t-28 68.5z" />
<glyph unicode="&#x2c6;" d="M240 950l309 389h192l37 -389h-100l-70 224l-272 -224h-96z" />
<glyph unicode="&#x2dc;" d="M209 1004q0 110 50.5 179.5t146.5 69.5q55 0 151 -49t143 -49q81 0 93 102h77q0 -125 -52 -187t-140 -62q-56 0 -152 49t-145 49q-78 0 -90 -102h-82z" />
<glyph unicode="&#x2000;" horiz-adv-x="884" />
<glyph unicode="&#x2001;" horiz-adv-x="1769" />
<glyph unicode="&#x2002;" horiz-adv-x="884" />
<glyph unicode="&#x2003;" horiz-adv-x="1769" />
<glyph unicode="&#x2004;" horiz-adv-x="589" />
<glyph unicode="&#x2005;" horiz-adv-x="442" />
<glyph unicode="&#x2006;" horiz-adv-x="294" />
<glyph unicode="&#x2007;" horiz-adv-x="294" />
<glyph unicode="&#x2008;" horiz-adv-x="221" />
<glyph unicode="&#x2009;" horiz-adv-x="353" />
<glyph unicode="&#x200a;" horiz-adv-x="98" />
<glyph unicode="&#x2010;" d="M109 334l32 160h508l-33 -160h-507z" />
<glyph unicode="&#x2011;" d="M109 334l32 160h508l-33 -160h-507z" />
<glyph unicode="&#x2012;" d="M109 334l32 160h508l-33 -160h-507z" />
<glyph unicode="&#x2013;" horiz-adv-x="1024" d="M20 362v160h1049v-160h-1049z" />
<glyph unicode="&#x2014;" horiz-adv-x="2048" d="M20 362v160h2073v-160h-2073z" />
<glyph unicode="&#x2018;" horiz-adv-x="571" d="M279 969q0 129 91.5 241t241.5 164l25 -41q-188 -86 -188 -219q0 -42 17.5 -77t34.5 -65.5t17 -62.5q0 -49 -30.5 -80.5t-77.5 -31.5q-58 0 -94.5 47.5t-36.5 124.5z" />
<glyph unicode="&#x2019;" horiz-adv-x="571" d="M258 838q188 86 188 219q0 42 -17 77t-34.5 65.5t-17.5 62.5q0 49 30.5 80.5t77.5 31.5q58 0 94.5 -47.5t36.5 -124.5q0 -129 -91.5 -241t-241.5 -164z" />
<glyph unicode="&#x201a;" horiz-adv-x="571" d="M39 -299q188 86 188 219q0 42 -17 77t-34.5 65.5t-17.5 62.5q0 49 30.5 81t77.5 32q58 0 94.5 -47.5t36.5 -124.5q0 -129 -92 -241.5t-242 -164.5z" />
<glyph unicode="&#x201c;" horiz-adv-x="1032" d="M281 967q0 130 91 241.5t242 165.5l25 -41q-188 -86 -188 -221q0 -50 34.5 -111t34.5 -92q0 -49 -30.5 -80.5t-77.5 -31.5q-60 0 -95.5 46.5t-35.5 123.5zM727 967q0 130 92.5 241.5t243.5 165.5l24 -41q-190 -87 -190 -221q0 -49 36 -111t36 -92q0 -49 -31.5 -80.5 t-77.5 -31.5q-60 0 -96.5 46.5t-36.5 123.5z" />
<glyph unicode="&#x201d;" horiz-adv-x="1032" d="M258 838q188 86 188 219q0 42 -17 77t-34.5 65.5t-17.5 62.5q0 49 30.5 80.5t77.5 31.5q58 0 94.5 -47.5t36.5 -124.5q0 -129 -91.5 -241t-241.5 -164zM707 838q188 86 188 219q0 42 -17.5 77t-35 65.5t-17.5 62.5q0 49 31 80.5t78 31.5q58 0 94.5 -47.5t36.5 -124.5 q0 -129 -92 -241t-242 -164z" />
<glyph unicode="&#x201e;" horiz-adv-x="1032" d="M78 -297q188 86 188 219q0 42 -17 77t-34.5 65.5t-17.5 62.5q0 49 30.5 81t77.5 32q58 0 94.5 -47.5t36.5 -124.5q0 -129 -92 -241.5t-242 -164.5zM526 -297q189 86 189 219q0 42 -17.5 77t-35 65.5t-17.5 62.5q0 49 31 81t78 32q58 0 94.5 -47.5t36.5 -124.5 q0 -129 -92 -241.5t-242 -164.5z" />
<glyph unicode="&#x2022;" horiz-adv-x="716" d="M217 592q0 103 72.5 174.5t175.5 71.5t174.5 -71.5t71.5 -174.5t-71.5 -175.5t-174.5 -72.5t-175.5 72.5t-72.5 175.5z" />
<glyph unicode="&#x2026;" horiz-adv-x="1771" d="M158 90q0 52 38.5 85.5t98.5 33.5t97.5 -33t37.5 -86q0 -52 -36.5 -82.5t-98.5 -30.5q-63 0 -100 30.5t-37 82.5zM750 90q0 52 38.5 85.5t98.5 33.5t97.5 -33t37.5 -86q0 -51 -37 -82t-98 -31q-63 0 -100 30.5t-37 82.5zM1341 90q0 52 39 85.5t99 33.5t97.5 -32.5 t37.5 -86.5q0 -52 -36.5 -82.5t-98.5 -30.5q-63 0 -100.5 30.5t-37.5 82.5z" />
<glyph unicode="&#x202f;" horiz-adv-x="353" />
<glyph unicode="&#x2039;" horiz-adv-x="591" d="M76 453l413 370h76l-295 -370l129 -377h-75z" />
<glyph unicode="&#x203a;" horiz-adv-x="591" d="M131 76l295 370l-129 377h76l248 -377l-414 -370h-76z" />
<glyph unicode="&#x205f;" horiz-adv-x="442" />
<glyph unicode="&#x20ac;" horiz-adv-x="1081" d="M59 518l13 66h116q3 53 15 112h-123l12 66h127q30 105 84 199.5t130.5 173.5t182.5 125.5t226 46.5q78 0 163 -26.5t125 -47.5l-47 -293h-53q4 32 4 51q0 127 -52.5 190.5t-147.5 63.5q-146 0 -258.5 -133t-157.5 -350h606l-12 -66h-604q-8 -47 -11 -112h586l-12 -66 h-576q0 -229 76 -357t191 -128q88 0 168 76t145 202h59q-26 -54 -50.5 -96.5t-62 -91.5t-76 -81t-91.5 -53.5t-111 -21.5q-97 0 -175 32.5t-128.5 86t-85 126.5t-50 148.5t-18.5 157.5h-127z" />
<glyph unicode="&#x2122;" horiz-adv-x="2048" d="M143 1174l21 200h729l22 -200h-34q-12 78 -55 109.5t-138 31.5h-72v-582q0 -82 17.5 -104t85.5 -27v-35h-375v35q48 5 67.5 15t27 34.5t7.5 81.5v582h-79q-92 0 -133 -30.5t-56 -110.5h-35zM983 567v35q74 0 94.5 23.5t20.5 107.5v467q0 91 -19.5 114t-95.5 23v37h289 l272 -573l264 573h279v-37q-51 -1 -72 -11t-29 -36.5t-8 -89.5v-467q0 -60 7.5 -84.5t28.5 -34t73 -12.5v-35h-399v35q77 2 98.5 25t21.5 106v492h-4l-303 -658h-33l-305 650h-4v-484q0 -82 18 -106.5t78 -24.5h37v-35h-309z" />
<glyph unicode="&#xe000;" horiz-adv-x="849" d="M0 0v850h850v-850h-850z" />
<glyph unicode="&#xfb01;" horiz-adv-x="1032" d="M-360 -369q0 34 25 57t63 23q28 0 54 -16t44 -35t45.5 -35t58.5 -16q82 0 140.5 98.5t93.5 331.5l106 700h-139l10 52q95 14 148 32q61 262 198 406.5t318 144.5q85 0 140.5 -34.5t55.5 -88.5q0 -35 -24.5 -59.5t-61.5 -24.5q-29 0 -51 13.5t-36.5 32.5t-29.5 37.5 t-38 32t-53 13.5q-96 0 -155.5 -115.5t-92.5 -357.5h291q112 0 204 15l-110 -693q-6 -40 -3 -54.5t15 -14.5t53 32.5t90 81.5l33 -32q-184 -181 -276 -181q-48 0 -72.5 37.5t-11.5 116.5l96 608h-328l-71 -471q-68 -436 -230 -598q-145 -145 -342 -145q-71 0 -114 28.5 t-43 77.5z" />
<glyph unicode="&#xfb02;" horiz-adv-x="1032" d="M-360 -369q0 34 25.5 57t62.5 23q28 0 55 -16.5t45.5 -35.5t45.5 -35.5t56 -16.5q34 0 65.5 19.5t63.5 64t59.5 131t45.5 207.5l106 710h-141l10 52q87 13 148 32q32 148 89.5 258.5t129 172.5t147 91t154.5 29q61 0 117 -20l47 20h69l-192 -1216q-12 -80 6 -80 q14 0 55 31.5t90 80.5l35 -32q-85 -85 -157 -133t-115 -48q-59 0 -79.5 35.5t-8.5 114.5l96 612h-330l-80 -534q-23 -154 -83 -306.5t-136 -228.5q-145 -145 -346 -145q-71 0 -113 28.5t-42 77.5zM457 823h325l62 379q-38 51 -70 72.5t-69 21.5q-189 0 -248 -473z" />
</font>
</defs>
</svg>
