<?xml version="1.0" standalone="no"?>
<!DOCTYPE svg PUBLIC "-//W3C//DTD SVG 1.1//EN" "http://www.w3.org/Graphics/SVG/1.1/DTD/svg11.dtd" >
<svg xmlns="http://www.w3.org/2000/svg">
<metadata></metadata>
<defs>
<font id="bembo_stditalic" horiz-adv-x="681" >
<font-face units-per-em="2048" ascent="1376" descent="-672" />
<missing-glyph horiz-adv-x="569" />
<glyph unicode="&#xfb03;" horiz-adv-x="1472" d="M-350 -381q0 26 17.5 41.5t43.5 15.5q21 0 38.5 -9.5t62.5 -43.5q53 -41 92 -41q53 0 97 49.5t71.5 121.5t42.5 161l145 825h-129l6 35q15 0 59.5 10.5t75.5 26.5q42 221 127 346q68 101 161.5 161t184.5 60q65 0 113.5 -30t48.5 -66q0 -27 -21 -45t-48 -18q-33 0 -88 51 q-47 47 -88 47q-56 0 -101 -37t-65 -82q-56 -130 -80 -293l-17 -94h373q19 101 50.5 185t66.5 141.5t77 102t80 70t77.5 41.5t67.5 21.5t52 5.5q72 0 136.5 -37.5t64.5 -93.5q0 -32 -21 -46.5t-39 -14.5q-29 0 -52 17t-56 54q-30 33 -53.5 48.5t-51.5 15.5q-60 0 -106.5 -38 t-69.5 -85q-49 -110 -80 -293l-16 -94h277q85 0 129 6.5t94 22.5l-125 -713q-6 -27 -6 -51q0 -23 18 -23q22 0 59 47.5t62 92.5l27 -17q-119 -201 -222 -201q-71 0 -71 82q0 27 14 113l100 569h-370l-97 -555q-14 -76 -22.5 -116.5t-29 -114.5t-51.5 -136.5t-73 -119.5 q-133 -174 -297 -174q-75 0 -117 33.5t-42 72.5q0 24 16 44t45 20q40 0 102 -51q35 -29 55 -38.5t48 -9.5q52 0 94 50q32 45 51.5 91t26.5 76.5t20 102.5l144 825h-373l-96 -555q-16 -88 -25 -130t-29 -112t-49 -127t-71 -114q-131 -178 -310 -178q-81 0 -118 30t-37 66z " />
<glyph unicode="&#xfb04;" horiz-adv-x="1472" d="M-344 -381q0 26 17.5 41.5t43.5 15.5q20 0 38.5 -10t62.5 -43q53 -41 92 -41q53 0 97 49t70.5 120.5t43.5 162.5l143 825h-127l4 35q88 11 135 37q14 67 23.5 104.5t39 112t67.5 129.5q68 101 161 161t183 60q66 0 114.5 -30t48.5 -66q0 -27 -21 -45t-48 -18 q-18 0 -36 9.5t-26.5 17t-25.5 24.5q-47 47 -88 47q-56 0 -101 -37t-65 -82q-56 -130 -80 -293l-19 -94h373q27 139 77 246t102.5 165.5t113 96t102.5 48.5t78 11q78 0 142 -41q48 19 82 39h26l-217 -1247q-8 -40 -8 -55q0 -10 5.5 -15.5t12.5 -5.5q22 0 59 47.5t62 92.5 l27 -17q-119 -201 -221 -201q-34 0 -53 21t-19 59q0 41 14 115l101 569h-371l-96 -555q-13 -71 -23 -116t-30.5 -116.5t-52 -135t-73.5 -119.5q-130 -174 -297 -174q-73 0 -115 33.5t-42 72.5q0 24 16 44t43 20q40 0 105 -51q36 -30 54.5 -39t47.5 -9q50 0 92 50 q33 45 53 90.5t27.5 77.5t20.5 102l143 825h-373l-96 -555q-16 -88 -25 -130t-29 -112t-49 -127t-71 -114q-131 -178 -309 -178q-81 0 -118.5 30.5t-37.5 65.5zM903 811h371l67 389q-22 16 -59 57q-30 36 -51 50t-53 14q-47 0 -84.5 -21.5t-63.5 -57t-47.5 -91.5t-35 -112.5 t-27.5 -133.5z" />
<glyph horiz-adv-x="2048" />
<glyph horiz-adv-x="2048" />
<glyph unicode="&#xd;" horiz-adv-x="2048" />
<glyph unicode=" "  horiz-adv-x="569" />
<glyph unicode="&#x09;" horiz-adv-x="569" />
<glyph unicode="&#xa0;" horiz-adv-x="569" />
<glyph unicode="!" horiz-adv-x="598" d="M219 68q0 48 25.5 82t72.5 34q38 0 59 -25t21 -65q0 -49 -26.5 -84t-73.5 -35q-40 0 -59 28t-19 65zM338 338l129 924q5 43 47 43h72q36 0 46.5 -18.5t-1.5 -53.5l-254 -895h-39z" />
<glyph unicode="&#x22;" horiz-adv-x="854" d="M295 1196q0 47 28 78t72 31t72.5 -31t28.5 -78q0 -24 -4 -53.5t-12 -76t-9 -50.5l-51 -295h-49l-52 295q-24 147 -24 180zM659 1196q0 47 28.5 78t72.5 31t72 -31t28 -78q0 -33 -24 -180l-52 -295h-49l-51 295q-1 4 -9 50.5t-12 76t-4 53.5z" />
<glyph unicode="#" horiz-adv-x="1368" d="M213 369v88h231l84 405h-315v88h336l86 416h88l-86 -416h453l88 416h88l-88 -416h213v-88h-232l-84 -405h316v-88h-332l-88 -416h-88l88 416h-457l-88 -416h-88l88 416h-213zM532 457h455l84 405h-455z" />
<glyph unicode="$" horiz-adv-x="940" d="M180 207q0 39 19.5 63.5t50.5 24.5q28 0 45.5 -19.5t17.5 -48.5q0 -11 -4 -40t-4 -50q0 -34 19 -61.5t45 -42.5l114 559q-72 74 -104.5 143t-32.5 150q0 124 68.5 205.5t191.5 103.5l25 121h45l-27 -121q44 3 88 0l25 121h45l-27 -129q82 -20 129 -79t47 -142 q0 -95 -59 -95q-26 0 -41.5 20t-15.5 52q0 12 5 48.5t5 51.5q0 35 -20.5 62.5t-57.5 40.5l-110 -547q98 -104 137 -174.5t39 -144.5q0 -126 -82.5 -209t-220.5 -95l-33 -153h-43l30 153q-51 0 -86 9l-32 -162h-45l34 170q-82 28 -131 86.5t-49 128.5zM412 18q21 -8 84 -8 l98 469q-56 56 -74 72zM440 938q0 -85 76 -188l80 399q-72 -23 -114 -80t-42 -131zM543 16q78 17 127 77.5t49 139.5q0 54 -19.5 99t-70.5 106zM549 709q24 -28 74 -76l106 522q-43 3 -86 0z" />
<glyph unicode="%" horiz-adv-x="1685" d="M233 838q0 120 49 228t130 173.5t170 65.5q94 0 144 -61.5t50 -176.5q0 -117 -48 -223t-128.5 -170t-169.5 -64t-143 62t-54 166zM285 -55l1271 1394h91l-1272 -1394h-90zM340 770q0 -55 26 -90t66 -35q53 0 100 53t76 130.5t45.5 159.5t16.5 147q0 66 -24 100.5 t-68 34.5q-54 0 -101 -56.5t-75.5 -138t-45 -163.5t-16.5 -142zM1159 211q0 120 48.5 228t129.5 173.5t170 65.5q94 0 144.5 -61.5t50.5 -176.5q0 -117 -48 -222.5t-128.5 -169.5t-169.5 -64q-90 0 -143.5 61.5t-53.5 165.5zM1266 143q0 -55 26 -90t66 -35q53 0 99.5 53 t75.5 130.5t45.5 159.5t16.5 147q0 66 -24 100.5t-68 34.5q-54 0 -101 -56.5t-75.5 -138t-44.5 -163.5t-16 -142z" />
<glyph unicode="&#x26;" horiz-adv-x="1449" d="M188 369q0 133 117 242t287 126v4q-113 29 -173.5 89.5t-60.5 142.5q0 60 31 118t87.5 106.5t147.5 78t201 29.5q84 0 150.5 -17.5t103.5 -42t61 -54t32 -50t8 -33.5q0 -23 -19 -40t-47 -17q-33 0 -51.5 17.5t-23 40.5t-15 52.5t-27.5 46.5q-47 47 -161 47 q-72 0 -129 -23t-90.5 -57.5t-56 -78t-30.5 -80.5t-8 -70q0 -86 41 -136t99 -50q18 0 35.5 2t27.5 2q51 0 51 -31q0 -35 -63 -35q-12 0 -40.5 2t-54.5 2q-100 0 -175.5 -80t-75.5 -214q0 -53 13 -104t44.5 -100t78 -85.5t119 -59t162.5 -22.5q95 0 177 26t135.5 66t91.5 89 t55 95t17 84q0 83 -58 133t-155 50q-62 0 -108 -17.5t-46 -40.5q0 -14 24.5 -37t24.5 -45q0 -20 -16 -33.5t-39 -13.5q-31 0 -49.5 18.5t-18.5 47.5t16.5 63.5t49 69t93 57.5t136.5 23q31 0 127 -2t113 -2q56 0 91.5 15t35.5 38q0 13 -17.5 35t-17.5 39t14.5 29t34.5 12 q23 0 39 -18.5t16 -43.5q0 -89 -99 -144t-241 -55v-4q101 -71 101 -172q0 -52 -24 -110t-74.5 -115.5t-119 -103.5t-166.5 -74.5t-208 -28.5q-120 0 -216 29t-153 72.5t-95.5 100t-52.5 106t-14 94.5z" />
<glyph unicode="'" horiz-adv-x="448" d="M268 1196q0 47 28.5 78t72.5 31t72 -31t28 -78q0 -24 -4 -53.5t-12 -76t-9 -50.5l-51 -295h-49l-51 295q-1 4 -9 50.5t-12 76t-4 53.5z" />
<glyph unicode="(" horiz-adv-x="575" d="M205 238q0 567 590 1138l16 -28q-225 -239 -361.5 -585.5t-136.5 -660.5q0 -149 25 -281t82 -284l-33 -14q-182 407 -182 715z" />
<glyph unicode=")" horiz-adv-x="575" d="M-86 -449q225 239 361.5 585.5t136.5 660.5q0 149 -25 281t-82 284l33 14q182 -407 182 -714q0 -568 -590 -1139z" />
<glyph unicode="*" horiz-adv-x="1024" d="M215 1087l29 54l338 -113l137 326l61 -13l-8 -352l354 -26l7 -62l-340 -104l88 -348l-62 -25l-203 283l-297 -183l-43 47l213 287z" />
<glyph unicode="+" horiz-adv-x="1366" d="M264 610v90h492v492h90v-492h493v-90h-493v-493h-90v493h-492z" />
<glyph unicode="," horiz-adv-x="598" d="M88 -319q99 67 141.5 120t42.5 107q0 42 -31.5 94t-31.5 90q0 40 24.5 67t61.5 27q43 0 72.5 -42t29.5 -103q0 -117 -71 -213t-222 -182z" />
<glyph unicode="-" d="M127 342l27 127h460l-26 -127h-461z" />
<glyph unicode="." horiz-adv-x="598" d="M207 68q0 48 25.5 82t72.5 34q38 0 59 -25t21 -65q0 -49 -26.5 -84t-73.5 -35q-40 0 -59 28t-19 65z" />
<glyph unicode="/" horiz-adv-x="937" d="M231 -29l662 1334h88l-662 -1334h-88z" />
<glyph unicode="0" horiz-adv-x="1044" d="M203 403q0 165 46.5 329t122.5 290t182 204.5t218 78.5q149 0 229 -117t80 -334q0 -168 -47.5 -331t-125 -283.5t-181 -194.5t-211.5 -74q-142 0 -227.5 117.5t-85.5 314.5zM344 274q0 -117 49 -188.5t127 -71.5q87 0 161 79t120 195t79 254t46.5 250.5t13.5 188.5 q0 135 -46.5 208t-133.5 73q-89 0 -163.5 -85.5t-119.5 -208.5t-76.5 -266.5t-44 -253t-12.5 -174.5z" />
<glyph unicode="1" horiz-adv-x="1044" d="M324 0l8 33h61q70 0 92 21t39 102l195 960q-84 -67 -180.5 -126t-173.5 -83l12 56q135 56 252.5 144.5t199.5 197.5h76l-231 -1133q-15 -79 12 -106t133 -33l-8 -33h-487z" />
<glyph unicode="2" horiz-adv-x="1044" d="M111 0l2 33q134 131 211 207.5t170 172.5t142.5 154.5t103 128t78 120t40.5 104t16 104.5q0 86 -56 138t-150 52q-108 0 -188.5 -63.5t-125.5 -187.5h-41q32 157 138 249.5t254 92.5q149 0 240 -80.5t91 -210.5q0 -61 -29 -125.5t-73.5 -121.5t-121.5 -133.5t-150 -141.5 t-184 -166.5t-199 -188.5h481q50 0 68 17t30 77l6 31h39l-45 -262h-747z" />
<glyph unicode="3" horiz-adv-x="1044" d="M125 51q0 29 19.5 49.5t45.5 20.5q20 0 52.5 -18t75.5 -36t88 -18q73 0 141 45.5t113.5 115.5t72.5 151.5t27 154.5q0 89 -49 146t-127 57q-55 0 -170 -60l10 50q207 124 299 212.5t92 165.5q0 59 -44 100.5t-107 41.5q-61 0 -112.5 -32.5t-113.5 -109.5l-26 25 q57 93 138.5 143t176.5 50q108 0 178 -56t70 -143q0 -176 -311 -287l4 -4q119 7 187.5 -63t68.5 -187q0 -110 -59 -219.5t-152 -191t-212 -132.5t-233 -51q-59 0 -101 23.5t-42 56.5z" />
<glyph unicode="4" horiz-adv-x="1044" d="M205 387v74l764 844h55l-164 -807h189l-23 -111h-188l-86 -416h-148l86 416h-485zM307 498h406l116 575l-4 4z" />
<glyph unicode="5" horiz-adv-x="1044" d="M158 57q0 25 20 45.5t45 20.5q29 0 99 -41t112 -41q38 0 83.5 20.5t91 60.5t83 93t61 125t23.5 149q0 107 -53.5 171.5t-144.5 64.5q-72 0 -162 -45l159 594q83 1 222.5 -3.5t148.5 -4.5q44 0 66 5t29.5 12.5t15.5 25.5h35l-35 -172q-30 -8 -210.5 -4.5t-258.5 -4.5 l-78 -292q72 28 133 28q117 0 197 -90t80 -223q0 -109 -50.5 -215.5t-132.5 -186t-192 -129t-223 -49.5q-77 0 -120.5 22.5t-43.5 63.5z" />
<glyph unicode="6" horiz-adv-x="1044" d="M246 336q0 172 80.5 342t208.5 298t291 217t325 112l-10 -54q-222 -43 -397.5 -216t-288.5 -460l4 -4q85 83 156 119.5t149 36.5q107 0 177.5 -81t70.5 -204q0 -120 -65 -229t-172.5 -175.5t-225.5 -66.5q-139 0 -221 99t-82 266zM373 223q0 -91 47.5 -150t124.5 -59 q93 0 168 80t112 189.5t37 216.5q0 76 -38.5 120t-106.5 44q-65 0 -147.5 -52t-133.5 -104q-25 -66 -44 -148.5t-19 -136.5z" />
<glyph unicode="7" horiz-adv-x="1044" d="M276 956l80 318h736v-51l-586 -1252h-96l579 1166h-522q-67 0 -92.5 -15.5t-36.5 -60.5l-27 -105h-35z" />
<glyph unicode="8" horiz-adv-x="1044" d="M209 262q0 63 28 120t80.5 106t110.5 87.5t135 79.5q-91 90 -133.5 168.5t-42.5 159.5q0 140 104 231t265 91q152 0 228.5 -64.5t76.5 -175.5q0 -104 -87 -192.5t-253 -170.5q112 -116 163.5 -201t51.5 -173q0 -149 -112.5 -253t-272.5 -104q-145 0 -243.5 84t-98.5 207z M342 227q0 -92 55 -149.5t144 -57.5q106 0 182 76.5t76 182.5q0 175 -205 344q-123 -85 -187.5 -186.5t-64.5 -209.5zM518 1034q0 -71 39 -139.5t131 -157.5q242 170 242 350q0 78 -48.5 126.5t-127.5 48.5q-96 0 -166 -67.5t-70 -160.5z" />
<glyph unicode="9" horiz-adv-x="1044" d="M152 -29l10 47q238 54 401 216t293 454l-4 4q-90 -82 -160.5 -113.5t-142.5 -31.5q-103 0 -171.5 83t-68.5 206q0 88 39 174t102 150.5t147 104.5t169 40q144 0 225.5 -98.5t81.5 -268.5q0 -150 -61.5 -296.5t-160.5 -261t-220.5 -205.5t-246.5 -143t-232 -61zM465 782 q0 -77 37 -123.5t98 -46.5q68 0 133.5 38.5t147.5 113.5q4 12 14.5 46.5t14 46.5t11 40t10 43.5t6.5 39t5.5 45t1.5 44.5q0 85 -46 139t-118 54q-71 0 -133 -51t-100.5 -127t-60 -156.5t-21.5 -145.5z" />
<glyph unicode=":" horiz-adv-x="598" d="M207 68q0 48 25.5 82t72.5 34q38 0 59 -25t21 -65q0 -49 -26.5 -84t-73.5 -35q-40 0 -59 28t-19 65zM336 717q0 48 25.5 82.5t72.5 34.5q38 0 59 -25.5t21 -65.5q0 -49 -26.5 -83.5t-73.5 -34.5q-40 0 -59 28t-19 64z" />
<glyph unicode=";" horiz-adv-x="598" d="M88 -319q99 67 141.5 120t42.5 107q0 42 -31.5 94t-31.5 90q0 40 24.5 67t61.5 27q43 0 72.5 -42t29.5 -103q0 -117 -71 -213t-222 -182zM336 717q0 48 25.5 82.5t72.5 34.5q38 0 59 -25.5t21 -65.5q0 -49 -26.5 -83.5t-73.5 -34.5q-40 0 -59 28t-19 64z" />
<glyph unicode="&#x3c;" horiz-adv-x="1366" d="M264 614v82l1073 455v-102l-950 -394l950 -393v-102z" />
<glyph unicode="=" horiz-adv-x="1366" d="M264 475v90h1075v-90h-1075zM264 846v90h1075v-90h-1075z" />
<glyph unicode="&#x3e;" horiz-adv-x="1366" d="M266 160v102l951 393l-951 394v102l1073 -455v-82z" />
<glyph unicode="?" horiz-adv-x="811" d="M211 68q0 48 25.5 82t72.5 34q38 0 59 -25t21 -65q0 -49 -26.5 -84t-73.5 -35q-40 0 -59 28t-19 65zM334 336q17 155 42 237t64 121q23 23 65.5 48.5t81.5 47t76 49t59.5 67t22.5 87.5q0 69 -51 115.5t-129 46.5q-47 0 -102.5 -15.5t-67.5 -15.5q-22 0 -36.5 22t-14.5 54 q0 45 56 75t126 30q127 0 206 -87t79 -227q0 -73 -13.5 -131t-37 -96t-52 -66.5t-62.5 -48.5t-64.5 -35t-61 -32.5t-49.5 -36.5q-66 -66 -98 -209h-39z" />
<glyph unicode="@" horiz-adv-x="1878" d="M207 444q0 202 74 384t200.5 312t301.5 206.5t370 76.5q319 0 517 -190t198 -496q0 -91 -21 -187.5t-66.5 -189.5t-108.5 -166t-155.5 -118t-199.5 -45q-75 0 -114.5 35t-39.5 102q0 47 17 143l-4 4q-214 -284 -390 -284q-76 0 -129 67t-53 164q0 91 35 192.5t94 190 t129.5 161t148.5 115t144 42.5q62 0 112 -34.5t60 -103.5h4l31 111l158 20l-179 -608q-38 -117 -31 -180.5t76 -63.5q55 0 114.5 32t113.5 92t97.5 138.5t69 180.5t25.5 209q0 134 -48 249t-133 196t-205.5 127t-260.5 46q-156 0 -294 -54t-239.5 -147t-176 -214.5 t-111.5 -259.5t-37 -279q0 -233 99.5 -415.5t278 -284t406.5 -101.5q272 0 480.5 144t322.5 409h58q-80 -270 -322.5 -442t-544.5 -172q-149 0 -283.5 43t-241 122.5t-185 188t-120.5 245t-42 287.5zM758 293q0 -58 34.5 -99.5t81.5 -41.5q62 0 136 54.5t136 139.5 t104 199.5t42 224.5q0 63 -35 103t-90 40q-65 0 -140.5 -69.5t-133.5 -167t-96.5 -204.5t-38.5 -179z" />
<glyph unicode="A" horiz-adv-x="1429" d="M-16 0l8 39q73 6 128.5 50.5t125.5 135.5l829 1080h115v-1147q0 -64 37.5 -91.5t134.5 -27.5l-8 -39h-545l8 39q118 0 165.5 35t47.5 116v365h-461l-268 -346q-38 -50 -38 -86v-7q4 -38 40 -57.5t94 -19.5h39l-8 -39h-444zM627 629h403v532h-4z" />
<glyph unicode="B" horiz-adv-x="1259" d="M96 0l8 39q89 3 128 42.5t59 133.5l174 852q6 32 6 58q0 110 -117 110h-45l6 39h576q183 0 284 -72t101 -201q0 -114 -89 -192.5t-237 -95.5v-4q134 -34 212.5 -123t78.5 -207q0 -73 -28.5 -139t-85.5 -120.5t-154.5 -87t-224.5 -32.5h-652zM463 256q-6 -31 -6 -57 q-1 -65 39 -99q56 -48 204 -49q81 0 145.5 22t104.5 57.5t67 82.5t37.5 93.5t10.5 94.5q0 137 -93.5 216t-256.5 79h-162zM563 748h211q88 0 154 22.5t104 61.5t56 85.5t18 100.5q0 205 -248 205h-199z" />
<glyph unicode="C" horiz-adv-x="1492" d="M221 547q0 210 118.5 384t324.5 274t454 100q255 0 449 -93l-78 -305h-39q6 34 6 65q0 109 -68 185q-86 98 -286 98q-88 0 -182.5 -27.5t-187.5 -86.5t-166.5 -142.5t-119 -206.5t-45.5 -266q0 -233 123 -371.5t330 -138.5q157 0 294.5 80.5t235.5 229.5h41l-106 -326 h-14q-36 16 -72 16q-21 0 -159 -24.5t-238 -24.5q-120 0 -221.5 32t-173 87.5t-122 129.5t-74.5 158t-24 173z" />
<glyph unicode="D" horiz-adv-x="1556" d="M66 0l6 39q101 3 142 33.5t58 113.5l183 893q6 29 6 53q0 42 -19 66q-30 38 -108 37h-58l9 39h612q305 0 489.5 -155.5t184.5 -411.5q0 -100 -32 -199.5t-98.5 -191t-159 -162t-223 -112.5t-280.5 -42h-712zM449 248q-9 -45 -9 -79q0 -57 26 -81q42 -40 196 -39 q197 0 315 48t213 143q99 99 146.5 224t47.5 253q0 81 -20 153.5t-64 137.5t-109.5 112.5t-163 75t-216.5 27.5h-164z" />
<glyph unicode="E" horiz-adv-x="1280" d="M59 0l9 39q99 0 143.5 37t62.5 123l179 880q5 27 5 50q0 41 -17 66q-27 40 -111 40h-51l8 39h1050l-57 -283h-33q2 23 2 44q0 93 -44 135q-54 52 -177 53h-383l-113 -553h402q85 0 130.5 28.5t78.5 108.5h37l-74 -361h-35q2 18 2 33q1 77 -37 105q-44 34 -170 34h-344 l-84 -409q-6 -31 -6 -55q0 -44 20 -68q32 -36 146 -35h180q132 0 247.5 63t172.5 160h35l-88 -274h-1086z" />
<glyph unicode="F" horiz-adv-x="1153" d="M76 0l8 39q91 3 133 34.5t57 108.5l185 899q6 29 6 53q0 44 -21 66q-33 36 -108 35h-37l8 39h971l-57 -279h-33v22q0 115 -38 159q-42 48 -153 47h-346l-112 -553h360q74 0 119 33t80 114h37l-76 -371h-37q0 100 -31 136t-117 36h-346l-84 -411q-7 -33 -7 -59 q0 -42 18 -68q29 -41 125 -41h38l-8 -39h-534z" />
<glyph unicode="G" horiz-adv-x="1599" d="M238 561q0 203 116.5 374t316 270.5t435.5 99.5q230 0 477 -99l8 -278h-35q-38 154 -160 240.5t-300 86.5q-123 0 -232.5 -41.5t-189.5 -112t-138.5 -162.5t-88 -195.5t-29.5 -208.5q0 -85 19 -160t62 -141.5t106.5 -114.5t157 -75.5t208.5 -27.5q49 0 96.5 7t95.5 23 t82 47t43 73l25 119q3 17 3 32q0 40 -22 63q-32 32 -116 32l8 37h452l-8 -37q-79 -9 -110.5 -34.5t-44.5 -92.5l-33 -154q-6 -26 11.5 -39.5t57.5 -15.5l-6 -37q-269 -72 -549 -72q-155 0 -281 38.5t-205.5 100t-133.5 141.5t-76 158.5t-22 155.5z" />
<glyph unicode="H" horiz-adv-x="1556" d="M41 0l8 39h39q86 0 126 42t60 136l177 864q6 29 6 52q1 41 -19 65q-30 37 -106 37h-53l8 39h547l-7 -39h-28q-84 0 -126.5 -36t-56.5 -107l-84 -412h738l84 410q4 23 4 42q0 103 -127 103h-35l8 39h510l-8 -39q-93 0 -134 -39.5t-59 -128.5l-178 -877q-5 -24 -5 -45 q0 -106 145 -106h24l-8 -39h-545l8 39h23q93 0 135.5 35.5t61.5 126.5l83 411h-737l-86 -415q-6 -28 -6 -51q0 -46 22 -70q34 -38 121 -37h47l-8 -39h-569z" />
<glyph unicode="I" horiz-adv-x="661" d="M74 0l8 39q102 3 142.5 39.5t56.5 120.5l180 886q5 25 5 46q0 104 -128 104h-27l8 39h512l-8 -39h-16q-83 0 -124 -32.5t-56 -108.5l-181 -881q-7 -35 -7 -63q1 -46 21 -71q34 -40 120 -40h30l-8 -39h-528z" />
<glyph unicode="J" horiz-adv-x="618" d="M-360 -426q0 27 28 64.5t62 37.5q25 0 100.5 -25.5t134.5 -25.5q200 0 242 230l217 1230q4 22 4 40q0 110 -133 110h-39l8 39h518l-8 -39q-88 0 -130.5 -35.5t-57.5 -124.5l-180 -1018q-20 -116 -52 -195t-102 -149q-71 -71 -162.5 -116t-162.5 -59.5t-136 -14.5 q-151 0 -151 51z" />
<glyph unicode="K" horiz-adv-x="1449" d="M74 0l8 39q99 0 142.5 37t62.5 133l178 876q5 26 5 47q0 43 -20 67q-30 36 -116 36l8 39h496l-9 -39q-90 0 -135.5 -30.5t-62.5 -110.5l-90 -445l676 475q29 20 34.5 45.5t-21.5 45.5t-85 20l8 39h465l-8 -39l-94 -21q-123 -28 -349 -188l-432 -303l471 -551 q60 -70 115 -101.5t135 -31.5l-8 -39h-303l-537 635l-84 -60l-75 -372q-6 -30 -6 -54q1 -45 23 -71q34 -38 120 -39h26l-8 -39h-530z" />
<glyph unicode="L" horiz-adv-x="1193" d="M70 0l8 39q102 0 146 44t67 153l174 868q4 18 4 34q0 40 -24 64q-33 33 -105 33h-39l8 39h535l-8 -39h-27q-85 0 -127.5 -39.5t-58.5 -120.5l-166 -815q-10 -46 -10 -81q-1 -37 11 -63q22 -50 97 -50h229q151 0 248 47.5t189 167.5h36l-94 -281h-1093z" />
<glyph unicode="M" horiz-adv-x="1748" d="M37 0l8 39q103 17 149 76.5t97 240.5l194 699q12 43 12 75q0 39 -18 63q-33 42 -121 42h-45l6 39h379l187 -1090l706 1090h334l-6 -39h-18q-89 0 -129.5 -38.5t-59.5 -133.5l-178 -881q-4 -19 -4 -36q0 -46 29 -72q39 -35 116 -35h31l-8 -39h-535l8 39q94 0 140.5 36 t60.5 111l193 949l-4 4l-738 -1139h-67l-191 1147h-4l-246 -877q-13 -47 -13 -86q0 -45 18 -79q34 -63 137 -66l-8 -39h-412z" />
<glyph unicode="N" horiz-adv-x="1579" d="M76 0l8 39q58 11 95.5 32.5t69.5 74t50 139.5l176 876q-24 36 -65.5 52.5t-112.5 21.5l8 39h275l763 -1073l166 815q9 44 9 79q0 51 -20 82q-34 51 -152 58l8 39h415l-8 -39q-90 -13 -136.5 -64t-68.5 -155l-210 -1039h-48l-782 1123l-162 -813q-16 -70 -16 -117 q0 -41 12 -64q25 -51 142 -65l16 -2l-8 -39h-424z" />
<glyph unicode="O" horiz-adv-x="1622" d="M236 567q0 108 37 215.5t108 201t165 166t217.5 114t256.5 41.5q172 0 316 -79t226.5 -216.5t82.5 -302.5q0 -141 -59 -275t-161.5 -237t-252 -165.5t-318.5 -62.5q-134 0 -251 49.5t-196.5 132t-125 191.5t-45.5 227zM416 516q0 -229 119 -364.5t319 -135.5 q137 0 254 64t193.5 169.5t119.5 240t43 276.5q0 215 -122.5 352t-313.5 137q-95 0 -177.5 -27.5t-143.5 -73.5t-111.5 -107.5t-83 -129.5t-55 -140t-32 -137t-9.5 -124z" />
<glyph unicode="P" horiz-adv-x="1153" d="M92 0l8 39q84 4 124 44t59 132l180 887q4 19 4 35q1 41 -25 65q-34 32 -106 33h-25l6 39h508q211 0 320.5 -97t109.5 -253q0 -52 -14.5 -105.5t-52 -112.5t-94 -104t-150.5 -74.5t-211 -29.5q-77 0 -121 8l9 37q50 -4 67 -4q79 0 143.5 21t106 57t71.5 78.5t45.5 91.5 t22 88.5t6.5 76.5q0 132 -71 201.5t-209 69.5h-152l-207 -1020q-7 -32 -7 -58q0 -43 19 -67q30 -39 124 -39h28l-8 -39h-508z" />
<glyph unicode="Q" horiz-adv-x="1622" d="M236 567q0 194 106.5 364.5t286 272t383.5 101.5q176 0 320.5 -78t227 -215t82.5 -305q0 -177 -87 -336t-239.5 -264.5t-338.5 -131.5q186 -133 296 -187t206 -54q71 0 135 24l20 -28q-46 -40 -117 -63t-147 -23q-173 0 -371 133l-305 207q-197 46 -327.5 211.5 t-130.5 371.5zM416 516q0 -227 119 -362.5t319 -135.5q101 0 190 33t154 90.5t116.5 131.5t83 158.5t48 170t16.5 166.5q0 214 -122 350.5t-312 136.5q-96 0 -179.5 -28t-144.5 -74.5t-111 -109t-82 -130.5t-54 -140.5t-31.5 -136t-9.5 -120.5z" />
<glyph unicode="R" horiz-adv-x="1429" d="M49 0l6 39h25q91 0 134 35t60 119l181 880q7 32 7 58q0 43 -20 67q-30 38 -108 37h-35l8 39h578q170 0 269 -87t99 -226q0 -143 -108 -244.5t-297 -136.5q32 -39 128.5 -191.5t172.5 -228.5q82 -82 136 -104.5t173 -28.5l-6 -33q-38 -14 -102 -14q-92 0 -166 23.5 t-123.5 59.5t-99.5 97t-84.5 116.5t-89 138t-103.5 144.5q-33 -4 -75.5 -3.5t-94.5 3.5l-76 -366q-5 -24 -5 -44q0 -110 142 -110h39l-6 -39h-559zM524 612h66q101 0 181.5 17t132 48t87 68t53.5 83.5t25.5 87t7.5 85.5q0 106 -71 164t-207 58h-150z" />
<glyph unicode="S" horiz-adv-x="1087" d="M135 98l68 291h35q-3 -28 -3 -53q0 -140 83 -222q98 -98 268 -98q141 0 229 67.5t88 174.5q0 55 -30 106.5t-78.5 94t-106.5 84.5t-116.5 86.5t-107 91.5t-78.5 108t-30 127q0 136 117 233t281 97q72 0 156 -19.5t104 -19.5q36 0 63 27h41l-45 -336h-37q0 141 -74.5 220 t-207.5 79q-119 0 -195 -60t-76 -149q0 -48 31 -95.5t80.5 -89.5t109.5 -85.5t119.5 -90.5t109 -95.5t80.5 -109t31 -124.5q0 -165 -128 -268t-336 -103q-105 0 -226 35.5t-219 95.5z" />
<glyph unicode="T" horiz-adv-x="1343" d="M252 999l67 330h35q26 -34 53 -44.5t85 -10.5h798q105 0 142 9.5t73 45.5h39l-67 -330h-37q0 130 -29.5 177t-95.5 47h-320l-209 -1033q-5 -24 -5 -44q1 -44 23 -70q32 -38 120 -37h41l-7 -39h-559l9 39h20q88 0 133.5 36t63.5 126l206 1022h-237q-124 0 -190 -48 t-117 -176h-35z" />
<glyph unicode="U" horiz-adv-x="1492" d="M240 1235l8 39h520l-8 -39q-91 0 -135.5 -31t-61.5 -112l-114 -566q-25 -131 -25 -196q0 -141 105.5 -227.5t277.5 -86.5q198 0 330.5 109t171.5 324l104 583q5 31 5 57q0 65 -34 99q-48 47 -151 47l8 39h422l-8 -39q-79 -9 -125 -63.5t-66 -163.5l-102 -562 q-45 -253 -197.5 -366t-396.5 -113q-116 0 -208.5 28t-146.5 69.5t-89.5 96t-48.5 102t-13 91.5t25 178l110 549q5 27 5 50q0 41 -16 65q-26 40 -112 39h-34z" />
<glyph unicode="V" horiz-adv-x="1429" d="M344 1235l8 39h496l-8 -39h-27q-81 0 -120 -50t-42 -132l-30 -893l4 -4l741 880q59 69 59 119q1 11 -3 23q-18 56 -130 57l8 39h392l-9 -39q-114 -42 -239 -188l-916 -1080h-67l35 1137v6q0 56 -34 90q-36 36 -118 35z" />
<glyph unicode="W" horiz-adv-x="1961" d="M301 1235l8 39h463l-8 -39q-98 -12 -129.5 -50.5t-36.5 -146.5l-43 -852l4 -4l633 856v74q0 120 -158 123l8 39h484l-8 -39q-95 -9 -128 -44.5t-36 -127.5l-23 -877l4 -4l588 838q53 71 53 125q0 15 -4 28q-19 62 -131 62l8 39h371l-8 -39q-54 -17 -94.5 -53t-98.5 -119 l-776 -1096h-74l23 977l-4 4l-727 -981h-68l51 1143v11q0 55 -27 81q-30 30 -116 33z" />
<glyph unicode="X" horiz-adv-x="1409" d="M29 0l8 33q62 5 109.5 25.5t73.5 42t71 67.5l14 14l471 471l-266 471q-33 60 -81 84t-148 27l8 39h545l-9 -39q-103 1 -132 -29q-13 -13 -13 -34q0 -27 22 -66l187 -336l305 309q52 53 52 90q0 15 -8 25q-26 42 -138 41l8 39h463l-8 -41q-83 -1 -156.5 -43.5 t-161.5 -130.5l-332 -334l289 -520q53 -96 92.5 -127.5t128.5 -44.5l-8 -33h-489l8 33q71 2 105 19t33 44.5t-19 63.5l-252 448l-379 -377q-68 -68 -68 -117q0 -12 4 -23q20 -55 134 -58l-9 -33h-454z" />
<glyph unicode="Y" horiz-adv-x="1280" d="M233 1235l7 39h426l-7 -39q-91 -6 -109 -43q-6 -12 -6 -28q0 -35 27 -89l232 -493l426 493q37 43 43 78q1 6 1 11q0 28 -27 46q-31 23 -99 25l8 39h350l-6 -39q-53 -19 -89.5 -48t-88.5 -89l-504 -578l-67 -334q-4 -21 -4 -39q0 -108 143 -108h53l-8 -39h-584l8 39h37 q89 0 134 36t59 111l65 334l-258 567q-37 81 -69 114.5t-93 33.5z" />
<glyph unicode="Z" horiz-adv-x="1409" d="M129 0v39l1165 1184h-469q-146 0 -234.5 -67.5t-144.5 -221.5h-38l77 340h1041v-41l-1168 -1182h600q148 0 235 61.5t189 241.5h37l-98 -354h-1192z" />
<glyph unicode="[" horiz-adv-x="618" d="M123 -449l362 1790h385l-6 -34h-186q-43 0 -61 -16t-27 -62l-318 -1565q-11 -46 -2.5 -62t49.5 -16h195l-4 -35h-387z" />
<glyph unicode="\" horiz-adv-x="448" d="M129 1305h88l361 -1338h-89z" />
<glyph unicode="]" horiz-adv-x="618" d="M-78 -449l6 35h187q43 0 61 16t27 62l317 1565q11 46 2.5 62t-49.5 16h-194l4 34h387l-363 -1790h-385z" />
<glyph unicode="^" horiz-adv-x="874" d="M113 662l428 716h30l428 -716h-94l-350 585l-348 -585h-94z" />
<glyph unicode="_" horiz-adv-x="1024" d="M-16 -154h1056v-102h-1056v102z" />
<glyph unicode="`" d="M313 1362h146l211 -444h-37z" />
<glyph unicode="a" horiz-adv-x="831" d="M98 186q0 116 61.5 236.5t158.5 212.5q98 93 228 149q122 53 242 52h17l-131 -654q-7 -34 -7 -55q0 -33 17 -33q26 0 121 105v-47q-63 -74 -122 -125.5t-91 -51.5q-59 0 -59 97q0 69 30 188l-4 4q-60 -72 -177.5 -180.5t-166.5 -108.5q-44 0 -80.5 65.5t-36.5 145.5z M223 227q0 -65 21 -107t49 -42q22 0 85 55t197 189l82 409q-184 -11 -288 -115q-60 -60 -103 -173.5t-43 -215.5z" />
<glyph unicode="b" horiz-adv-x="831" d="M125 160q0 45 14 114l195 955q5 20 2.5 27.5t-14.5 7.5q-4 0 -12 -3t-15.5 -6.5t-22.5 -11t-26 -12.5l-17 29l158 86q3 1 15 8.5t19.5 11.5t19.5 8t22 4t15.5 -4.5t6 -13t-1 -16t-4 -16.5t-2.5 -11l-155 -766l4 -4q92 102 208 195.5t148 93.5q38 0 74.5 -91t36.5 -188 q0 -123 -46.5 -235t-117.5 -186t-153.5 -117.5t-156.5 -43.5q-87 0 -140.5 51t-53.5 134zM250 139q0 -54 28 -87.5t72 -33.5q87 0 161 82.5t112.5 196t38.5 219.5q0 85 -19.5 147t-50.5 62t-99.5 -61t-183.5 -179l-43 -211q-16 -75 -16 -135z" />
<glyph unicode="c" horiz-adv-x="555" d="M74 186q0 59 15.5 130t43 143.5t69 140t90 120t109 84.5t123.5 32q49 0 77 -20t28 -54q0 -28 -14 -46t-37 -18q-35 0 -81 27t-73 27q-47 0 -90.5 -65t-71.5 -156t-44.5 -180.5t-16.5 -145.5q0 -71 31.5 -112.5t86.5 -41.5q46 0 102 35t105 96l27 -20q-73 -86 -156 -136.5 t-149 -50.5q-78 0 -126 58t-48 153z" />
<glyph unicode="d" horiz-adv-x="897" d="M129 219q0 118 48.5 236t117.5 199t143 131.5t127 50.5q76 0 127 -70l92 461q6 35 -12 35q-10 0 -47 -19l-84 -45l-18 29l223 123q54 28 76 28q13 0 14 -18v-6q0 -15 -4 -29l-240 -1180q-9 -53 10 -53q13 0 47 36.5t68 88.5l27 -18q-57 -89 -133 -156.5t-119 -67.5 q-42 0 -42 64q0 26 7 63l39 189l-4 4q-100 -139 -199.5 -229.5t-146.5 -90.5q-51 0 -84 69t-33 175zM256 231q0 -72 20 -114.5t52 -42.5q35 0 117.5 89t166.5 216l58 278q-47 119 -133 119q-58 0 -124.5 -84t-111.5 -213t-45 -248z" />
<glyph unicode="e" horiz-adv-x="704" d="M100 254q0 97 35.5 200t94.5 188t144 139.5t177 54.5q80 0 123 -35t43 -99q0 -192 -467 -329q-17 -66 -17 -122q1 -59 19 -107q36 -94 137 -93q92 0 236 109l18 -29q-92 -72 -183.5 -114t-156.5 -42q-86 0 -144.5 80t-58.5 199zM258 412q99 26 169.5 59t98.5 61 q72 72 72 173q0 88 -76 88q-176 0 -264 -381z" />
<glyph unicode="f" horiz-adv-x="468" d="M-385 -383q0 24 20.5 42.5t47.5 18.5q38 0 96.5 -45t97.5 -45q65 0 125 60q21 21 40 56.5t33 80t26 88t21 92.5t14.5 81t10.5 66.5t5 37.5l104 593h-141l6 39q71 9 149 27q57 309 207 459q53 53 117 81.5t125 28.5q60 0 102.5 -29t42.5 -69q0 -25 -16 -42t-41 -17 q-35 0 -94.5 42t-87.5 42q-59 0 -105.5 -61.5t-68.5 -164.5l-56 -268h176l-20 -68h-168l-104 -598q-23 -133 -65 -240.5t-92 -177.5t-110.5 -117t-119.5 -67t-119 -20q-64 0 -111 28t-47 66z" />
<glyph unicode="g" horiz-adv-x="768" d="M-164 -315q0 29 27 62t79 67t90.5 56t101.5 53.5l71 35.5q-25 28 -25 59q0 57 96 113q-78 37 -122.5 109t-44.5 159q0 62 35.5 137.5t94 142.5t144 112t174.5 45q79 0 240 -17v-94l-117 12q43 -91 43 -174q0 -154 -102 -256q-55 -55 -123 -97t-114 -59.5t-78 -37 t-32 -39.5q0 -26 39.5 -61t96 -71t113.5 -73.5t96.5 -79.5t39.5 -78q0 -81 -125.5 -134.5t-312.5 -53.5q-179 0 -282 47.5t-103 114.5zM-41 -297q0 -58 70 -102.5t200 -44.5q131 0 224.5 30t93.5 76q0 29 -39 59.5t-125 88t-156 120.5q-134 -59 -201 -118.5t-67 -108.5z M240 381q0 -81 37.5 -136t91.5 -55q53 0 104.5 57t83 149t31.5 188q0 88 -33.5 143t-89.5 55q-54 0 -99.5 -50t-71.5 -119t-40 -132t-14 -100z" />
<glyph unicode="h" horiz-adv-x="937" d="M106 20l248 1217q6 23 -14 23q-12 0 -43 -15l-55 -28l-19 30l223 121q18 10 31 10q32 0 23 -47l-187 -919l4 -4q43 58 87 112.5t98 113.5t101.5 102.5t94 71.5t80.5 28q35 0 56.5 -32.5t21.5 -86.5q0 -47 -20 -129l-117 -451q-13 -55 10 -55q38 0 160 137l22 -20 q-74 -96 -151.5 -160t-120.5 -64q-25 0 -39 21t-14 59q0 51 16 121l107 412q16 59 16 112q0 43 -31 43q-51 0 -177.5 -139t-219.5 -276l-64 -312q-8 -41 -38 -41h-58q-25 1 -31 9q-3 4 -2 14q0 9 2 22z" />
<glyph unicode="i" horiz-adv-x="491" d="M115 637q69 81 138.5 140t106.5 59q28 0 36 -24q4 -10 4 -29q0 -27 -7 -72l-114 -561q-7 -32 -6 -50t18 -18q25 0 129 125l26 -23q-177 -209 -253 -209q-26 0 -41 19t-15 53q0 32 8 78l115 561q6 29 -8 29q-19 0 -43 -27l-74 -76zM354 1118q0 60 30 108t67 48 q23 0 38 -18.5t15 -47.5q0 -56 -26 -104.5t-72 -48.5q-24 0 -38 16.5t-14 46.5z" />
<glyph unicode="j" horiz-adv-x="491" d="M-287 -385q0 26 17.5 42.5t42.5 16.5q23 0 46 -14t39.5 -30t41 -30t49.5 -14q35 0 63 23t50 71t39 108t34 146l150 740q6 31 -15 31t-69 -48l-58 -57l-24 21q89 102 160.5 158.5t107.5 56.5q40 0 40 -64q0 -30 -9 -76l-129 -637q-29 -140 -87.5 -259t-149.5 -198 t-195 -79q-69 0 -106.5 25t-37.5 67zM377 1118q0 60 29.5 108t66.5 48q23 0 38 -18.5t15 -47.5q0 -56 -26 -104.5t-72 -48.5q-24 0 -37.5 16.5t-13.5 46.5z" />
<glyph unicode="k" horiz-adv-x="937" d="M111 2l249 1233q4 15 2.5 21t-12.5 6q-17 0 -61 -25l-33 -16l-16 28l200 111q32 18 49 18q12 0 17.5 -11.5t1.5 -31.5l-168 -825l4 -4q120 116 263 223t196 107q46 0 81.5 -49.5t35.5 -112.5q0 -131 -123 -202t-342 -77q47 -38 91 -93.5t71 -95.5t75.5 -76.5t112.5 -49.5 l94 90l23 -23l-174 -172q-48 0 -85.5 19.5t-84.5 66.5q-41 41 -119.5 157t-141.5 175l-81 -391q-3 -15 -11.5 -21t-29.5 -6h-58q-17 0 -23 6q-4 4 -4 12q0 4 1 9zM324 426h88q90 0 160.5 16.5t112 41.5t68.5 58t36.5 63.5t9.5 60.5q0 34 -19.5 56.5t-48.5 22.5 q-48 0 -168 -92t-235 -207z" />
<glyph unicode="l" horiz-adv-x="468" d="M131 68q0 31 8 71l219 1082q8 41 -12 41q-11 0 -121 -58l-16 31l197 111q5 3 16.5 9.5t15.5 8t12.5 5.5t13 5.5t11.5 2.5t14 1q21 0 21 -31q0 -13 -4 -30l-246 -1202q-3 -17 -3 -29q0 -31 22 -31q32 0 141 125l24 -22q-74 -87 -138 -135t-107 -48q-32 0 -50 25t-18 68z " />
<glyph unicode="m" horiz-adv-x="1386" d="M117 616q77 96 149 158t107 62q17 0 26.5 -17t3.5 -49l-81 -397l4 -4q113 192 254 329.5t213 137.5q55 0 55 -88q0 -34 -23 -156l-41 -201l4 -4q109 179 251 314t206 135q27 0 41 -25t14 -66q-2 -40 -10 -79l-110 -553q-4 -25 6 -25q30 0 137 133l27 -20 q-65 -84 -140.5 -155t-119.5 -71q-49 0 -49 61q0 22 6 52l120 592q12 55 -6 55q-15 0 -55 -28t-78 -66q-42 -42 -94.5 -104.5t-111.5 -156t-72 -159.5l-43 -211q-4 -25 -9 -30t-22 -5h-74q-28 0 -22 31l139 684q3 18 3.5 27t-4.5 14.5t-16 5.5q-33 0 -106 -73 q-89 -89 -187.5 -223t-117.5 -226l-43 -211q-7 -29 -29 -29h-63q-24 0 -31 9t-2 32l129 631q9 47 -6 47q-24 0 -109 -102z" />
<glyph unicode="n" horiz-adv-x="960" d="M113 584q60 90 141.5 171t118.5 81q17 0 28.5 -18t4.5 -54l-74 -367h4q145 193 271.5 316t195.5 123q40 0 61 -34q19 -32 20 -78q0 -4 -1 -9q0 -48 -17 -117l-127 -477q-5 -21 -5 -35q0 -25 18 -25q30 0 172 170l22 -18q-50 -79 -140 -158.5t-142 -79.5q-37 -1 -52 39 q-7 19 -7 44q0 29 9 67l136 526q6 24 6 41q0 16 -6 27q-10 22 -31 22q-36 0 -113 -77q-100 -100 -289 -340l-63 -314q-6 -35 -35 -35h-63q-20 0 -26.5 8.5t-2.5 30.5l129 625q9 47 -8 47q-25 0 -109 -123z" />
<glyph unicode="o" horiz-adv-x="811" d="M106 299q0 94 38 182.5t95.5 150.5t124 109.5t125 71t97.5 23.5q24 0 54 -17t60.5 -50.5t51 -95t20.5 -138.5q0 -93 -29 -176.5t-75 -142.5t-101 -106.5t-110 -76t-98.5 -43.5t-69.5 -15q-72 0 -127.5 98.5t-55.5 225.5zM238 307q0 -121 43 -188.5t100 -67.5q77 0 139 76 t91.5 178t29.5 201q0 107 -46 180.5t-114 73.5q-62 0 -119.5 -70.5t-90.5 -175.5t-33 -207z" />
<glyph unicode="p" horiz-adv-x="897" d="M-133 -477l8 37q59 3 90.5 10.5t55.5 30.5t36.5 59t26.5 104l172 848q5 25 7.5 39.5t3 26.5t-2 17t-8.5 5q-33 0 -147 -143l-27 25q84 107 168 180.5t123 73.5q35 0 35 -58q0 -52 -15 -121l-31 -145l5 -4q89 129 197 228.5t161 99.5q51 0 94 -93.5t43 -203.5 q0 -140 -70 -271.5t-184.5 -212t-236.5 -80.5q-58 0 -113 19l-57 -275q-9 -43 -9 -73v-18q4 -35 41.5 -51.5t122.5 -16.5l-8 -37h-481zM274 76q59 -51 132 -51q83 0 159 71t122 188t46 244q0 87 -26 146t-66 59q-33 0 -121.5 -92.5t-173.5 -210.5z" />
<glyph unicode="q" horiz-adv-x="854" d="M94 207q0 98 55 209t144.5 204t216 154.5t256.5 61.5q32 0 42 -8q6 -6 6 -20q0 -6 -1 -13l-217 -1076q-9 -43 -9 -73q0 -9 1 -18q3 -35 41 -51.5t123 -16.5l-11 -37h-481l8 37q59 3 90.5 10.5t56.5 30.5t37.5 59t26.5 104l101 492l-5 4q-106 -116 -213.5 -200.5 t-146.5 -84.5q-51 0 -86 68.5t-35 163.5zM225 238q0 -158 72 -158q58 0 295 248l82 401q-110 -4 -177 -27.5t-118 -74.5q-81 -81 -117.5 -191t-36.5 -198z" />
<glyph unicode="r" horiz-adv-x="555" d="M102 614q97 115 151 168.5t85 53.5q45 0 45 -66q0 -56 -35 -219.5t-74 -280.5q-9 -26 0 -31q5 -3 13 13q3 6 6 14l102 273q26 68 56.5 129t76 114.5t86.5 53.5q24 0 38 -18t14 -46q0 -34 -17 -65t-47 -31q-4 0 -20 3t-27 3q-59 0 -143 -201q-95 -234 -119 -325l-37 -154 q-6 -27 -37 -27h-63q-28 0 -21 31l111 621q7 29 5 50t-20 21q-7 0 -15 -4.5t-18.5 -16t-19 -22t-25 -31t-28.5 -34.5z" />
<glyph unicode="s" horiz-adv-x="618" d="M31 68q0 28 17.5 44.5t45.5 16.5q30 0 66 -22.5t75.5 -45t79.5 -22.5q47 0 81 31t34 75q0 39 -24.5 83t-60 84t-71 80.5t-60 86t-24.5 86.5q0 59 44.5 123t112 106t130.5 42q50 0 86.5 -33.5t36.5 -79.5q0 -28 -15.5 -47t-39.5 -19q-21 0 -37 18.5t-25 40t-28.5 40 t-46.5 18.5q-43 0 -83 -45t-40 -92q0 -35 23 -73.5t56 -74.5t66.5 -74.5t56.5 -86.5t23 -97q0 -118 -87.5 -187t-236.5 -69q-73 0 -114 25t-41 68z" />
<glyph unicode="t" horiz-adv-x="532" d="M150 57q0 45 16 127l113 559h-105l8 35q84 37 154.5 106.5t146.5 190.5h33q-64 -126 -94 -264h160l-17 -68h-159l-125 -618q-8 -40 -5.5 -57t19.5 -17q41 0 194 156l21 -27q-82 -88 -165.5 -146.5t-127.5 -58.5q-31 0 -49 22t-18 60z" />
<glyph unicode="u" horiz-adv-x="960" d="M117 606q63 94 134.5 162t110.5 68q23 0 32.5 -18t7.5 -48.5t-11 -79.5l-100 -495q-6 -27 -6 -50q0 -45 24 -45q28 0 127 99t192 227.5t107 202.5l33 168q4 22 16 30.5t35 8.5h45q25 0 31 -8.5t0 -36.5l-133 -652q-6 -24 14 -24q32 0 127 121l25 -23q-73 -92 -153 -165 t-111 -73q-39 0 -39 76q0 38 18 137l51 261h-6q-106 -150 -235 -279q-92 -92 -153 -143.5t-91 -51.5q-57 0 -57 113q0 42 16 127l84 414q4 20 5.5 32.5t1 20t-3 10t-7.5 2.5q-27 0 -107 -102z" />
<glyph unicode="v" horiz-adv-x="831" d="M82 608q64 86 142.5 157t111.5 71q45 0 45 -66q0 -39 -14 -125l-78 -473q-6 -35 -6 -57q0 -43 20 -43q16 0 62 34.5t106 96t115.5 134.5t94 162t38.5 167q0 10 -13.5 18.5t-27.5 23t-14 37.5q0 24 32.5 57.5t67.5 33.5q38 0 64 -36.5t26 -90.5q0 -82 -81 -212 t-187 -243.5t-213.5 -196t-157.5 -82.5q-49 0 -49 97q0 91 14 182l64 387q4 26 -1.5 40.5t-15.5 14.5q-16 0 -43 -26.5t-78 -85.5z" />
<glyph unicode="w" horiz-adv-x="1236" d="M74 592q62 90 141 167t117 77q39 0 39 -62q0 -28 -11 -110l-71 -480q-10 -56 -10 -84q1 -4 1 -7q2 -27 23 -27q47 0 176.5 145.5t206.5 265.5l45 307q8 52 45 52h39q24 0 31.5 -16t1.5 -58l-92 -590q-8 -46 -8 -72q0 -8 1 -14q3 -26 21 -25q20 0 66.5 37.5t102 102 t107.5 139.5t86.5 162.5t34.5 159.5q0 28 -23.5 49t-23.5 39q0 31 29 58.5t61 27.5q36 0 61 -32.5t25 -78.5q0 -218 -323 -541q-209 -209 -295 -209q-23 0 -38 22t-15 56q0 57 12 131l33 207l-4 4q-134 -191 -252 -305.5t-193 -114.5q-29 0 -45 23t-16 63q0 66 12 156 l53 365q1 10 3.5 24.5t4 23t2.5 19.5t1 17.5t-1.5 12.5t-5.5 8.5t-10 2.5q-30 0 -119 -121z" />
<glyph unicode="x" horiz-adv-x="1003" d="M49 45q0 61 47 182h37q0 -112 68 -112q44 0 89 36.5t101 106.5l96 119l-104 262q-22 55 -37 74.5t-37 19.5q-29 0 -58.5 -32.5t-82.5 -122.5l-35 20q80 134 130.5 186t101.5 52q42 0 68.5 -30.5t62.5 -125.5l75 -197l111 148q74 100 130.5 152.5t105.5 52.5 q37 0 61.5 -29t24.5 -72q0 -37 -15 -96h-37q-2 38 -22.5 60t-55.5 22q-78 0 -172 -123l-114 -152l88 -225q29 -74 48.5 -102.5t41.5 -28.5q26 0 51 31t68 117l30 -17q-44 -100 -101 -173t-109 -73q-59 0 -95 88l-108 271l-92 -113q-107 -131 -178 -188.5t-123 -57.5 q-28 0 -44 19t-16 51z" />
<glyph unicode="y" horiz-adv-x="897" d="M41 -465l14 33q105 0 131 26q18 18 63 103t90.5 214t45.5 222q0 101 -24 248t-53 251.5t-44 104.5q-23 0 -50.5 -27.5t-92.5 -109.5l-25 16q75 107 136.5 163.5t99.5 56.5q32 0 69 -100.5t64.5 -283.5t28.5 -384h4q89 151 179.5 351.5t90.5 260.5q0 18 -16.5 36t-16.5 42 q0 31 24 54.5t56 23.5q37 0 59.5 -28.5t22.5 -72.5q0 -65 -48.5 -162t-110.5 -184.5t-132 -199.5t-102 -191l-84 -211q-12 -29 -31.5 -73.5t-30 -70t-10.5 -34.5q0 -24 27.5 -31.5t103.5 -9.5l-14 -33h-424z" />
<glyph unicode="z" horiz-adv-x="1024" d="M66 6q0 25 30 78.5t80 103.5q63 63 155.5 124.5t181 109t172.5 92.5t148.5 90.5t90.5 87.5l-4 4q-113 -61 -215 -61q-83 0 -191 53t-154 53q-43 0 -76.5 -22t-74.5 -78l-25 18q132 175 273 175q35 0 72.5 -11t60 -22t61.5 -33q39 -23 59 -33.5t52.5 -21.5t60.5 -11 q44 0 72 14t38.5 33.5t16.5 39t13.5 33.5t21.5 14q29 0 29 -31t-28.5 -78.5t-74.5 -93.5q-62 -62 -175.5 -134.5t-215.5 -126t-200.5 -114.5t-135.5 -104l4 -4q89 47 181 47q94 0 200 -60q3 -2 16.5 -9.5t17 -9t16 -8t17 -8.5t15.5 -7t17 -6.5t16 -5t17 -4.5t16 -2t18 -1 q88 0 158 106l29 -18q-136 -189 -258 -189q-27 0 -65 13.5t-61.5 25.5t-74.5 39q-140 76 -215 76q-58 0 -78.5 -20.5t-24.5 -55.5q0 -4 -1 -16t-2 -17t-3 -14t-5 -13t-8 -9t-13 -7t-19 -2t-19.5 9t-8.5 22z" />
<glyph unicode="{" horiz-adv-x="811" d="M250 432v37q100 19 163.5 76t63.5 129q0 45 -24 147q-23 102 -23 172q0 138 108 254t269 131v-37q-106 -10 -169 -81t-63 -156q0 -69 19 -162q20 -98 20 -160q0 -100 -77 -194.5t-207 -134.5v-4q130 -40 207 -135t77 -195q0 -60 -20 -158q-19 -93 -19 -164q0 -85 63 -156 t169 -81v-37q-161 15 -269 131t-108 254q0 74 23 172q24 106 24 147q0 72 -63.5 129t-163.5 76z" />
<glyph unicode="|" horiz-adv-x="1044" d="M596 -477v1782h88v-1782h-88z" />
<glyph unicode="}" horiz-adv-x="811" d="M252 -440q106 10 168.5 81t62.5 156q0 76 -18 164q-21 103 -21 158q0 100 77.5 195t207.5 135v4q-130 40 -207.5 134.5t-77.5 194.5q0 57 21 160q18 88 18 162q0 85 -62.5 156t-168.5 81v37q161 -15 269 -131t108 -254q0 -70 -23 -172q-24 -102 -24 -147q0 -72 63.5 -129 t163.5 -76v-37q-100 -19 -163.5 -76t-63.5 -129q0 -41 24 -147q23 -98 23 -172q0 -138 -108 -254t-269 -131v37z" />
<glyph unicode="~" horiz-adv-x="1110" d="M133 487q3 151 73 228.5t191 77.5q38 0 93.5 -15.5t89.5 -29t114 -46.5q75 -32 113.5 -47t92.5 -31t89 -16q71 0 116 49.5t52 135.5h57q-6 -149 -75 -227.5t-189 -78.5q-43 0 -100 15t-99 31.5t-108 44.5q-79 34 -109 46t-84 28t-88 16q-71 0 -113 -44.5t-59 -136.5h-57z " />
<glyph unicode="&#xa1;" horiz-adv-x="598" d="M122 -459q-10 18 1 53l254 895h39l-129 -923q-5 -43 -47 -43h-72q-36 0 -46 18zM356 733q0 49 27 84t74 35q40 0 59 -28t19 -64q0 -48 -26 -82.5t-73 -34.5q-38 0 -59 25t-21 65z" />
<glyph unicode="&#xa2;" horiz-adv-x="555" d="M74 188q0 85 30 188.5t82 196.5q49 88 98 139t124 95l100 518h47l-96 -498q24 7 35 7q10 2 28 2q51 0 79 -19.5t28 -54.5q0 -28 -15 -46t-39 -18q-22 0 -61 17l-33 18l-37 17l-135 -699h13q44 0 99.5 35.5t106.5 95.5l27 -20q-62 -75 -160 -139q-45 -30 -102 -41 l-82 -441h-45l82 434q-81 4 -127.5 61.5t-46.5 151.5zM201 207q0 -102 65 -144l131 682q-46 -18 -88 -98q-48 -93 -78 -217.5t-30 -222.5z" />
<glyph unicode="&#xa3;" horiz-adv-x="1492" d="M100 -428q0 51 68.5 108t159.5 82q103 136 192 361h-274l10 51h285q328 836 571 1079q125 125 279 125q74 0 124 -33.5t50 -82.5q0 -28 -20 -47t-50 -19t-50.5 18t-31.5 39.5t-36 39.5t-62 18q-26 0 -62 -15.5t-65 -44.5q-64 -64 -146 -240t-190.5 -427t-196.5 -410h340 l-10 -51h-356q-124 -221 -223 -338l4 -4q65 16 139 16q79 0 148 -20t118.5 -48t95.5 -56t100 -48t111 -20q64 0 109 42t45 101q0 47 -25.5 92.5t-25.5 73.5t17 48t40 20q40 0 65 -37t25 -95q0 -129 -98 -228t-225 -99q-68 0 -129 17.5t-104 43t-93.5 55t-96 54t-112 39 t-141.5 10.5q-159 -219 -223 -219q-20 0 -35 14.5t-15 34.5z" />
<glyph unicode="&#xa4;" horiz-adv-x="1366" d="M215 250l125 123q-55 76 -77.5 139t-22.5 143t22.5 144.5t77.5 138.5l-125 123l61 63l125 -123q76 55 139.5 77t143.5 22t143 -22t140 -79l125 125l61 -63l-125 -123q55 -75 77.5 -138t22.5 -145q0 -78 -22.5 -141t-77.5 -139l125 -125l-61 -62l-125 125 q-76 -57 -139.5 -79.5t-143.5 -22.5q-79 0 -143.5 23t-139.5 77l-125 -123zM328 655q0 -147 104.5 -251.5t251.5 -104.5q146 0 251 105t105 251q0 147 -105 252t-251 105q-148 0 -252 -104.5t-104 -252.5z" />
<glyph unicode="&#xa5;" horiz-adv-x="1024" d="M37 479l12 68h465l-145 321h-285l12 68h242l-70 151q-37 81 -69 114.5t-93 33.5l7 39h426l-7 -39q-91 -6 -109.5 -44t21.5 -116l66 -139h471l121 139q37 43 43 78t-25.5 57.5t-99.5 24.5l8 39h350l-6 -39q-52 -19 -87.5 -47t-90.5 -90l-141 -162h239l-12 -68h-287 l-280 -321h530l-10 -68h-551l-59 -293q-28 -147 139 -147h53l-8 -39h-584l8 39h37q89 0 134 36t59 111l57 293h-481zM541 868l135 -286l248 286h-383z" />
<glyph unicode="&#xa6;" horiz-adv-x="1044" d="M596 279h88v-756h-88v756zM596 549v756h88v-756h-88z" />
<glyph unicode="&#xa7;" horiz-adv-x="980" d="M-74 -381q0 33 21.5 62.5t46.5 29.5q27 0 68.5 -26.5t90 -53t93.5 -26.5q57 0 101.5 31.5t69.5 80t37.5 99t12.5 96.5q0 78 -24 158t-58.5 148t-69 137.5t-58.5 153t-24 167.5q0 169 98 333t254.5 266.5t317.5 102.5q75 0 132 -27.5t57 -64.5q0 -40 -21 -69t-49 -29 q-25 0 -54.5 17t-53.5 38t-63 38t-83 17q-75 0 -124.5 -71t-49.5 -183q0 -101 36 -216t78.5 -202.5t78.5 -201t36 -211.5q0 -115 -48 -225t-125.5 -192t-171 -145t-188.5 -95.5t-175 -32.5q-83 0 -136 27.5t-53 68.5zM324 694q0 -82 23 -164t56 -149.5t65.5 -133.5 t55.5 -142t23 -150q0 -112 -45 -197l4 -4q231 182 231 445q0 79 -23 162t-55.5 155.5t-65.5 146t-56 162t-23 176.5q0 67 23 146l-5 4q-208 -231 -208 -457z" />
<glyph unicode="&#xa8;" d="M281 1073q0 31 22 53.5t53 22.5t53.5 -22.5t22.5 -53.5t-22.5 -53.5t-53.5 -22.5t-53 22.5t-22 53.5zM606 1073q0 31 22.5 53.5t53.5 22.5t53.5 -22.5t22.5 -53.5t-22.5 -53.5t-53.5 -22.5t-53.5 22.5t-22.5 53.5z" />
<glyph unicode="&#xa9;" horiz-adv-x="1556" d="M70 678q0 144 56 275t151 226t226 151t275 56t275.5 -56t226.5 -151t151 -226t56 -275q0 -115 -36 -223.5t-101.5 -195.5t-152.5 -152.5t-195.5 -101.5t-223.5 -36q-144 0 -275 56t-226 151t-151 226.5t-56 275.5zM131 678q0 -176 86.5 -325t235.5 -235.5t325 -86.5 t325 86.5t235.5 235.5t86.5 325t-86.5 325t-235.5 235.5t-325 86.5t-325 -86.5t-235.5 -235.5t-86.5 -325zM317 672q0 197 143 330t355 133q55 0 101.5 -11.5t77 -22.5t46.5 -11q34 0 47 45h39l21 -281h-39q-71 238 -303 238q-148 0 -235 -105.5t-87 -284.5q0 -213 92 -313 t240 -100q195 0 311 162l39 -19q-139 -203 -385 -203q-196 0 -329.5 127.5t-133.5 315.5z" />
<glyph unicode="&#xaa;" horiz-adv-x="532" d="M186 987q0 91 65 182.5t167 150t203 58.5h30l13 -2l-80 -362l-9 -37q-4 -18 -4 -29q0 -6 4 -6l5 4l20 17q16 14 43 41l19 20v-55q-102 -111 -150 -111q-47 0 -47 64q0 23 10 77l-4 5q-149 -146 -197 -146q-35 0 -61.5 38.5t-26.5 90.5zM291 1014q0 -30 9 -56t19 -26 q25 0 164 133l9 6l51 234q-86 -11 -133 -43q-52 -34 -85.5 -104t-33.5 -144z" />
<glyph unicode="&#xab;" horiz-adv-x="897" d="M197 449l393 378h41l-293 -378l123 -377h-47zM543 449l317 333h41l-217 -333l61 -330h-47z" />
<glyph unicode="&#xac;" horiz-adv-x="1366" d="M264 856v90h1075v-577h-92v487h-983z" />
<glyph unicode="&#xad;" d="M127 342l27 127h460l-26 -127h-461z" />
<glyph unicode="&#xae;" horiz-adv-x="1556" d="M70 678q0 144 56 275t151 226t226 151t275 56t275.5 -56t226.5 -151t151 -226t56 -275q0 -115 -36 -223.5t-101.5 -195.5t-152.5 -152.5t-195.5 -101.5t-223.5 -36q-144 0 -275 56t-226 151t-151 226.5t-56 275.5zM131 678q0 -176 86.5 -325t235.5 -235.5t325 -86.5 t325 86.5t235.5 235.5t86.5 325t-86.5 325t-235.5 235.5t-325 86.5t-325 -86.5t-235.5 -235.5t-86.5 -325zM373 248v33q55 0 79.5 22t24.5 66v622q0 44 -19 65t-73 21v37h385q135 0 217 -62t82 -163q0 -166 -223 -221l209 -299q33 -49 58.5 -67t62.5 -21v-33h-185l-295 405 h-73v-295q0 -42 25 -59.5t91 -17.5v-33h-366zM623 696h39q104 0 174.5 45.5t70.5 137.5q0 82 -57 136t-145 54q-33 0 -82 -14v-359z" />
<glyph unicode="&#xaf;" d="M236 1104l14 98h579l-14 -98h-579z" />
<glyph unicode="&#xb0;" horiz-adv-x="811" d="M258 1001q0 128 90 218t217 90t217 -90t90 -218q0 -127 -90 -217t-217 -90t-217 90t-90 217zM342 1001q0 -92 65.5 -157.5t157.5 -65.5t157.5 65.5t65.5 157.5t-65.5 158t-157.5 66t-157.5 -66t-65.5 -158z" />
<glyph unicode="&#xb1;" horiz-adv-x="1366" d="M264 -37v90h1075v-90h-1075zM264 772v90h492v492h90v-492h493v-90h-493v-493h-90v493h-492z" />
<glyph unicode="&#xb2;" horiz-adv-x="641" d="M213 842v22l113 94q143 122 220 204t97.5 124.5t20.5 85.5q0 12 -4 25t-14.5 29t-34.5 26t-58 10q-42 0 -76 -15.5t-53.5 -40t-29 -41t-15.5 -32.5h-47q18 89 85.5 138t157.5 49q87 0 148 -41t61 -113q0 -39 -27 -83.5t-108 -115.5q-62 -52 -241 -190l-64 -53h264 q26 0 33 9.5t18 53.5h48l-31 -145h-463z" />
<glyph unicode="&#xb3;" horiz-adv-x="641" d="M219 872q0 16 14 29.5t33 13.5q17 0 58 -18q52 -18 75 -18q73 0 135 75t62 156q0 45 -25.5 71.5t-66.5 26.5q-28 0 -117 -39l10 43q45 23 73.5 38.5t72 43t66 55t22.5 52.5q0 30 -23 48.5t-55 18.5q-28 0 -55.5 -13.5t-41 -26.5t-36.5 -37l-31 24q38 54 92 79.5t107 25.5 q70 0 113.5 -31.5t43.5 -75.5q0 -41 -35 -75.5t-120 -69.5q57 -6 92 -39.5t35 -87.5q0 -81 -63.5 -156t-154 -117.5t-175.5 -42.5q-47 0 -76 13.5t-29 33.5z" />
<glyph unicode="&#xb4;" d="M369 918l211 444h145l-319 -444h-37z" />
<glyph unicode="&#xb5;" horiz-adv-x="1024" d="M31 -358q0 61 78 198q60 117 90 293l14 84l104 594h127l-77 -438l-2 -13q-2 -13 -5.5 -33.5t-6.5 -44.5t-5 -50t-2 -46q0 -44 33 -79t90 -35q72 0 167.5 98t117.5 223l75 418h127l-92 -506q-22 -132 -22 -160q0 -42 9 -57.5t38 -15.5q34 0 71 34.5t68 110.5h37 q-18 -73 -50 -125t-65 -75t-57 -32.5t-41 -9.5q-58 0 -94.5 43t-36.5 111l4 72l-4 4q-43 -67 -91.5 -115.5t-91.5 -71.5t-75.5 -33t-56.5 -10q-60 0 -96.5 25.5t-65.5 85.5q-12 -37 -19 -63t-10.5 -58.5t-5 -54t-3.5 -77.5t-5 -103q-11 -168 -109 -168q-61 0 -61 80z" />
<glyph unicode="&#xb6;" horiz-adv-x="917" d="M119 897q0 177 119 277t331 100h494v-55h-131v-1696h-74v1696h-186v-1696h-74v995q-243 0 -361 101t-118 278z" />
<glyph unicode="&#xb7;" horiz-adv-x="598" d="M322 635q0 43 29.5 72.5t72.5 29.5t72.5 -29.5t29.5 -72.5t-29.5 -73t-72.5 -30t-72.5 30t-29.5 73z" />
<glyph unicode="&#xb8;" d="M90 -387l6 33q106 -7 163.5 27.5t57.5 95.5q0 76 -102 79l72 142h32l-22 -45q51 -1 84 -39.5t33 -95.5q0 -102 -87.5 -154t-236.5 -43z" />
<glyph unicode="&#xb9;" horiz-adv-x="641" d="M326 842l8 26h47q19 0 29.5 2t17.5 12t9.5 17.5t8.5 30.5l109 465q-70 -43 -109 -61.5t-96 -35.5l10 43q171 63 271 179h65l-139 -588q-9 -40 8 -50.5t80 -13.5l-6 -26h-313z" />
<glyph unicode="&#xba;" horiz-adv-x="532" d="M221 1057q0 67 40.5 134.5t111.5 117.5q99 69 168 69q54 0 92.5 -54.5t38.5 -129.5q0 -166 -164 -274q-96 -62 -158 -62q-52 0 -90.5 59.5t-38.5 139.5zM330 1061q0 -62 23 -104t57 -42q58 0 105.5 81.5t47.5 181.5q0 60 -26 101.5t-64 41.5q-34 0 -70 -39 q-73 -82 -73 -221z" />
<glyph unicode="&#xbb;" horiz-adv-x="897" d="M133 117l217 334l-61 329h47l156 -329l-318 -334h-41zM403 72l293 379l-123 376h48l217 -376l-394 -379h-41z" />
<glyph unicode="&#xbc;" horiz-adv-x="1685" d="M217 -55l1272 1394h90l-1272 -1394h-90zM287 627l6 28h47q34 0 45.5 10t20.5 50l110 465q-74 -45 -111.5 -62.5t-95.5 -34.5l10 43q161 56 271 179h65l-139 -590q-9 -39 9 -49.5t79 -10.5l-6 -28h-311zM975 199v43l457 436h51l-99 -412h113l-14 -67h-111l-51 -213h-113 l52 213h-285zM1067 266h209l61 254l-4 4z" />
<glyph unicode="&#xbd;" horiz-adv-x="1685" d="M217 -55l1272 1394h90l-1272 -1394h-90zM287 627l6 28h47q34 0 45.5 10t20.5 50l110 465q-74 -45 -111.5 -62.5t-95.5 -34.5l10 43q161 56 271 179h65l-139 -590q-9 -39 9 -49.5t79 -10.5l-6 -28h-311zM1034 0l4 23q234 202 298 264q134 132 147 218q2 12 2 23 q0 41 -30 65.5t-81 24.5q-122 0 -174 -126h-45q17 85 83 135.5t161 50.5q92 0 149.5 -43t57.5 -111q0 -37 -18 -72t-62 -76t-88 -76t-126 -99t-147 -119h265q25 0 33 8t14 37l4 18h47l-29 -145h-465z" />
<glyph unicode="&#xbe;" horiz-adv-x="1685" d="M225 659q0 16 14.5 28.5t39.5 12.5q16 0 55.5 -18t71.5 -18q72 0 133 73.5t61 159.5q0 43 -25 69.5t-65 26.5q-20 0 -40 -7t-75 -32l8 43q126 64 180 108.5t54 82.5q0 29 -22 48t-56 19q-36 0 -65 -17t-68 -62l-31 22q72 107 197 107q69 0 114.5 -31t45.5 -78 q0 -41 -37 -74t-119 -65v-4q59 -8 93 -41.5t34 -87.5q0 -73 -58.5 -146t-150.5 -119.5t-184 -46.5q-49 0 -77 14t-28 33zM242 -55l1271 1394h91l-1272 -1394h-90zM999 199v43l457 436h51l-98 -412h113l-15 -67h-110l-51 -213h-113l51 213h-285zM1090 266h208l62 254l-4 4z " />
<glyph unicode="&#xbf;" horiz-adv-x="811" d="M113 -164q0 101 25 172.5t67.5 111.5t84.5 64.5t90.5 49.5t72.5 49q66 66 98 209h39q-17 -154 -42.5 -237t-64.5 -122q-23 -23 -65.5 -48.5t-81.5 -47t-76 -49t-59.5 -67t-22.5 -87.5q0 -69 51 -115.5t129 -46.5q47 0 102.5 15.5t67.5 15.5q22 0 37 -22t15 -54 q0 -45 -56.5 -74.5t-126.5 -29.5q-127 0 -205.5 86.5t-78.5 226.5zM535 733q0 49 26.5 84t73.5 35q40 0 59 -28t19 -64q0 -48 -26 -82.5t-73 -34.5q-38 0 -58.5 25t-20.5 65z" />
<glyph unicode="&#xc0;" horiz-adv-x="1429" d="M-16 0l8 39q73 6 128.5 50.5t125.5 135.5l829 1080h115v-1147q0 -64 37.5 -91.5t134.5 -27.5l-8 -39h-545l8 39q118 0 165.5 35t47.5 116v365h-461l-268 -346q-42 -55 -38 -92.5t40 -57.5t94 -20h39l-8 -39h-444zM627 629h403v532h-4zM989 1827h146l211 -445h-37z" />
<glyph unicode="&#xc1;" horiz-adv-x="1429" d="M-16 0l8 39q73 6 128.5 50.5t125.5 135.5l829 1080h115v-1147q0 -64 37.5 -91.5t134.5 -27.5l-8 -39h-545l8 39q118 0 165.5 35t47.5 116v365h-461l-268 -346q-42 -55 -38 -92.5t40 -57.5t94 -20h39l-8 -39h-444zM627 629h403v532h-4zM1044 1399l211 444h146l-320 -444 h-37z" />
<glyph unicode="&#xc2;" horiz-adv-x="1429" d="M-16 0l8 39q73 6 128.5 50.5t125.5 135.5l829 1080h115v-1147q0 -64 37.5 -91.5t134.5 -27.5l-8 -39h-545l8 39q118 0 165.5 35t47.5 116v365h-461l-268 -346q-42 -55 -38 -92.5t40 -57.5t94 -20h39l-8 -39h-444zM627 629h403v532h-4zM930 1380l338 447h112v-447h-47 l-65 287l-291 -287h-47z" />
<glyph unicode="&#xc3;" horiz-adv-x="1429" d="M-16 0l8 39q73 6 128.5 50.5t125.5 135.5l829 1080h115v-1147q0 -64 37.5 -91.5t134.5 -27.5l-8 -39h-545l8 39q118 0 165.5 35t47.5 116v365h-461l-268 -346q-42 -55 -38 -92.5t40 -57.5t94 -20h39l-8 -39h-444zM627 629h403v532h-4zM893 1507q6 95 51 146q44 53 117 53 q66 0 162 -61q33 -22 48.5 -31.5t42.5 -20t50 -10.5q46 0 72.5 31.5t27.5 89.5h27q0 -90 -44 -143.5t-118 -53.5q-70 0 -172 62q-37 22 -52 31t-42 19.5t-47 10.5q-43 0 -66 -28.5t-30 -94.5h-27z" />
<glyph unicode="&#xc4;" horiz-adv-x="1429" d="M-16 0l8 39q73 6 128.5 50.5t125.5 135.5l829 1080h115v-1147q0 -64 37.5 -91.5t134.5 -27.5l-8 -39h-545l8 39q118 0 165.5 35t47.5 116v365h-461l-268 -346q-42 -55 -38 -92.5t40 -57.5t94 -20h39l-8 -39h-444zM627 629h403v532h-4zM956 1546q0 31 22.5 53.5t53.5 22.5 t53.5 -22.5t22.5 -53.5t-22.5 -53.5t-53.5 -22.5t-53.5 22.5t-22.5 53.5zM1282 1546q0 31 22.5 53.5t53.5 22.5t53.5 -22.5t22.5 -53.5t-22.5 -53.5t-53.5 -22.5t-53.5 22.5t-22.5 53.5z" />
<glyph unicode="&#xc5;" horiz-adv-x="1429" d="M-16 0l8 39q73 6 128.5 50.5t125.5 135.5l829 1080h115v-1147q0 -64 37.5 -91.5t134.5 -27.5l-8 -39h-545l8 39q118 0 165.5 35t47.5 116v365h-461l-268 -346q-42 -55 -38 -92.5t40 -57.5t94 -20h39l-8 -39h-444zM627 629h403v532h-4zM981 1599q0 77 54 131t130 54 q77 0 131 -54t54 -131q0 -76 -54 -130t-131 -54t-130.5 53.5t-53.5 130.5zM1030 1599q0 -55 40 -95t95 -40t95 40t40 95q0 56 -40 96t-95 40t-95 -40t-40 -96z" />
<glyph unicode="&#xc6;" horiz-adv-x="1941" d="M-41 0l8 39q77 3 146.5 59.5t140.5 145.5l737 921q21 26 6.5 43.5t-63.5 20.5l-82 6l14 39h1098l-57 -283h-33q12 127 -42 179.5t-177 52.5h-383l-113 -553h402q85 0 130 28.5t78 108.5h37l-73 -361h-35q9 105 -35.5 138.5t-169.5 33.5h-344l-84 -409q-18 -86 14.5 -122 t145.5 -36h180q132 0 247.5 63t172.5 160h35l-88 -274h-1086l8 39q100 0 144.5 37t62.5 123l62 309h-433l-241 -303q-39 -50 -45 -86t29 -58t114 -22l-8 -39h-420zM571 559h402l135 664h-8z" />
<glyph unicode="&#xc7;" horiz-adv-x="1492" d="M221 547q0 210 118.5 384t324.5 274t454 100q255 0 449 -93l-78 -305h-39q25 152 -61.5 250t-286.5 98q-88 0 -182.5 -27.5t-187.5 -86.5t-166.5 -142.5t-119 -206.5t-45.5 -266q0 -233 123 -371.5t330 -138.5q157 0 294.5 80.5t235.5 229.5h41l-106 -326h-14 q-36 16 -72 16q-21 0 -159 -24.5t-238 -24.5h-31l-17 -33q51 -1 84 -39.5t33 -95.5q0 -102 -87 -153.5t-236 -42.5l6 32q106 -7 163.5 27.5t57.5 95.5q0 77 -102 80l67 133q-134 10 -242 62.5t-174.5 132.5t-101.5 177.5t-35 203.5z" />
<glyph unicode="&#xc8;" horiz-adv-x="1280" d="M59 0l9 39q99 0 143.5 37t62.5 123l179 880q15 76 -12 116t-111 40h-51l8 39h1050l-57 -283h-33q12 127 -42 179.5t-177 52.5h-383l-113 -553h402q85 0 130.5 28.5t78.5 108.5h37l-74 -361h-35q9 105 -35.5 138.5t-169.5 33.5h-344l-84 -409q-18 -87 14.5 -122.5 t145.5 -35.5h180q132 0 247.5 63t172.5 160h35l-88 -274h-1086zM733 1827h146l211 -445h-37z" />
<glyph unicode="&#xc9;" horiz-adv-x="1280" d="M59 0l9 39q99 0 143.5 37t62.5 123l179 880q15 76 -12 116t-111 40h-51l8 39h1050l-57 -283h-33q12 127 -42 179.5t-177 52.5h-383l-113 -553h402q85 0 130.5 28.5t78.5 108.5h37l-74 -361h-35q9 105 -35.5 138.5t-169.5 33.5h-344l-84 -409q-18 -87 14.5 -122.5 t145.5 -35.5h180q132 0 247.5 63t172.5 160h35l-88 -274h-1086zM788 1382l211 445h146l-320 -445h-37z" />
<glyph unicode="&#xca;" horiz-adv-x="1280" d="M59 0l9 39q99 0 143.5 37t62.5 123l179 880q15 76 -12 116t-111 40h-51l8 39h1050l-57 -283h-33q12 127 -42 179.5t-177 52.5h-383l-113 -553h402q85 0 130.5 28.5t78.5 108.5h37l-74 -361h-35q9 105 -35.5 138.5t-169.5 33.5h-344l-84 -409q-18 -87 14.5 -122.5 t145.5 -35.5h180q132 0 247.5 63t172.5 160h35l-88 -274h-1086zM674 1389l338 446h112v-446h-47l-65 286l-291 -286h-47z" />
<glyph unicode="&#xcb;" horiz-adv-x="1280" d="M59 0l9 39q99 0 143.5 37t62.5 123l179 880q15 76 -12 116t-111 40h-51l8 39h1050l-57 -283h-33q12 127 -42 179.5t-177 52.5h-383l-113 -553h402q85 0 130.5 28.5t78.5 108.5h37l-74 -361h-35q9 105 -35.5 138.5t-169.5 33.5h-344l-84 -409q-18 -87 14.5 -122.5 t145.5 -35.5h180q132 0 247.5 63t172.5 160h35l-88 -274h-1086zM700 1538q0 31 22.5 53.5t53.5 22.5t53.5 -22.5t22.5 -53.5t-22.5 -53.5t-53.5 -22.5t-53.5 22.5t-22.5 53.5zM1026 1538q0 31 22.5 53.5t53.5 22.5t53.5 -22.5t22.5 -53.5t-22.5 -53.5t-53.5 -22.5 t-53.5 22.5t-22.5 53.5z" />
<glyph unicode="&#xcc;" horiz-adv-x="661" d="M74 0l8 39q102 3 142.5 39.5t56.5 120.5l180 886q31 150 -123 150h-27l8 39h512l-8 -39h-16q-83 0 -124 -32.5t-56 -108.5l-181 -881q-20 -94 13.5 -134t120.5 -40h30l-8 -39h-528zM424 1827h145l211 -445h-37z" />
<glyph unicode="&#xcd;" horiz-adv-x="661" d="M74 0l8 39q102 3 142.5 39.5t56.5 120.5l180 886q31 150 -123 150h-27l8 39h512l-8 -39h-16q-83 0 -124 -32.5t-56 -108.5l-181 -881q-20 -94 13.5 -134t120.5 -40h30l-8 -39h-528zM479 1382l211 445h146l-320 -445h-37z" />
<glyph unicode="&#xce;" horiz-adv-x="661" d="M74 0l8 39q102 3 142.5 39.5t56.5 120.5l180 886q31 150 -123 150h-27l8 39h512l-8 -39h-16q-83 0 -124 -32.5t-56 -108.5l-181 -881q-20 -94 13.5 -134t120.5 -40h30l-8 -39h-528zM365 1389l337 446h113v-446h-47l-66 286l-290 -286h-47z" />
<glyph unicode="&#xcf;" horiz-adv-x="661" d="M74 0l8 39q102 3 142.5 39.5t56.5 120.5l180 886q31 150 -123 150h-27l8 39h512l-8 -39h-16q-83 0 -124 -32.5t-56 -108.5l-181 -881q-20 -94 13.5 -134t120.5 -40h30l-8 -39h-528zM391 1538q0 31 22.5 53.5t53.5 22.5t53.5 -22.5t22.5 -53.5t-22.5 -53.5t-53.5 -22.5 t-53.5 22.5t-22.5 53.5zM717 1538q0 31 22.5 53.5t53.5 22.5t53 -22.5t22 -53.5t-22 -53.5t-53 -22.5t-53.5 22.5t-22.5 53.5z" />
<glyph unicode="&#xd0;" horiz-adv-x="1556" d="M63 0l7 39q101 3 142 33.5t58 113.5l84 414h-209l15 74h209l84 405q17 81 -13 118.5t-108 37.5h-58l9 39h612q305 0 489.5 -155.5t184.5 -411.5q0 -100 -32 -199.5t-98.5 -191t-159 -162t-223 -112.5t-280.5 -42h-713zM446 248q-25 -120 16.5 -159.5t196.5 -39.5 q198 0 316 48t213 143q99 99 146.5 224t47.5 253q0 81 -20 153.5t-64 137.5t-109.5 112.5t-163 75t-216.5 27.5h-164l-113 -549h367l-14 -74h-367z" />
<glyph unicode="&#xd1;" horiz-adv-x="1579" d="M76 0l8 39q58 11 95.5 32.5t69.5 74t50 139.5l176 876q-24 36 -65.5 52.5t-112.5 21.5l8 39h275l763 -1073l166 815q23 110 -11 161t-152 58l8 39h415l-8 -39q-90 -13 -136.5 -64t-68.5 -155l-210 -1039h-48l-782 1123l-162 -813q-29 -130 -4 -181t142 -65l16 -2l-8 -39 h-424zM786 1499q6 94 52 146q44 53 116 53q64 0 162 -62q32 -21 48.5 -31t43 -20t49.5 -10q46 0 73 31.5t28 89.5h26q0 -91 -43.5 -144t-117.5 -53q-70 0 -172 62q-35 22 -52 31t-43.5 19.5t-46.5 10.5q-43 0 -66 -28.5t-30 -94.5h-27z" />
<glyph unicode="&#xd2;" horiz-adv-x="1622" d="M236 567q0 108 37 215.5t108 201t165 166t217.5 114t256.5 41.5q172 0 316 -79t226.5 -216.5t82.5 -302.5q0 -141 -59 -275t-161.5 -237t-252 -165.5t-318.5 -62.5q-134 0 -251 49.5t-196.5 132t-125 191.5t-45.5 227zM416 516q0 -229 119 -364.5t319 -135.5 q137 0 254 64t193.5 169.5t119.5 240t43 276.5q0 215 -122.5 352t-313.5 137q-95 0 -177.5 -27.5t-143.5 -73.5t-111.5 -107.5t-83 -129.5t-55 -140t-32 -137t-9.5 -124zM905 1827h146l211 -445h-37z" />
<glyph unicode="&#xd3;" horiz-adv-x="1622" d="M236 567q0 108 37 215.5t108 201t165 166t217.5 114t256.5 41.5q172 0 316 -79t226.5 -216.5t82.5 -302.5q0 -141 -59 -275t-161.5 -237t-252 -165.5t-318.5 -62.5q-134 0 -251 49.5t-196.5 132t-125 191.5t-45.5 227zM416 516q0 -229 119 -364.5t319 -135.5 q137 0 254 64t193.5 169.5t119.5 240t43 276.5q0 215 -122.5 352t-313.5 137q-95 0 -177.5 -27.5t-143.5 -73.5t-111.5 -107.5t-83 -129.5t-55 -140t-32 -137t-9.5 -124zM961 1399l210 444h146l-320 -444h-36z" />
<glyph unicode="&#xd4;" horiz-adv-x="1622" d="M236 567q0 108 37 215.5t108 201t165 166t217.5 114t256.5 41.5q172 0 316 -79t226.5 -216.5t82.5 -302.5q0 -141 -59 -275t-161.5 -237t-252 -165.5t-318.5 -62.5q-134 0 -251 49.5t-196.5 132t-125 191.5t-45.5 227zM416 516q0 -229 119 -364.5t319 -135.5 q137 0 254 64t193.5 169.5t119.5 240t43 276.5q0 215 -122.5 352t-313.5 137q-95 0 -177.5 -27.5t-143.5 -73.5t-111.5 -107.5t-83 -129.5t-55 -140t-32 -137t-9.5 -124zM846 1389l338 446h112v-446h-47l-65 286l-291 -286h-47z" />
<glyph unicode="&#xd5;" horiz-adv-x="1622" d="M236 567q0 108 37 215.5t108 201t165 166t217.5 114t256.5 41.5q172 0 316 -79t226.5 -216.5t82.5 -302.5q0 -141 -59 -275t-161.5 -237t-252 -165.5t-318.5 -62.5q-134 0 -251 49.5t-196.5 132t-125 191.5t-45.5 227zM416 516q0 -229 119 -364.5t319 -135.5 q137 0 254 64t193.5 169.5t119.5 240t43 276.5q0 215 -122.5 352t-313.5 137q-95 0 -177.5 -27.5t-143.5 -73.5t-111.5 -107.5t-83 -129.5t-55 -140t-32 -137t-9.5 -124zM809 1499q6 95 51 146q44 53 117 53q64 0 162 -62q32 -21 48.5 -31t43 -20t49.5 -10q46 0 72.5 31.5 t27.5 89.5h27q0 -90 -44 -143.5t-118 -53.5q-70 0 -172 62q-37 22 -52 31t-42 19.5t-47 10.5q-43 0 -66 -28.5t-30 -94.5h-27z" />
<glyph unicode="&#xd6;" horiz-adv-x="1622" d="M236 567q0 108 37 215.5t108 201t165 166t217.5 114t256.5 41.5q172 0 316 -79t226.5 -216.5t82.5 -302.5q0 -141 -59 -275t-161.5 -237t-252 -165.5t-318.5 -62.5q-134 0 -251 49.5t-196.5 132t-125 191.5t-45.5 227zM416 516q0 -229 119 -364.5t319 -135.5 q137 0 254 64t193.5 169.5t119.5 240t43 276.5q0 215 -122.5 352t-313.5 137q-95 0 -177.5 -27.5t-143.5 -73.5t-111.5 -107.5t-83 -129.5t-55 -140t-32 -137t-9.5 -124zM864 1538q0 31 22.5 53.5t53.5 22.5t53.5 -22.5t22.5 -53.5t-22.5 -53.5t-53.5 -22.5t-53.5 22.5 t-22.5 53.5zM1190 1538q0 31 22.5 53.5t53.5 22.5t53 -22.5t22 -53.5t-22 -53.5t-53 -22.5t-53.5 22.5t-22.5 53.5z" />
<glyph unicode="&#xd7;" horiz-adv-x="1366" d="M313 236l422 421l-422 422l66 66l422 -422l424 424l67 -68l-424 -424l422 -422l-65 -65l-424 424l-422 -422z" />
<glyph unicode="&#xd8;" horiz-adv-x="1622" d="M236 567q0 108 37 215.5t108 201t165 166t217.5 114t256.5 41.5q204 0 358 -107l129 148l39 -29l-129 -146q108 -85 168 -205t60 -259q0 -141 -59 -275t-161.5 -237t-252 -165.5t-318.5 -62.5q-220 0 -383 125l-172 -196l-37 28l174 199q-95 85 -147.5 201t-52.5 243z M416 516q0 -187 88 -317l819 938q-121 118 -295 118q-95 0 -177.5 -27.5t-143.5 -73.5t-111.5 -107.5t-83 -129.5t-55 -140t-32 -137t-9.5 -124zM530 160q119 -144 324 -144q137 0 254 64t193.5 169.5t119.5 240t43 276.5q0 203 -108 336z" />
<glyph unicode="&#xd9;" horiz-adv-x="1492" d="M240 1235l8 39h520l-8 -39q-91 0 -135.5 -31t-61.5 -112l-114 -566q-25 -131 -25 -196q0 -141 105.5 -227.5t277.5 -86.5q198 0 330.5 109t171.5 324l104 583q19 109 -29 156t-151 47l8 39h422l-8 -39q-79 -9 -125 -63.5t-66 -163.5l-102 -562q-45 -253 -197.5 -366 t-396.5 -113q-116 0 -208.5 28t-146.5 69.5t-89.5 96t-48.5 102t-13 91.5t25 178l110 549q15 75 -11.5 114.5t-111.5 39.5h-34zM840 1827h145l211 -445h-37z" />
<glyph unicode="&#xda;" horiz-adv-x="1492" d="M240 1235l8 39h520l-8 -39q-91 0 -135.5 -31t-61.5 -112l-114 -566q-25 -131 -25 -196q0 -141 105.5 -227.5t277.5 -86.5q198 0 330.5 109t171.5 324l104 583q19 109 -29 156t-151 47l8 39h422l-8 -39q-79 -9 -125 -63.5t-66 -163.5l-102 -562q-45 -253 -197.5 -366 t-396.5 -113q-116 0 -208.5 28t-146.5 69.5t-89.5 96t-48.5 102t-13 91.5t25 178l110 549q15 75 -11.5 114.5t-111.5 39.5h-34zM895 1382l211 445h145l-319 -445h-37z" />
<glyph unicode="&#xdb;" horiz-adv-x="1492" d="M240 1235l8 39h520l-8 -39q-91 0 -135.5 -31t-61.5 -112l-114 -566q-25 -131 -25 -196q0 -141 105.5 -227.5t277.5 -86.5q198 0 330.5 109t171.5 324l104 583q19 109 -29 156t-151 47l8 39h422l-8 -39q-79 -9 -125 -63.5t-66 -163.5l-102 -562q-45 -253 -197.5 -366 t-396.5 -113q-116 0 -208.5 28t-146.5 69.5t-89.5 96t-48.5 102t-13 91.5t25 178l110 549q15 75 -11.5 114.5t-111.5 39.5h-34zM780 1389l338 446h113v-446h-47l-66 286l-291 -286h-47z" />
<glyph unicode="&#xdc;" horiz-adv-x="1492" d="M240 1235l8 39h520l-8 -39q-91 0 -135.5 -31t-61.5 -112l-114 -566q-25 -131 -25 -196q0 -141 105.5 -227.5t277.5 -86.5q198 0 330.5 109t171.5 324l104 583q19 109 -29 156t-151 47l8 39h422l-8 -39q-79 -9 -125 -63.5t-66 -163.5l-102 -562q-45 -253 -197.5 -366 t-396.5 -113q-116 0 -208.5 28t-146.5 69.5t-89.5 96t-48.5 102t-13 91.5t25 178l110 549q15 75 -11.5 114.5t-111.5 39.5h-34zM807 1538q0 31 22.5 53.5t53.5 22.5t53 -22.5t22 -53.5t-22 -53.5t-53 -22.5t-53.5 22.5t-22.5 53.5zM1133 1538q0 31 22 53.5t53 22.5 t53.5 -22.5t22.5 -53.5t-22.5 -53.5t-53.5 -22.5t-53 22.5t-22 53.5z" />
<glyph unicode="&#xdd;" horiz-adv-x="1280" d="M233 1235l7 39h426l-7 -39q-91 -6 -109 -43.5t21 -116.5l232 -493l426 493q37 43 43 78t-25.5 57.5t-99.5 24.5l8 39h350l-6 -39q-53 -19 -89.5 -48t-88.5 -89l-504 -578l-67 -334q-28 -147 139 -147h53l-8 -39h-584l8 39h37q89 0 134 36t59 111l65 334l-258 567 q-37 81 -69 114.5t-93 33.5zM788 1382l211 445h146l-320 -445h-37z" />
<glyph unicode="&#xde;" horiz-adv-x="1153" d="M92 0l8 39q84 4 124 44t59 132l180 887q13 68 -21.5 100.5t-105.5 32.5h-25l6 39h490l-10 -37q-69 -3 -113.5 -40t-62.5 -122l-11 -51h164q209 0 319.5 -97.5t110.5 -252.5q0 -51 -14.5 -105t-52.5 -113t-94.5 -104t-150 -74.5t-210.5 -29.5q-146 0 -223 26l-15 -71 q-18 -87 12 -125.5t124 -38.5h28l-8 -39h-508zM467 315q36 -13 89 -19.5t81 -6.5q79 0 143.5 21t106 57t71.5 78.5t45.5 91.5t22 88.5t6.5 76.5q0 132 -71 201.5t-209 69.5h-152z" />
<glyph unicode="&#xdf;" horiz-adv-x="897" d="M-379 -371q0 23 17.5 39.5t42.5 16.5q29 0 56 -15t45 -33.5t45.5 -33.5t57.5 -15q47 0 84.5 34.5t63.5 100t42 128t31 149.5l146 817q20 109 60.5 207.5t99 178.5t139.5 127.5t172 47.5q97 0 163 -71t66 -174q0 -109 -82 -200.5t-243 -129.5v-4q112 -41 165.5 -118.5 t53.5 -199.5q0 -121 -57.5 -239.5t-150 -192.5t-187.5 -74q-49 0 -79 21.5t-30 56.5q0 24 15 40t38 16q31 0 67 -39t62 -39q53 0 95.5 61t64 155t21.5 199q0 114 -46.5 205t-136.5 129l6 31q93 10 162.5 64.5t102 128t32.5 153.5q0 78 -40.5 128t-104.5 50q-66 0 -118 -41.5 t-87.5 -119t-58.5 -161t-43 -194.5l-92 -524q-63 -360 -184.5 -566t-297.5 -206q-74 0 -126 31t-52 75z" />
<glyph unicode="&#xe0;" horiz-adv-x="831" d="M98 186q0 116 61.5 236.5t158.5 212.5t227.5 148.5t259.5 52.5l-131 -654q-17 -88 10 -88q26 0 121 105v-47q-63 -74 -122 -125.5t-91 -51.5q-101 0 -29 285l-4 4q-60 -72 -177.5 -180.5t-166.5 -108.5q-44 0 -80.5 65.5t-36.5 145.5zM223 227q0 -65 21 -107t49 -42 q22 0 85 55t197 189l82 409q-184 -11 -288 -115q-60 -60 -103 -173.5t-43 -215.5zM389 1352h146l210 -445h-36z" />
<glyph unicode="&#xe1;" horiz-adv-x="831" d="M98 186q0 116 61.5 236.5t158.5 212.5t227.5 148.5t259.5 52.5l-131 -654q-17 -88 10 -88q26 0 121 105v-47q-63 -74 -122 -125.5t-91 -51.5q-101 0 -29 285l-4 4q-60 -72 -177.5 -180.5t-166.5 -108.5q-44 0 -80.5 65.5t-36.5 145.5zM223 227q0 -65 21 -107t49 -42 q22 0 85 55t197 189l82 409q-184 -11 -288 -115q-60 -60 -103 -173.5t-43 -215.5zM444 918l211 444h146l-320 -444h-37z" />
<glyph unicode="&#xe2;" horiz-adv-x="831" d="M98 186q0 116 61.5 236.5t158.5 212.5t227.5 148.5t259.5 52.5l-131 -654q-17 -88 10 -88q26 0 121 105v-47q-63 -74 -122 -125.5t-91 -51.5q-101 0 -29 285l-4 4q-60 -72 -177.5 -180.5t-166.5 -108.5q-44 0 -80.5 65.5t-36.5 145.5zM223 227q0 -65 21 -107t49 -42 q22 0 85 55t197 189l82 409q-184 -11 -288 -115q-60 -60 -103 -173.5t-43 -215.5zM330 907l338 447h112v-447h-47l-65 287l-291 -287h-47z" />
<glyph unicode="&#xe3;" horiz-adv-x="831" d="M98 186q0 116 61.5 236.5t158.5 212.5t227.5 148.5t259.5 52.5l-131 -654q-17 -88 10 -88q26 0 121 105v-47q-63 -74 -122 -125.5t-91 -51.5q-101 0 -29 285l-4 4q-60 -72 -177.5 -180.5t-166.5 -108.5q-44 0 -80.5 65.5t-36.5 145.5zM223 227q0 -65 21 -107t49 -42 q22 0 85 55t197 189l82 409q-184 -11 -288 -115q-60 -60 -103 -173.5t-43 -215.5zM293 1034q6 95 51 146q44 53 117 53q64 0 162 -62q32 -21 48.5 -31t43 -20t49.5 -10q46 0 72.5 31.5t27.5 89.5h27q0 -90 -44 -143.5t-118 -53.5q-70 0 -172 62q-37 22 -52 31t-42 19.5 t-47 10.5q-43 0 -66.5 -29t-30.5 -94h-26z" />
<glyph unicode="&#xe4;" horiz-adv-x="831" d="M98 186q0 116 61.5 236.5t158.5 212.5t227.5 148.5t259.5 52.5l-131 -654q-17 -88 10 -88q26 0 121 105v-47q-63 -74 -122 -125.5t-91 -51.5q-101 0 -29 285l-4 4q-60 -72 -177.5 -180.5t-166.5 -108.5q-44 0 -80.5 65.5t-36.5 145.5zM223 227q0 -65 21 -107t49 -42 q22 0 85 55t197 189l82 409q-184 -11 -288 -115q-60 -60 -103 -173.5t-43 -215.5zM356 1067q0 31 22.5 53.5t53.5 22.5t53.5 -22.5t22.5 -53.5t-22.5 -53.5t-53.5 -22.5t-53.5 22.5t-22.5 53.5zM682 1067q0 31 22.5 53.5t53.5 22.5t53.5 -22.5t22.5 -53.5t-22.5 -53.5 t-53.5 -22.5t-53.5 22.5t-22.5 53.5z" />
<glyph unicode="&#xe5;" horiz-adv-x="831" d="M98 186q0 116 61.5 236.5t158.5 212.5t227.5 148.5t259.5 52.5l-131 -654q-17 -88 10 -88q26 0 121 105v-47q-63 -74 -122 -125.5t-91 -51.5q-101 0 -29 285l-4 4q-60 -72 -177.5 -180.5t-166.5 -108.5q-44 0 -80.5 65.5t-36.5 145.5zM223 227q0 -65 21 -107t49 -42 q22 0 85 55t197 189l82 409q-184 -11 -288 -115q-60 -60 -103 -173.5t-43 -215.5zM422 1124q0 77 54 131t130 54t130.5 -54.5t54.5 -130.5t-54 -130t-131 -54q-76 0 -130 54t-54 130zM471 1124q0 -56 39.5 -95.5t95.5 -39.5t95.5 39.5t39.5 95.5t-40 96t-95 40t-95 -40 t-40 -96z" />
<glyph unicode="&#xe6;" horiz-adv-x="1173" d="M78 199q0 115 57.5 230t153 204.5t231 146t281.5 56.5l-25 -121l4 -4q68 67 125 96t125 29q74 0 121 -39.5t47 -100.5q0 -42 -18 -79t-54 -67t-77 -54.5t-101 -47t-111.5 -38.5t-121.5 -35q-15 -89 -15 -135q0 -83 42 -137t108 -54q45 0 96 21.5t135 76.5l19 -24 q-220 -148 -346 -148q-81 0 -139.5 79t-49.5 196q-117 -115 -218 -195t-136 -80q-51 0 -92 69.5t-41 154.5zM207 256q0 -79 21 -127.5t55 -48.5q15 0 36 9.5t46.5 28t48.5 36.5t51.5 44t45.5 42t40.5 39t26.5 26l88 440q-105 -9 -188 -47.5t-132.5 -90t-82 -117 t-44.5 -122.5t-12 -112zM723 412q182 50 273 116t91 166q0 43 -26.5 71t-67.5 28q-92 0 -161 -98t-109 -283z" />
<glyph unicode="&#xe7;" horiz-adv-x="555" d="M18 -387l7 33q106 -7 163.5 27.5t57.5 95.5q0 76 -103 79l68 132q-63 12 -100 67.5t-37 138.5q0 59 15.5 130t43 143.5t69 140t90 120t109 84.5t123.5 32q49 0 77 -20t28 -54q0 -28 -14 -46t-37 -18q-35 0 -81 27t-73 27q-47 0 -90.5 -65t-71.5 -156t-44.5 -180.5 t-16.5 -145.5q0 -71 31.5 -112.5t86.5 -41.5q46 0 102 35t105 96l27 -20q-74 -86 -157.5 -136.5t-153.5 -50.5l-17 -30q51 -1 84 -39.5t33 -95.5q0 -102 -87.5 -154t-236.5 -43z" />
<glyph unicode="&#xe8;" horiz-adv-x="704" d="M100 254q0 97 35.5 200t94.5 188t144 139.5t177 54.5q80 0 123 -35t43 -99q0 -192 -467 -329q-35 -135 1.5 -228.5t137.5 -93.5q92 0 236 109l18 -29q-92 -72 -183.5 -114t-156.5 -42q-86 0 -144.5 80t-58.5 199zM258 412q99 26 169.5 59t98.5 61q72 72 72 173 q0 88 -76 88q-176 0 -264 -381zM326 1362h145l211 -444h-37z" />
<glyph unicode="&#xe9;" horiz-adv-x="704" d="M100 254q0 97 35.5 200t94.5 188t144 139.5t177 54.5q80 0 123 -35t43 -99q0 -192 -467 -329q-35 -135 1.5 -228.5t137.5 -93.5q92 0 236 109l18 -29q-92 -72 -183.5 -114t-156.5 -42q-86 0 -144.5 80t-58.5 199zM258 412q99 26 169.5 59t98.5 61q72 72 72 173 q0 88 -76 88q-176 0 -264 -381zM381 918l211 444h145l-319 -444h-37z" />
<glyph unicode="&#xea;" horiz-adv-x="704" d="M100 254q0 97 35.5 200t94.5 188t144 139.5t177 54.5q80 0 123 -35t43 -99q0 -192 -467 -329q-35 -135 1.5 -228.5t137.5 -93.5q92 0 236 109l18 -29q-92 -72 -183.5 -114t-156.5 -42q-86 0 -144.5 80t-58.5 199zM258 412q99 26 169.5 59t98.5 61q72 72 72 173 q0 88 -76 88q-176 0 -264 -381zM266 907l338 447h113v-447h-47l-66 287l-291 -287h-47z" />
<glyph unicode="&#xeb;" horiz-adv-x="704" d="M100 254q0 97 35.5 200t94.5 188t144 139.5t177 54.5q80 0 123 -35t43 -99q0 -192 -467 -329q-35 -135 1.5 -228.5t137.5 -93.5q92 0 236 109l18 -29q-92 -72 -183.5 -114t-156.5 -42q-86 0 -144.5 80t-58.5 199zM258 412q99 26 169.5 59t98.5 61q72 72 72 173 q0 88 -76 88q-176 0 -264 -381zM293 1073q0 31 22.5 53.5t53.5 22.5t53 -22.5t22 -53.5t-22 -53.5t-53 -22.5t-53.5 22.5t-22.5 53.5zM618 1073q0 31 22.5 53.5t53.5 22.5t53.5 -22.5t22.5 -53.5t-22.5 -53.5t-53.5 -22.5t-53.5 22.5t-22.5 53.5z" />
<glyph unicode="&#xec;" horiz-adv-x="491" d="M115 637q69 81 138.5 140t106.5 59q28 0 36.5 -24t-3.5 -101l-114 -561q-7 -32 -5.5 -50t17.5 -18q25 0 129 125l26 -23q-177 -209 -253 -209q-26 0 -41 19t-15 53q0 32 8 78l115 561q6 29 -10 29q-17 0 -41 -27l-74 -76zM219 1362h146l210 -444h-36z" />
<glyph unicode="&#xed;" horiz-adv-x="491" d="M115 637q69 81 138.5 140t106.5 59q28 0 36.5 -24t-3.5 -101l-114 -561q-7 -32 -5.5 -50t17.5 -18q25 0 129 125l26 -23q-177 -209 -253 -209q-26 0 -41 19t-15 53q0 32 8 78l115 561q6 29 -10 29q-17 0 -41 -27l-74 -76zM274 918l211 444h146l-320 -444h-37z" />
<glyph unicode="&#xee;" horiz-adv-x="491" d="M115 637q69 81 138.5 140t106.5 59q28 0 36.5 -24t-3.5 -101l-114 -561q-7 -32 -5.5 -50t17.5 -18q25 0 129 125l26 -23q-177 -209 -253 -209q-26 0 -41 19t-15 53q0 32 8 78l115 561q6 29 -10 29q-17 0 -41 -27l-74 -76zM160 907l338 447h112v-447h-47l-65 287 l-291 -287h-47z" />
<glyph unicode="&#xef;" horiz-adv-x="491" d="M115 637q69 81 138.5 140t106.5 59q28 0 36.5 -24t-3.5 -101l-114 -561q-7 -32 -5.5 -50t17.5 -18q25 0 129 125l26 -23q-177 -209 -253 -209q-26 0 -41 19t-15 53q0 32 8 78l115 561q6 29 -10 29q-17 0 -41 -27l-74 -76zM123 1067q0 31 22.5 53.5t53.5 22.5t53 -22.5 t22 -53.5t-22 -53.5t-53 -22.5t-53.5 22.5t-22.5 53.5zM449 1067q0 31 22 53.5t53 22.5t53.5 -22.5t22.5 -53.5t-22.5 -53.5t-53.5 -22.5t-53 22.5t-22 53.5z" />
<glyph unicode="&#xf0;" horiz-adv-x="854" d="M113 289q0 98 38.5 188.5t96 153.5t123.5 111t122 71t91 23q49 0 86 -37q-4 156 -72 293l-248 -109l-14 35l244 106q-51 94 -131 150l22 35q115 -46 191 -148l239 105l14 -35l-231 -101q65 -95 92 -208.5t27 -208.5q0 -370 -158 -535q-90 -96 -191 -149.5t-153 -53.5 q-77 0 -132.5 92.5t-55.5 221.5zM246 305q0 -111 40.5 -182.5t104.5 -71.5q67 0 134.5 81.5t108 190t40.5 193.5q0 112 -44.5 178t-127.5 66q-69 0 -129 -65t-93.5 -169.5t-33.5 -220.5z" />
<glyph unicode="&#xf1;" horiz-adv-x="960" d="M113 584q60 90 141.5 171t118.5 81q17 0 28.5 -18t4.5 -54l-74 -367h4q145 193 271.5 316t195.5 123q40 0 61 -34.5t19 -86.5q0 -48 -17 -117l-127 -477q-15 -60 13 -60q30 0 172 170l22 -18q-50 -79 -140 -158.5t-142 -79.5q-37 0 -52 39.5t2 110.5l136 526 q11 46 0.5 68t-31.5 22q-36 0 -113 -77q-100 -100 -289 -340l-63 -314q-6 -35 -35 -35h-63q-20 0 -26.5 8.5t-2.5 30.5l129 625q9 47 -8 47q-25 0 -109 -123zM356 1034q6 94 52 146q44 53 116 53q64 0 162 -62q32 -21 48.5 -31t43 -20t49.5 -10q46 0 73 31.5t28 89.5h26 q0 -91 -43.5 -144t-117.5 -53q-70 0 -172 62q-35 22 -52 31t-43.5 19.5t-46.5 10.5q-43 0 -66 -28.5t-30 -94.5h-27z" />
<glyph unicode="&#xf2;" horiz-adv-x="811" d="M106 299q0 94 38 182.5t95.5 150.5t124 109.5t125 71t97.5 23.5q24 0 54 -17t60.5 -50.5t51 -95t20.5 -138.5q0 -93 -29 -176.5t-75 -142.5t-101 -106.5t-110 -76t-98.5 -43.5t-69.5 -15q-72 0 -127.5 98.5t-55.5 225.5zM238 307q0 -121 43 -188.5t100 -67.5q77 0 139 76 t91.5 178t29.5 201q0 107 -46 180.5t-114 73.5q-62 0 -119.5 -70.5t-90.5 -175.5t-33 -207zM379 1362h145l211 -444h-37z" />
<glyph unicode="&#xf3;" horiz-adv-x="811" d="M106 299q0 94 38 182.5t95.5 150.5t124 109.5t125 71t97.5 23.5q24 0 54 -17t60.5 -50.5t51 -95t20.5 -138.5q0 -93 -29 -176.5t-75 -142.5t-101 -106.5t-110 -76t-98.5 -43.5t-69.5 -15q-72 0 -127.5 98.5t-55.5 225.5zM238 307q0 -121 43 -188.5t100 -67.5q77 0 139 76 t91.5 178t29.5 201q0 107 -46 180.5t-114 73.5q-62 0 -119.5 -70.5t-90.5 -175.5t-33 -207zM434 918l211 444h146l-320 -444h-37z" />
<glyph unicode="&#xf4;" horiz-adv-x="811" d="M106 299q0 94 38 182.5t95.5 150.5t124 109.5t125 71t97.5 23.5q24 0 54 -17t60.5 -50.5t51 -95t20.5 -138.5q0 -93 -29 -176.5t-75 -142.5t-101 -106.5t-110 -76t-98.5 -43.5t-69.5 -15q-72 0 -127.5 98.5t-55.5 225.5zM238 307q0 -121 43 -188.5t100 -67.5q77 0 139 76 t91.5 178t29.5 201q0 107 -46 180.5t-114 73.5q-62 0 -119.5 -70.5t-90.5 -175.5t-33 -207zM319 907l338 447h113v-447h-47l-66 287l-290 -287h-48z" />
<glyph unicode="&#xf5;" horiz-adv-x="811" d="M106 299q0 94 38 182.5t95.5 150.5t124 109.5t125 71t97.5 23.5q24 0 54 -17t60.5 -50.5t51 -95t20.5 -138.5q0 -93 -29 -176.5t-75 -142.5t-101 -106.5t-110 -76t-98.5 -43.5t-69.5 -15q-72 0 -127.5 98.5t-55.5 225.5zM238 307q0 -121 43 -188.5t100 -67.5q77 0 139 76 t91.5 178t29.5 201q0 107 -46 180.5t-114 73.5q-62 0 -119.5 -70.5t-90.5 -175.5t-33 -207zM283 1034q6 95 51 146q44 53 117 53q29 0 59.5 -10t50.5 -21t51 -31t48.5 -30.5t44 -20.5t49.5 -10q46 0 72.5 31.5t27.5 89.5h27q0 -90 -44 -143.5t-118 -53.5q-70 0 -172 62 q-37 22 -52 31t-42 19.5t-47 10.5q-43 0 -66.5 -29t-30.5 -94h-26z" />
<glyph unicode="&#xf6;" horiz-adv-x="811" d="M106 299q0 94 38 182.5t95.5 150.5t124 109.5t125 71t97.5 23.5q24 0 54 -17t60.5 -50.5t51 -95t20.5 -138.5q0 -93 -29 -176.5t-75 -142.5t-101 -106.5t-110 -76t-98.5 -43.5t-69.5 -15q-72 0 -127.5 98.5t-55.5 225.5zM238 307q0 -121 43 -188.5t100 -67.5q77 0 139 76 t91.5 178t29.5 201q0 107 -46 180.5t-114 73.5q-62 0 -119.5 -70.5t-90.5 -175.5t-33 -207zM346 1067q0 31 22.5 53.5t53.5 22.5t53.5 -22.5t22.5 -53.5t-22.5 -53.5t-53.5 -22.5t-53.5 22.5t-22.5 53.5zM672 1067q0 31 22.5 53.5t53.5 22.5t53 -22.5t22 -53.5t-22 -53.5 t-53 -22.5t-53.5 22.5t-22.5 53.5z" />
<glyph unicode="&#xf7;" horiz-adv-x="1366" d="M264 610v90h1075v-90h-1075zM735 238q0 26 20.5 45.5t47.5 19.5q26 0 45.5 -19.5t19.5 -45.5q0 -27 -19.5 -47.5t-45.5 -20.5t-47 21t-21 47zM735 1073q0 26 21 47t47 21t45.5 -20.5t19.5 -47.5q0 -26 -19.5 -45.5t-45.5 -19.5q-27 0 -47.5 19.5t-20.5 45.5z" />
<glyph unicode="&#xf8;" horiz-adv-x="811" d="M57 0l90 102q-41 86 -41 197q0 94 38 182.5t95.5 150.5t124 109.5t125 71t97.5 23.5q67 0 127 -84l75 88l33 -29l-86 -98q37 -81 37 -178q0 -93 -29 -176.5t-75 -142.5t-101 -106.5t-110 -76t-98.5 -43.5t-69.5 -15q-63 0 -121 88l-78 -90zM238 307q0 -16 8 -90l370 424 q-22 55 -57 86t-78 33q-62 0 -119.5 -70.5t-90.5 -175.5t-33 -207zM258 168q18 -55 52 -86t71 -31q77 0 139 76t91.5 178t29.5 201q0 44 -10 88z" />
<glyph unicode="&#xf9;" horiz-adv-x="960" d="M117 606q63 94 134.5 162t110.5 68q23 0 32.5 -18t8 -48.5t-11.5 -79.5l-100 -495q-6 -27 -6 -50q0 -45 24 -45q28 0 127 99t192 227.5t107 202.5l33 168q4 22 16 30.5t35 8.5h45q25 0 31 -8.5t0 -36.5l-133 -652q-6 -24 14 -24q32 0 127 121l25 -23q-73 -92 -153 -165 t-111 -73q-39 0 -39 76q0 38 18 137l51 261h-6q-106 -150 -235 -279q-92 -92 -153 -143.5t-91 -51.5q-57 0 -57 113q0 42 16 127l84 414q4 20 5.5 32.5t1 20t-3 10t-7.5 2.5q-27 0 -107 -102zM453 1362h145l211 -444h-37z" />
<glyph unicode="&#xfa;" horiz-adv-x="960" d="M117 606q63 94 134.5 162t110.5 68q23 0 32.5 -18t8 -48.5t-11.5 -79.5l-100 -495q-6 -27 -6 -50q0 -45 24 -45q28 0 127 99t192 227.5t107 202.5l33 168q4 22 16 30.5t35 8.5h45q25 0 31 -8.5t0 -36.5l-133 -652q-6 -24 14 -24q32 0 127 121l25 -23q-73 -92 -153 -165 t-111 -73q-39 0 -39 76q0 38 18 137l51 261h-6q-106 -150 -235 -279q-92 -92 -153 -143.5t-91 -51.5q-57 0 -57 113q0 42 16 127l84 414q4 20 5.5 32.5t1 20t-3 10t-7.5 2.5q-27 0 -107 -102zM508 918l211 444h145l-319 -444h-37z" />
<glyph unicode="&#xfb;" horiz-adv-x="960" d="M117 606q63 94 134.5 162t110.5 68q23 0 32.5 -18t8 -48.5t-11.5 -79.5l-100 -495q-6 -27 -6 -50q0 -45 24 -45q28 0 127 99t192 227.5t107 202.5l33 168q4 22 16 30.5t35 8.5h45q25 0 31 -8.5t0 -36.5l-133 -652q-6 -24 14 -24q32 0 127 121l25 -23q-73 -92 -153 -165 t-111 -73q-39 0 -39 76q0 38 18 137l51 261h-6q-106 -150 -235 -279q-92 -92 -153 -143.5t-91 -51.5q-57 0 -57 113q0 42 16 127l84 414q4 20 5.5 32.5t1 20t-3 10t-7.5 2.5q-27 0 -107 -102zM393 907l338 447h113v-447h-47l-66 287l-291 -287h-47z" />
<glyph unicode="&#xfc;" horiz-adv-x="960" d="M117 606q63 94 134.5 162t110.5 68q23 0 32.5 -18t8 -48.5t-11.5 -79.5l-100 -495q-6 -27 -6 -50q0 -45 24 -45q28 0 127 99t192 227.5t107 202.5l33 168q4 22 16 30.5t35 8.5h45q25 0 31 -8.5t0 -36.5l-133 -652q-6 -24 14 -24q32 0 127 121l25 -23q-73 -92 -153 -165 t-111 -73q-39 0 -39 76q0 38 18 137l51 261h-6q-106 -150 -235 -279q-92 -92 -153 -143.5t-91 -51.5q-57 0 -57 113q0 42 16 127l84 414q4 20 5.5 32.5t1 20t-3 10t-7.5 2.5q-27 0 -107 -102zM420 1073q0 31 22.5 53.5t53.5 22.5t53 -22.5t22 -53.5t-22 -53.5t-53 -22.5 t-53.5 22.5t-22.5 53.5zM745 1073q0 31 22.5 53.5t53.5 22.5t53.5 -22.5t22.5 -53.5t-22.5 -53.5t-53.5 -22.5t-53.5 22.5t-22.5 53.5z" />
<glyph unicode="&#xfd;" horiz-adv-x="897" d="M41 -465l14 33q105 0 131 26q18 18 63 103t90.5 214t45.5 222q0 101 -24 248t-53 251.5t-44 104.5q-23 0 -50.5 -27.5t-92.5 -109.5l-25 16q75 107 136.5 163.5t99.5 56.5q32 0 69 -100.5t64.5 -283.5t28.5 -384h4q89 151 179.5 351.5t90.5 260.5q0 18 -16.5 36t-16.5 42 q0 31 24 54.5t56 23.5q37 0 59.5 -28.5t22.5 -72.5q0 -65 -48.5 -162t-110.5 -184.5t-132 -199.5t-102 -191l-84 -211q-12 -29 -31.5 -73.5t-30 -70t-10.5 -34.5q0 -24 27.5 -31.5t103.5 -9.5l-14 -33h-424zM477 918l211 444h146l-320 -444h-37z" />
<glyph unicode="&#xfe;" horiz-adv-x="897" d="M-133 -477l8 37q59 3 90 10t56 30t37 59t26 105l297 1465q4 19 2 27t-14 8t-76 -33l-17 29l179 96q42 22 55 22q7 0 11.5 -2.5t6.5 -7t2.5 -9t0 -11.5t-1.5 -11.5t-3 -12t-2 -9.5l-162 -807h5q89 129 197 228.5t161 99.5q51 0 94 -93.5t43 -203.5q0 -140 -70 -271.5 t-184.5 -212t-236.5 -80.5q-58 0 -113 19l-57 -275q-12 -55 -8.5 -90.5t41 -52t122.5 -16.5l-8 -37h-481zM274 76q59 -51 132 -51q83 0 159 71t122 188t46 244q0 87 -26 146t-66 59q-33 0 -121.5 -92.5t-173.5 -210.5z" />
<glyph unicode="&#xff;" horiz-adv-x="897" d="M41 -465l14 33q105 0 131 26q18 18 63 103t90.5 214t45.5 222q0 101 -24 248t-53 251.5t-44 104.5q-23 0 -50.5 -27.5t-92.5 -109.5l-25 16q75 107 136.5 163.5t99.5 56.5q32 0 69 -100.5t64.5 -283.5t28.5 -384h4q89 151 179.5 351.5t90.5 260.5q0 18 -16.5 36t-16.5 42 q0 31 24 54.5t56 23.5q37 0 59.5 -28.5t22.5 -72.5q0 -65 -48.5 -162t-110.5 -184.5t-132 -199.5t-102 -191l-84 -211q-12 -29 -31.5 -73.5t-30 -70t-10.5 -34.5q0 -24 27.5 -31.5t103.5 -9.5l-14 -33h-424zM389 1067q0 31 22.5 53.5t53.5 22.5t53.5 -22.5t22.5 -53.5 t-22.5 -53.5t-53.5 -22.5t-53.5 22.5t-22.5 53.5zM715 1067q0 31 22.5 53.5t53.5 22.5t53 -22.5t22 -53.5t-22 -53.5t-53 -22.5t-53.5 22.5t-22.5 53.5z" />
<glyph unicode="&#x152;" horiz-adv-x="2111" d="M188 567q0 99 29 197t95.5 193t162 167t239.5 116t318 44q55 0 150.5 -5t126.5 -5h813l-58 -283h-32q12 126 -42.5 179t-177.5 53h-358l-113 -553h377q85 0 130.5 28.5t78.5 108.5h37l-74 -361h-35q9 105 -35 138.5t-169 33.5h-320l-84 -409q-18 -87 14.5 -122.5 t145.5 -35.5h156q132 0 247 63t172 160h35l-88 -274h-868q-35 0 -113 -4t-143 -4q-135 0 -243 35t-176.5 91t-114 132.5t-64.5 155t-19 161.5zM367 524q0 -100 25 -184t76 -152.5t140 -107.5t207 -39q114 0 189 49.5t100 169.5l151 746q24 112 -27 169.5t-212 57.5 q-124 0 -232 -45t-183 -118t-129 -166.5t-79.5 -190.5t-25.5 -189z" />
<glyph unicode="&#x153;" horiz-adv-x="1193" d="M94 270q0 100 34.5 192.5t87.5 158.5t116 116t122 74.5t103 24.5q124 0 170 -201q118 201 315 201q78 0 125 -39.5t47 -104.5q0 -41 -18.5 -77.5t-56.5 -66.5t-79 -53.5t-104.5 -47t-113.5 -39.5t-123 -37q-10 -66 -10 -121q0 -99 41 -152t118 -53q104 0 244 107l18 -25 q-94 -72 -184.5 -112t-159.5 -40t-119.5 51t-72.5 144q-58 -77 -157 -136t-163 -59q-72 0 -126 87.5t-54 207.5zM223 303q0 -112 42.5 -181t111.5 -69q67 0 122 77t83 184.5t28 213.5q0 100 -36.5 169t-90.5 69q-110 0 -185 -137.5t-75 -325.5zM727 408q181 41 280 114 t99 164q0 46 -30.5 76.5t-76.5 30.5q-201 0 -272 -385z" />
<glyph unicode="&#x178;" horiz-adv-x="1280" d="M233 1235l7 39h426l-7 -39q-91 -6 -109 -43.5t21 -116.5l232 -493l426 493q37 43 43 78t-25.5 57.5t-99.5 24.5l8 39h350l-6 -39q-53 -19 -89.5 -48t-88.5 -89l-504 -578l-67 -334q-28 -147 139 -147h53l-8 -39h-584l8 39h37q89 0 134 36t59 111l65 334l-258 567 q-37 81 -69 114.5t-93 33.5zM700 1538q0 31 22.5 53.5t53.5 22.5t53.5 -22.5t22.5 -53.5t-22.5 -53.5t-53.5 -22.5t-53.5 22.5t-22.5 53.5zM1026 1538q0 31 22.5 53.5t53.5 22.5t53.5 -22.5t22.5 -53.5t-22.5 -53.5t-53.5 -22.5t-53.5 22.5t-22.5 53.5z" />
<glyph unicode="&#x2c6;" d="M254 907l338 447h113v-447h-48l-65 287l-291 -287h-47z" />
<glyph unicode="&#x2dc;" d="M217 1034q6 95 51 146q44 53 117 53q64 0 162 -62q32 -21 48.5 -31t43 -20t49.5 -10q46 0 72.5 31.5t27.5 89.5h27q0 -90 -44 -143.5t-118 -53.5q-70 0 -172 62q-37 22 -52 31t-42 19.5t-47 10.5q-43 0 -66 -28.5t-30 -94.5h-27z" />
<glyph unicode="&#x2000;" horiz-adv-x="921" />
<glyph unicode="&#x2001;" horiz-adv-x="1843" />
<glyph unicode="&#x2002;" horiz-adv-x="921" />
<glyph unicode="&#x2003;" horiz-adv-x="1843" />
<glyph unicode="&#x2004;" horiz-adv-x="614" />
<glyph unicode="&#x2005;" horiz-adv-x="460" />
<glyph unicode="&#x2006;" horiz-adv-x="307" />
<glyph unicode="&#x2007;" horiz-adv-x="307" />
<glyph unicode="&#x2008;" horiz-adv-x="230" />
<glyph unicode="&#x2009;" horiz-adv-x="368" />
<glyph unicode="&#x200a;" horiz-adv-x="102" />
<glyph unicode="&#x2010;" d="M127 342l27 127h460l-26 -127h-461z" />
<glyph unicode="&#x2011;" d="M127 342l27 127h460l-26 -127h-461z" />
<glyph unicode="&#x2012;" d="M127 342l27 127h460l-26 -127h-461z" />
<glyph unicode="&#x2013;" horiz-adv-x="1024" d="M-12 465v94h1048v-94h-1048z" />
<glyph unicode="&#x2014;" horiz-adv-x="2048" d="M-12 465v94h2072v-94h-2072z" />
<glyph unicode="&#x2018;" horiz-adv-x="598" d="M420 909q0 117 71 213.5t222 182.5l16 -35q-99 -67 -141.5 -120t-42.5 -108q0 -42 31.5 -94t31.5 -90q0 -40 -24.5 -67t-61.5 -27q-43 0 -72.5 42t-29.5 103z" />
<glyph unicode="&#x2019;" horiz-adv-x="598" d="M250 799q99 67 141.5 120t42.5 107q0 42 -31.5 94t-31.5 90q0 40 24.5 67.5t61.5 27.5q43 0 72.5 -42.5t29.5 -103.5q0 -117 -71 -213t-222 -182z" />
<glyph unicode="&#x201a;" horiz-adv-x="598" d="M147 -319q99 67 142 120t43 107q0 42 -32 93.5t-32 90.5q0 40 24.5 67t61.5 27q43 0 73 -42t30 -103q0 -117 -71 -213t-222 -182z" />
<glyph unicode="&#x201c;" horiz-adv-x="1024" d="M410 909q0 117 71 213.5t221 182.5l17 -35q-99 -67 -141.5 -120t-42.5 -108q0 -42 31.5 -94t31.5 -90q0 -40 -24.5 -67t-61.5 -27q-43 0 -72.5 42t-29.5 103zM831 909q0 117 71 213.5t222 182.5l17 -35q-99 -67 -142 -120.5t-43 -107.5q0 -42 32 -94t32 -90 q0 -40 -24.5 -67t-61.5 -27q-43 0 -73 42t-30 103z" />
<glyph unicode="&#x201d;" horiz-adv-x="1024" d="M264 799q99 67 142 120t43 107q0 42 -32 94t-32 90q0 40 24.5 67.5t61.5 27.5q43 0 72.5 -42.5t29.5 -103.5q0 -117 -70.5 -213t-221.5 -182zM686 799q99 67 141.5 120t42.5 107q0 42 -31.5 94t-31.5 90q0 40 24.5 67.5t61.5 27.5q43 0 72.5 -42.5t29.5 -103.5 q0 -117 -71 -213t-222 -182z" />
<glyph unicode="&#x201e;" horiz-adv-x="1024" d="M88 -319q99 67 141.5 120t42.5 107q0 42 -31.5 94t-31.5 90q0 40 24.5 67t61.5 27q43 0 72.5 -42t29.5 -103q0 -117 -71 -213t-222 -182zM510 -319q99 67 141.5 120t42.5 107q0 42 -31.5 94t-31.5 90q0 40 24.5 67t61.5 27q43 0 72.5 -42t29.5 -103q0 -117 -71 -213 t-222 -182z" />
<glyph unicode="&#x2022;" horiz-adv-x="724" d="M231 639q0 104 74 177t178 73t177 -73t73 -177t-73 -178t-177 -74t-178 74t-74 178z" />
<glyph unicode="&#x2026;" horiz-adv-x="2048" d="M238 72q0 42 29.5 69t74.5 27q44 0 74 -26.5t30 -69.5q0 -44 -30 -70.5t-74 -26.5q-45 0 -74.5 27.5t-29.5 69.5zM920 72q0 42 29.5 69t74.5 27q44 0 74 -26.5t30 -69.5q0 -44 -30 -70.5t-74 -26.5q-45 0 -74.5 27.5t-29.5 69.5zM1602 72q0 42 29.5 69t74.5 27 q44 0 74 -26.5t30 -69.5q0 -44 -30 -70.5t-74 -26.5q-45 0 -74.5 27.5t-29.5 69.5z" />
<glyph unicode="&#x202f;" horiz-adv-x="368" />
<glyph unicode="&#x2039;" d="M252 449l393 378h41l-293 -378l123 -377h-47z" />
<glyph unicode="&#x203a;" d="M133 72l293 379l-123 376h47l217 -376l-393 -379h-41z" />
<glyph unicode="&#x205f;" horiz-adv-x="460" />
<glyph unicode="&#x20ac;" horiz-adv-x="1067" d="M150 551l12 49h98q5 68 8 94h-88l10 49h86q15 79 45.5 157t81.5 151.5t115 129.5t150.5 90t183.5 34q55 0 101.5 -8.5t86.5 -27.5t55 -28t46 -29l-45 -264h-45q0 29 -0.5 48.5t-5 54.5t-12 59.5t-23 54t-37 47.5t-56 30.5t-77.5 12.5q-148 0 -264 -147t-150 -365h612 l-12 -49h-608q-4 -28 -6 -60t-2 -34h596l-11 -49h-585q0 -247 69.5 -375.5t227.5 -128.5q76 0 145.5 30t159.5 109l30 -34q-107 -101 -189.5 -141t-176.5 -40q-194 0 -306 158t-112 422h-108z" />
<glyph unicode="&#x2122;" horiz-adv-x="2004" d="M29 1155l20 201h729l23 -201h-35q-12 78 -55 109.5t-138 31.5h-71v-581q0 -82 17.5 -104.5t84.5 -26.5v-35h-375v35q48 5 67.5 15t27.5 34.5t8 81.5v581h-80q-92 0 -133 -30.5t-56 -110.5h-34zM868 549v35q74 0 94.5 23.5t20.5 107.5v467q0 91 -19.5 114t-95.5 23v37h289 l273 -574l264 574h278v-37q-72 -1 -90 -24.5t-18 -112.5v-467q0 -85 17 -105.5t91 -25.5v-35h-399v35q77 2 99 25t22 106v491h-4l-304 -657h-32l-305 649h-5v-483q0 -82 18.5 -106.5t78.5 -24.5h37v-35h-310z" />
<glyph unicode="&#xe000;" horiz-adv-x="839" d="M0 0v840h840v-840h-840z" />
<glyph unicode="&#xfb01;" horiz-adv-x="980" d="M-362 -387q0 28 17.5 45.5t43.5 17.5q29 0 62 -24t69.5 -48t71.5 -24q165 0 231 369l139 794h-143l4 37q124 17 154 31q23 135 73.5 245t116.5 179t140.5 106t150.5 37q80 0 138.5 -41t58.5 -96q0 -24 -17.5 -40.5t-42.5 -16.5q-27 0 -48.5 14t-36.5 34t-30.5 39.5 t-39.5 33.5t-56 14q-56 0 -98 -25.5t-69.5 -75t-44 -101.5t-31.5 -126l-37 -180h366q38 0 123 25h12l-129 -721q-11 -64 19 -64q23 0 56.5 30t94.5 103l27 -16q-68 -89 -135.5 -141t-120.5 -52q-72 0 -72 82q0 19 17 123l98 563h-371l-104 -608q-27 -156 -78.5 -275.5 t-118.5 -192t-143 -108.5t-158 -36q-75 0 -117 23.5t-42 66.5z" />
<glyph unicode="&#xfb02;" horiz-adv-x="980" d="M-362 -385q0 26 18 42.5t47 16.5q30 0 61.5 -23.5t66 -47t69.5 -23.5q47 0 87 29.5t67 79t45.5 106t29.5 119.5l143 829h-145l8 37q107 11 152 31q24 134 74 243.5t115 179t139.5 107t150.5 37.5q83 0 139 -41q17 7 45.5 23t32.5 18h27l-224 -1263q-11 -64 19 -64 q23 0 57 30.5t94 102.5l27 -16q-149 -193 -258 -193q-34 0 -53 22t-19 60q0 13 15 111l102 575h-373l-116 -694q-18 -101 -74.5 -216t-130.5 -189q-63 -63 -128.5 -92t-148.5 -29q-77 0 -119 24t-42 68zM412 811h370l70 391q-16 12 -42.5 45t-53.5 52.5t-64 19.5 q-171 0 -229 -266z" />
</font>
</defs>
</svg>
